# This file uses centimeters as units for non-parametric coordinates.

mtllib Cup 7.mtl
g default
v 7.104550 7.503571 -14.270908
v 7.021371 7.503571 -14.354086
v 6.794123 7.503571 -14.354086
v 6.680499 7.503571 -14.157283
v 6.710944 7.503571 -14.043659
v 6.907747 7.503571 -13.930035
v 7.104550 7.503571 -14.043659
v 7.122247 8.648590 -14.281124
v 7.031589 8.648590 -14.371783
v 6.783905 8.648590 -14.371783
v 6.660063 8.648590 -14.157283
v 6.693247 8.648590 -14.033441
v 6.907747 8.648590 -13.909600
v 7.122247 8.648590 -14.033441
v 6.907747 7.510056 -14.157283
v 6.696596 7.677799 -14.157283
v 6.802171 7.677799 -14.340146
v 7.013323 7.677799 -14.340146
v 7.090609 7.677799 -14.262858
v 7.090609 7.677799 -14.051707
v 6.907747 7.677799 -13.946132
v 6.724885 7.677799 -14.051707
v 6.695983 8.496113 -14.157283
v 6.801865 8.496113 -14.340675
v 7.013629 8.496113 -14.340675
v 7.091139 8.496113 -14.263165
v 7.091139 8.496113 -14.051401
v 6.907747 8.496113 -13.945520
v 6.724355 8.496113 -14.051401
v 6.737183 8.127959 -14.157283
v 6.822465 8.127959 -14.304995
v 6.993029 8.127959 -14.304995
v 7.055460 8.127959 -14.242566
v 7.055460 8.127959 -14.072001
v 6.907747 8.127959 -13.986719
v 6.760034 8.127959 -14.072001
v 6.737226 7.735328 -14.157283
v 6.822487 7.735328 -14.304957
v 6.993007 7.735328 -14.304957
v 7.055422 7.735328 -14.242543
v 7.055422 7.735328 -14.072022
v 6.907747 7.735328 -13.986763
v 6.760072 7.735328 -14.072022
v 6.721763 8.279426 -14.157283
v 6.814755 8.279426 -14.318350
v 7.000739 8.279426 -14.318350
v 7.068814 8.279426 -14.250275
v 7.068814 8.279426 -14.064292
v 6.907747 8.279426 -13.971300
v 6.746681 8.279426 -14.064292
v 6.903006 8.206335 -14.165494
vt 0.635316 0.078125
vt 0.578125 0.020934
vt 0.421875 0.020934
vt 0.343750 0.156250
vt 0.364684 0.234375
vt 0.500000 0.312500
vt 0.635316 0.234375
vt 0.375000 0.312500
vt 0.395833 0.312500
vt 0.437500 0.312500
vt 0.479167 0.312500
vt 0.500000 0.312500
vt 0.541667 0.312500
vt 0.583333 0.312500
vt 0.625000 0.312500
vt 0.375000 0.688440
vt 0.395833 0.688440
vt 0.437500 0.688440
vt 0.479167 0.688440
vt 0.500000 0.688440
vt 0.541667 0.688440
vt 0.583333 0.688440
vt 0.625000 0.688440
vt 0.500000 0.150000
vt 0.479167 0.365747
vt 0.437500 0.365747
vt 0.395833 0.365747
vt 0.625000 0.365747
vt 0.375000 0.365747
vt 0.583333 0.365747
vt 0.541667 0.365747
vt 0.500000 0.365747
vt 0.479167 0.602707
vt 0.437500 0.602707
vt 0.395833 0.602707
vt 0.625000 0.602707
vt 0.375000 0.602707
vt 0.583333 0.602707
vt 0.541667 0.602707
vt 0.500000 0.602707
vt 0.479167 0.522364
vt 0.437500 0.522364
vt 0.395833 0.522364
vt 0.625000 0.522364
vt 0.375000 0.522364
vt 0.583333 0.522364
vt 0.541667 0.522364
vt 0.500000 0.522364
vt 0.479167 0.436161
vt 0.437500 0.436161
vt 0.395833 0.436161
vt 0.625000 0.436161
vt 0.375000 0.436161
vt 0.583333 0.436161
vt 0.541667 0.436161
vt 0.500000 0.436161
vt 0.479167 0.566543
vt 0.437500 0.566543
vt 0.395833 0.566543
vt 0.625000 0.566543
vt 0.375000 0.566543
vt 0.583333 0.566543
vt 0.541667 0.566543
vt 0.500000 0.566543
vt 0.000000 0.000000
vt 1.000000 0.000000
vt 0.500000 1.000000
vt 0.000000 0.000000
vt 1.000000 0.000000
vt 0.500000 1.000000
vt 0.000000 0.000000
vt 1.000000 0.000000
vt 0.500000 1.000000
vt 0.000000 0.000000
vt 1.000000 0.000000
vt 0.500000 1.000000
vt 0.000000 0.000000
vt 1.000000 0.000000
vt 0.500000 1.000000
vt 0.000000 0.000000
vt 1.000000 0.000000
vt 0.500000 1.000000
vt 0.000000 0.000000
vt 1.000000 0.000000
vt 0.500000 1.000000
vn 0.960997 0.088987 -0.261851
vn 0.261849 0.088987 -0.960998
vn 0.255597 0.193300 -0.947262
vn 0.947263 0.193299 -0.255595
vn -0.490463 0.194385 -0.849506
vn -0.497881 0.091998 -0.862352
vn -0.948152 0.193299 -0.252277
vn -0.963173 0.088988 -0.253731
vn -0.707265 0.088989 0.701325
vn -0.694984 0.193299 0.692555
vn 0.000000 0.194384 0.980925
vn -0.000000 0.091999 0.995759
vn 0.849507 0.194384 0.490462
vn 0.862353 0.091998 0.497880
vn -0.008753 -0.999573 0.027885
vn -0.027885 -0.999573 0.008753
vn -0.000396 -1.000000 -0.000686
vn 0.014263 -0.999593 0.024704
vn 0.028526 -0.999573 0.006362
vn 0.021523 -0.999573 -0.019773
vn 0.000000 -0.999593 -0.028526
vn -0.024705 -0.999593 -0.014263
vn -0.795192 0.561621 -0.228587
vn -0.408409 0.576900 -0.707381
vn 0.199633 0.561628 -0.802945
vn 0.802947 0.561624 -0.199635
vn 0.707383 0.576897 0.408411
vn 0.000000 0.576894 0.816819
vn -0.574362 0.561619 0.595561
vn -0.944410 -0.222481 -0.242058
vn -0.486678 -0.229299 -0.842951
vn -0.492426 -0.173406 -0.852905
vn -0.951997 -0.166822 -0.256657
vn 0.262577 -0.222479 -0.938912
vn 0.253727 -0.166820 -0.952782
vn 0.952782 -0.166820 -0.253728
vn 0.938913 -0.222479 -0.262575
vn 0.842951 -0.229299 0.486678
vn 0.852905 -0.173407 0.492425
vn -0.000000 -0.229299 0.973356
vn 0.000000 -0.173408 0.984850
vn -0.696853 -0.222480 0.681835
vn -0.696123 -0.166822 0.698272
vn -0.959881 -0.108197 -0.258694
vn -0.496850 -0.112085 -0.860568
vn -0.499770 -0.030360 -0.865626
vn -0.965188 -0.029140 -0.259928
vn 0.255904 -0.108197 -0.960628
vn 0.257487 -0.029142 -0.965842
vn 0.965841 -0.029141 -0.257492
vn 0.960628 -0.108196 -0.255904
vn 0.860570 -0.112083 0.496847
vn 0.865627 -0.030358 0.499769
vn 0.000000 -0.112083 0.993699
vn 0.000000 -0.030357 0.999539
vn -0.701933 -0.108195 0.703977
vn -0.705913 -0.029139 0.707699
vn -0.500000 -0.000111 -0.866025
vn -0.965924 -0.000107 -0.258825
vn 0.258811 -0.000108 -0.965928
vn 0.965927 -0.000108 -0.258814
vn 0.866026 -0.000112 0.499999
vn -0.000000 -0.000112 1.000000
vn -0.707102 -0.000108 0.707112
vn -0.843028 0.480903 0.240908
vn -0.253535 0.468475 0.846316
vn -0.015715 0.999506 -0.027221
vn 0.440209 0.474199 0.762464
vn 0.859698 0.468476 0.203591
vn 0.630146 0.480903 -0.609630
vn -0.004674 0.500850 -0.865522
vn -0.747226 0.500850 -0.436809
s 1
g Glass_6
usemtl initialShadingGroup
f 1/8/1 2/9/2 18/27/3 19/29/4
f 17/26/5 18/27/3 2/9/2 3/10/6
f 16/25/7 17/26/5 3/10/6 4/11/8
f 4/11/8 5/12/9 22/32/10 16/25/7
f 21/31/11 22/32/10 5/12/9 6/13/12
f 20/30/13 21/31/11 6/13/12 7/14/14
f 19/28/4 20/30/13 7/14/14 1/15/1
s 2
f 2/2/15 1/1/16 15/24/17
f 2/2/15 15/24/17 3/3/18
f 3/3/18 15/24/17 4/4/19
f 5/5/20 4/4/19 15/24/17
f 5/5/20 15/24/17 6/6/21
f 6/6/21 15/24/17 7/7/22
f 7/7/22 15/24/17 1/1/16
s 1
f 37/49/23 38/50/24 17/26/5 16/25/7
f 38/50/24 39/51/25 18/27/3 17/26/5
f 19/29/4 18/27/3 39/51/25 40/53/26
f 40/52/26 41/54/27 20/30/13 19/28/4
f 41/54/27 42/55/28 21/31/11 20/30/13
f 42/55/28 43/56/29 22/32/10 21/31/11
f 16/25/7 22/32/10 43/56/29 37/49/23
s 3
f 11/19/30 10/18/31 24/34/32 23/33/33
f 10/18/31 9/17/34 25/35/35 24/34/32
f 26/37/36 25/35/35 9/17/34 8/16/37
f 8/23/37 14/22/38 27/38/39 26/36/36
f 14/22/38 13/21/40 28/39/41 27/38/39
f 13/21/40 12/20/42 29/40/43 28/39/41
f 23/33/33 29/40/43 12/20/42 11/19/30
f 44/57/44 45/58/45 31/42/46 30/41/47
f 45/58/45 46/59/48 32/43/49 31/42/46
f 33/45/50 32/43/49 46/59/48 47/61/51
f 47/60/51 48/62/52 34/46/53 33/44/50
f 48/62/52 49/63/54 35/47/55 34/46/53
f 49/63/54 50/64/56 36/48/57 35/47/55
f 30/41/47 36/48/57 50/64/56 44/57/44
f 30/41/47 31/42/46 38/50/58 37/49/59
f 31/42/46 32/43/49 39/51/60 38/50/58
f 40/53/61 39/51/60 32/43/49 33/45/50
f 33/44/50 34/46/53 41/54/62 40/52/61
f 34/46/53 35/47/55 42/55/63 41/54/62
f 35/47/55 36/48/57 43/56/64 42/55/63
f 37/49/59 43/56/64 36/48/57 30/41/47
f 23/33/33 24/34/32 45/58/45 44/57/44
f 24/34/32 25/35/35 46/59/48 45/58/45
f 47/61/51 46/59/48 25/35/35 26/37/36
f 26/36/36 27/38/39 48/62/52 47/60/51
f 27/38/39 28/39/41 49/63/54 48/62/52
f 28/39/41 29/40/43 50/64/56 49/63/54
f 44/57/44 50/64/56 29/40/43 23/33/33
s 4
f 8/65/65 9/66/66 51/67/67
f 9/68/66 10/69/68 51/70/67
f 10/71/68 11/72/69 51/73/67
f 11/74/69 12/75/70 51/76/67
f 12/77/70 13/78/71 51/79/67
f 13/80/71 14/81/72 51/82/67
f 14/83/72 8/84/65 51/85/67
