# This file uses centimeters as units for non-parametric coordinates.

mtllib Cup 3.mtl
g default
v 7.144324 7.504878 -17.326666
v 6.931754 7.504878 -17.518065
v 6.647280 7.504878 -17.488166
v 6.479148 7.504878 -17.256754
v 6.538619 7.504878 -16.976964
v 6.647280 7.504878 -16.879127
v 6.931754 7.504878 -16.849226
v 7.144324 7.504878 -17.040624
v 6.823094 7.504878 -17.183646
v 7.128238 7.538125 -17.319417
v 6.926441 7.538125 -17.501115
v 6.656385 7.538125 -17.472732
v 6.496777 7.538125 -17.253049
v 6.553234 7.538125 -16.987438
v 6.656385 7.538125 -16.894561
v 6.926441 7.538125 -16.866177
v 7.128238 7.538125 -17.047876
v 6.897675 7.584058 -17.215522
v 6.850298 7.584058 -17.258181
v 6.786895 7.584058 -17.251516
v 6.749422 7.584058 -17.199941
v 6.762677 7.584058 -17.137582
v 6.786895 7.584058 -17.115775
v 6.850298 7.584058 -17.109110
v 6.897675 7.584058 -17.151771
v 6.855975 7.603780 -17.196731
v 6.836527 7.603780 -17.214241
v 6.810499 7.603780 -17.211506
v 6.795117 7.603780 -17.190335
v 6.800558 7.603780 -17.164736
v 6.810499 7.603780 -17.155785
v 6.836527 7.603780 -17.153050
v 6.855975 7.603780 -17.170562
v 6.851385 7.790209 -17.194662
v 6.835011 7.790209 -17.209404
v 6.813098 7.790209 -17.207102
v 6.800147 7.790209 -17.189278
v 6.804728 7.790209 -17.167725
v 6.813098 7.790209 -17.160189
v 6.835011 7.790209 -17.157885
v 6.851385 7.790209 -17.172628
v 6.845677 8.010554 -17.192090
v 6.833125 8.010554 -17.203390
v 6.816329 8.010554 -17.201626
v 6.806401 8.010554 -17.187962
v 6.809913 8.010554 -17.171443
v 6.816329 8.010554 -17.165665
v 6.833125 8.010554 -17.163899
v 6.845677 8.010554 -17.175201
v 6.847717 8.185972 -17.193009
v 6.833799 8.185972 -17.205540
v 6.815173 8.185972 -17.203583
v 6.804165 8.185972 -17.188431
v 6.808060 8.185972 -17.170114
v 6.815173 8.185972 -17.163708
v 6.833799 8.185972 -17.161749
v 6.847717 8.185972 -17.174281
v 6.885327 8.224470 -17.209958
v 6.846220 8.224470 -17.245170
v 6.793884 8.224470 -17.239670
v 6.762952 8.224470 -17.197094
v 6.773895 8.224470 -17.145621
v 6.793884 8.224470 -17.127623
v 6.846220 8.224470 -17.122121
v 6.885327 8.224470 -17.157334
v 7.023590 8.273067 -17.271959
v 6.892326 8.273067 -17.390148
v 6.716661 8.273067 -17.371687
v 6.612842 8.273067 -17.228788
v 6.649570 8.273067 -17.056017
v 6.716661 8.273067 -16.995604
v 6.892326 8.273067 -16.977142
v 7.023590 8.273067 -17.095330
v 7.098394 8.335637 -17.306392
v 6.915956 8.335637 -17.470652
v 6.671807 8.335637 -17.444998
v 6.527513 8.335637 -17.246387
v 6.578559 8.335637 -17.006258
v 6.671807 8.335637 -16.922295
v 6.915956 8.335637 -16.896632
v 7.098394 8.335637 -17.060899
v 7.132334 8.459230 -17.321263
v 6.927792 8.459230 -17.505425
v 6.654062 8.459230 -17.476663
v 6.492285 8.459230 -17.253988
v 6.549516 8.459230 -16.984768
v 6.654062 8.459230 -16.890629
v 6.927792 8.459230 -16.861857
v 7.132334 8.459230 -17.046029
v 7.121791 8.565247 -17.316511
v 6.924310 8.565247 -17.494317
v 6.660030 8.565247 -17.466548
v 6.503839 8.565247 -17.251560
v 6.559093 8.565247 -16.991633
v 6.660030 8.565247 -16.900747
v 6.924310 8.565247 -16.872965
v 7.121791 8.565247 -17.050778
v 7.080664 8.699253 -17.297978
v 6.910728 8.699253 -17.450984
v 6.683310 8.699253 -17.427088
v 6.548905 8.699253 -17.242087
v 6.596453 8.699253 -17.018417
v 6.683310 8.699253 -16.940206
v 6.910728 8.699253 -16.916300
v 7.080664 8.699253 -17.069311
v 7.043179 8.348177 -17.281857
v 6.897201 8.348177 -17.413293
v 6.701846 8.348177 -17.392766
v 6.586390 8.348177 -17.233847
v 6.627235 8.348177 -17.041711
v 6.701846 8.348177 -16.974526
v 6.897201 8.348177 -16.953991
v 7.043179 8.348177 -17.085431
v 6.812260 8.236904 -17.172178
vt 0.642741 0.092697
vt 0.548284 0.007647
vt 0.421875 0.020934
vt 0.347164 0.123764
vt 0.373591 0.248091
vt 0.421875 0.291566
vt 0.548284 0.304853
vt 0.642741 0.219803
vt 0.375000 0.312500
vt 0.408333 0.312500
vt 0.441667 0.312500
vt 0.475000 0.312500
vt 0.508333 0.312500
vt 0.525000 0.312500
vt 0.558333 0.312500
vt 0.591667 0.312500
vt 0.625000 0.312500
vt 0.500000 0.150000
vt 0.642741 0.907303
vt 0.548284 0.992353
vt 0.421875 0.979066
vt 0.347164 0.876236
vt 0.373591 0.751909
vt 0.421875 0.708434
vt 0.548284 0.695147
vt 0.642741 0.780197
vt 0.642741 0.907303
vt 0.548284 0.992353
vt 0.421875 0.979066
vt 0.347164 0.876236
vt 0.373591 0.751909
vt 0.421875 0.708434
vt 0.548284 0.695147
vt 0.642741 0.780197
vt 0.642741 0.907303
vt 0.548284 0.992353
vt 0.421875 0.979066
vt 0.347164 0.876236
vt 0.373591 0.751909
vt 0.421875 0.708434
vt 0.548284 0.695147
vt 0.642741 0.780197
vt 0.642741 0.907303
vt 0.548284 0.992353
vt 0.421875 0.979066
vt 0.347164 0.876236
vt 0.373591 0.751909
vt 0.421875 0.708434
vt 0.548284 0.695147
vt 0.642741 0.780197
vt 0.642741 0.907303
vt 0.548284 0.992353
vt 0.421875 0.979066
vt 0.347164 0.876236
vt 0.373591 0.751909
vt 0.421875 0.708434
vt 0.548284 0.695147
vt 0.642741 0.780197
vt 0.642741 0.907303
vt 0.548284 0.992353
vt 0.421875 0.979066
vt 0.347164 0.876236
vt 0.373591 0.751909
vt 0.421875 0.708434
vt 0.548284 0.695147
vt 0.642741 0.780197
vt 0.642741 0.907303
vt 0.548284 0.992353
vt 0.421875 0.979066
vt 0.347164 0.876236
vt 0.373591 0.751909
vt 0.421875 0.708434
vt 0.548284 0.695147
vt 0.642741 0.780197
vt 0.642741 0.907303
vt 0.548284 0.992353
vt 0.421875 0.979066
vt 0.347164 0.876236
vt 0.373591 0.751909
vt 0.421875 0.708434
vt 0.548284 0.695147
vt 0.642741 0.780197
vt 0.642741 0.907303
vt 0.548284 0.992353
vt 0.421875 0.979066
vt 0.347164 0.876236
vt 0.373591 0.751909
vt 0.421875 0.708434
vt 0.548284 0.695147
vt 0.642741 0.780197
vt 0.642741 0.907303
vt 0.548284 0.992353
vt 0.421875 0.979066
vt 0.347164 0.876236
vt 0.373591 0.751909
vt 0.421875 0.708434
vt 0.548284 0.695147
vt 0.642741 0.780197
vt 0.642741 0.907303
vt 0.548284 0.992353
vt 0.421875 0.979066
vt 0.347164 0.876236
vt 0.373591 0.751909
vt 0.421875 0.708434
vt 0.548284 0.695147
vt 0.642741 0.780197
vt 0.642741 0.907303
vt 0.548284 0.992353
vt 0.421875 0.979066
vt 0.347164 0.876236
vt 0.373591 0.751909
vt 0.421875 0.708434
vt 0.548284 0.695147
vt 0.642741 0.780197
vt 0.000000 0.000000
vt 1.000000 0.000000
vt 1.000000 1.000000
vt 0.000000 1.000000
vt 0.000000 0.000000
vt 1.000000 0.000000
vt 1.000000 1.000000
vt 0.000000 1.000000
vt 0.000000 0.000000
vt 1.000000 0.000000
vt 1.000000 1.000000
vt 0.000000 1.000000
vt 0.000000 0.000000
vt 1.000000 0.000000
vt 1.000000 1.000000
vt 0.000000 1.000000
vt 0.000000 0.000000
vt 1.000000 0.000000
vt 1.000000 1.000000
vt 0.000000 1.000000
vt 0.000000 0.000000
vt 1.000000 0.000000
vt 1.000000 1.000000
vt 0.000000 1.000000
vt 0.000000 0.000000
vt 1.000000 0.000000
vt 1.000000 1.000000
vt 0.000000 1.000000
vt 0.000000 0.000000
vt 1.000000 0.000000
vt 1.000000 1.000000
vt 0.000000 1.000000
vt 0.000000 0.000000
vt 1.000000 0.000000
vt 0.500000 1.000000
vt 0.000000 0.000000
vt 1.000000 0.000000
vt 0.500000 1.000000
vt 0.000000 0.000000
vt 1.000000 0.000000
vt 0.500000 1.000000
vt 0.000000 0.000000
vt 1.000000 0.000000
vt 0.500000 1.000000
vt 0.000000 0.000000
vt 1.000000 0.000000
vt 0.500000 1.000000
vt 0.000000 0.000000
vt 1.000000 0.000000
vt 0.500000 1.000000
vt 0.000000 0.000000
vt 1.000000 0.000000
vt 0.500000 1.000000
vt 0.000000 0.000000
vt 1.000000 0.000000
vt 0.500000 1.000000
vn 0.000000 -1.000000 0.000000
vn 0.000000 -1.000000 0.000000
vn 0.000000 -1.000000 0.000000
vn 0.000000 -1.000000 0.000000
vn 0.000000 -1.000000 0.000000
vn 0.000000 -1.000000 -0.000000
vn 0.000000 -1.000000 -0.000000
vn 0.000000 -1.000000 -0.000000
vn 0.000000 -1.000000 -0.000000
vn 0.271324 0.471216 -0.839249
vn 0.273525 0.471206 -0.838540
vn 0.807128 0.468779 -0.358874
vn 0.806718 0.468781 -0.359793
vn -0.441165 0.474453 -0.761753
vn -0.439341 0.474445 -0.762812
vn -0.860091 0.476369 -0.182524
vn -0.859985 0.476369 -0.183025
vn -0.803629 0.468760 0.366666
vn -0.810216 0.467515 0.353525
vn -0.282267 0.466472 0.838289
vn -0.266323 0.464919 0.844348
vn 0.271315 0.471240 0.839238
vn 0.273523 0.471230 0.838527
vn 0.806706 0.468795 0.359800
vn 0.807124 0.468793 0.358864
vn 0.054205 0.984110 -0.169082
vn 0.057266 0.982884 -0.175100
vn 0.169445 0.982661 -0.075275
vn 0.163136 0.983902 -0.072964
vn -0.088564 0.984382 -0.152148
vn -0.091054 0.983177 -0.158345
vn -0.171372 0.984538 -0.036274
vn -0.177752 0.983347 -0.037860
vn -0.161183 0.983980 0.076184
vn -0.171605 0.982388 0.073934
vn -0.059873 0.983804 0.168955
vn -0.055637 0.982140 0.179737
vn 0.054205 0.984110 0.169083
vn 0.057267 0.982884 0.175101
vn 0.163137 0.983902 0.072964
vn 0.169446 0.982661 0.075274
vn 0.278399 0.436066 -0.855769
vn 0.823228 0.433664 -0.366377
vn -0.448883 0.439286 -0.778159
vn -0.877793 0.441177 -0.186659
vn -0.828572 0.423119 0.366659
vn -0.277997 0.421256 0.863285
vn 0.278415 0.436067 0.855763
vn 0.823239 0.433651 0.366366
vn 0.913193 0.027678 -0.406587
vn 0.308896 0.027862 -0.950688
vn -0.499760 0.028109 -0.865708
vn -0.977755 0.028255 -0.207840
vn -0.913196 0.027625 0.406584
vn -0.308912 0.027440 0.950695
vn 0.308904 0.027859 0.950685
vn 0.913199 0.027676 0.406572
vn 0.309059 0.011175 -0.950977
vn 0.913498 0.011101 -0.406692
vn -0.499896 0.011275 -0.866012
vn -0.978080 0.011334 -0.207919
vn -0.913636 0.011073 0.406382
vn -0.308632 0.010998 0.951118
vn 0.309049 0.011174 0.950980
vn 0.913505 0.011100 0.406677
vn 0.289357 -0.355471 -0.888771
vn 0.854723 -0.353306 -0.380294
vn -0.466371 -0.358367 -0.808747
vn -0.912514 -0.360074 -0.194073
vn -0.858185 -0.346904 0.378385
vn -0.286331 -0.345052 0.893842
vn 0.289337 -0.355466 0.888779
vn 0.854728 -0.353296 0.380293
vn 0.102588 -0.943573 -0.314875
vn 0.303705 -0.943139 -0.135097
vn -0.164553 -0.944150 -0.285489
vn -0.321363 -0.944485 -0.068358
vn -0.310045 -0.941188 0.134306
vn -0.101279 -0.940738 0.323658
vn 0.102585 -0.943574 0.314871
vn 0.303706 -0.943140 0.135094
vn 0.465909 -0.860386 -0.206554
vn 0.157778 -0.863179 -0.479612
vn -0.247880 -0.866835 -0.432612
vn -0.484017 -0.868944 -0.103265
vn -0.455617 -0.867207 0.200908
vn -0.152162 -0.863997 0.479954
vn 0.157775 -0.863184 0.479604
vn 0.465908 -0.860387 0.206554
vn 0.269872 -0.474347 -0.837952
vn 0.804984 -0.471984 -0.359488
vn -0.441103 -0.477442 -0.759919
vn -0.858615 -0.479230 -0.181987
vn -0.802027 -0.478954 0.356870
vn -0.273717 -0.475929 0.835806
vn 0.269869 -0.474353 0.837950
vn 0.804986 -0.471985 0.359484
vn 0.908887 -0.101614 -0.404473
vn 0.307875 -0.100015 -0.946155
vn -0.497257 -0.097874 -0.862065
vn -0.973558 -0.096603 -0.207011
vn -0.907746 -0.095463 0.408514
vn -0.310938 -0.097221 0.945445
vn 0.307871 -0.100019 0.946156
vn 0.908892 -0.101616 0.404462
vn 0.891286 0.219105 -0.396991
vn 0.301099 0.220455 -0.927760
vn -0.487754 0.222266 -0.844212
vn -0.953461 0.223332 -0.202572
vn -0.890341 0.219800 0.398723
vn -0.303893 0.218391 0.927337
vn 0.301091 0.220459 0.927762
vn 0.891288 0.219103 0.396989
vn 0.293401 0.320932 -0.900510
vn 0.865937 0.319032 -0.385190
vn -0.472510 0.323488 -0.819811
vn -0.925020 0.324993 -0.196769
vn -0.868072 0.318171 0.381077
vn -0.287730 0.316183 0.904013
vn 0.293390 0.320941 0.900510
vn 0.865939 0.319034 0.385184
vn -0.907593 0.115440 0.403669
vn -0.307905 0.113280 0.944649
vn -0.293809 0.310133 0.904153
vn -0.867573 0.311753 0.387463
vn 0.496221 0.110387 0.861150
vn 0.475726 0.301431 0.826332
vn 0.972317 0.108671 0.206857
vn 0.935474 0.291041 0.200458
vn 0.907367 0.106535 -0.406615
vn 0.874519 0.289417 -0.389172
vn 0.308614 0.108671 -0.944959
vn 0.296173 0.291287 -0.909634
vn -0.307893 0.113279 -0.944653
vn -0.296266 0.294561 -0.908548
vn -0.907595 0.115438 -0.403664
vn -0.870563 0.305253 -0.385929
vn -0.003659 0.999985 0.004063
s 1
g Glass_1
usemtl initialShadingGroup
f 1/1/1 9/18/2 2/2/3
f 2/2/3 9/18/2 3/3/4
f 3/3/4 9/18/2 4/4/5
f 4/4/5 9/18/2 5/5/6
f 6/6/7 5/5/6 9/18/2
f 6/6/7 9/18/2 7/7/8
f 7/7/8 9/18/2 8/8/9
f 8/8/9 9/18/2 1/1/1
s 2
f 2/10/10 11/20/11 10/19/12 1/9/13
f 3/11/14 12/21/15 11/20/11 2/10/10
f 4/12/16 13/22/17 12/21/15 3/11/14
f 5/13/18 14/23/19 13/22/17 4/12/16
f 6/14/20 15/24/21 14/23/19 5/13/18
f 7/15/22 16/25/23 15/24/21 6/14/20
f 8/16/24 17/26/25 16/25/23 7/15/22
f 1/17/13 10/19/12 17/26/25 8/16/24
s 3
f 11/20/26 19/28/27 18/27/28 10/19/29
f 12/21/30 20/29/31 19/28/27 11/20/26
f 13/22/32 21/30/33 20/29/31 12/21/30
f 14/23/34 22/31/35 21/30/33 13/22/32
f 15/24/36 23/32/37 22/31/35 14/23/34
f 16/25/38 24/33/39 23/32/37 15/24/36
f 17/26/40 25/34/41 24/33/39 16/25/38
f 10/19/29 18/27/28 25/34/41 17/26/40
f 19/28/27 27/36/42 26/35/43 18/27/28
f 20/29/31 28/37/44 27/36/42 19/28/27
f 21/30/33 29/38/45 28/37/44 20/29/31
f 22/31/35 30/39/46 29/38/45 21/30/33
f 23/32/37 31/40/47 30/39/46 22/31/35
f 24/33/39 32/41/48 31/40/47 23/32/37
f 25/34/41 33/42/49 32/41/48 24/33/39
f 18/27/28 26/35/43 33/42/49 25/34/41
f 34/43/50 26/35/43 27/36/42 35/44/51
f 35/44/51 27/36/42 28/37/44 36/45/52
f 36/45/52 28/37/44 29/38/45 37/46/53
f 37/46/53 29/38/45 30/39/46 38/47/54
f 30/39/46 31/40/47 39/48/55 38/47/54
f 39/48/55 31/40/47 32/41/48 40/49/56
f 40/49/56 32/41/48 33/42/49 41/50/57
f 41/50/57 33/42/49 26/35/43 34/43/50
f 35/44/51 43/52/58 42/51/59 34/43/50
f 36/45/52 44/53/60 43/52/58 35/44/51
f 37/46/53 45/54/61 44/53/60 36/45/52
f 38/47/54 46/55/62 45/54/61 37/46/53
f 39/48/55 47/56/63 46/55/62 38/47/54
f 40/49/56 48/57/64 47/56/63 39/48/55
f 41/50/57 49/58/65 48/57/64 40/49/56
f 34/43/50 42/51/59 49/58/65 41/50/57
f 43/52/58 51/60/66 50/59/67 42/51/59
f 44/53/60 52/61/68 51/60/66 43/52/58
f 45/54/61 53/62/69 52/61/68 44/53/60
f 46/55/62 54/63/70 53/62/69 45/54/61
f 47/56/63 55/64/71 54/63/70 46/55/62
f 48/57/64 56/65/72 55/64/71 47/56/63
f 49/58/65 57/66/73 56/65/72 48/57/64
f 42/51/59 50/59/67 57/66/73 49/58/65
f 51/60/66 59/68/74 58/67/75 50/59/67
f 52/61/68 60/69/76 59/68/74 51/60/66
f 53/62/69 61/70/77 60/69/76 52/61/68
f 54/63/70 62/71/78 61/70/77 53/62/69
f 55/64/71 63/72/79 62/71/78 54/63/70
f 56/65/72 64/73/80 63/72/79 55/64/71
f 57/66/73 65/74/81 64/73/80 56/65/72
f 50/59/67 58/67/75 65/74/81 57/66/73
f 66/75/82 58/67/75 59/68/74 67/76/83
f 67/76/83 59/68/74 60/69/76 68/77/84
f 68/77/84 60/69/76 61/70/77 69/78/85
f 69/78/85 61/70/77 62/71/78 70/79/86
f 62/71/78 63/72/79 71/80/87 70/79/86
f 71/80/87 63/72/79 64/73/80 72/81/88
f 72/81/88 64/73/80 65/74/81 73/82/89
f 73/82/89 65/74/81 58/67/75 66/75/82
f 67/76/83 75/84/90 74/83/91 66/75/82
f 68/77/84 76/85/92 75/84/90 67/76/83
f 69/78/85 77/86/93 76/85/92 68/77/84
f 70/79/86 78/87/94 77/86/93 69/78/85
f 71/80/87 79/88/95 78/87/94 70/79/86
f 72/81/88 80/89/96 79/88/95 71/80/87
f 73/82/89 81/90/97 80/89/96 72/81/88
f 66/75/82 74/83/91 81/90/97 73/82/89
f 82/91/98 74/83/91 75/84/90 83/92/99
f 83/92/99 75/84/90 76/85/92 84/93/100
f 84/93/100 76/85/92 77/86/93 85/94/101
f 85/94/101 77/86/93 78/87/94 86/95/102
f 78/87/94 79/88/95 87/96/103 86/95/102
f 87/96/103 79/88/95 80/89/96 88/97/104
f 88/97/104 80/89/96 81/90/97 89/98/105
f 89/98/105 81/90/97 74/83/91 82/91/98
f 90/99/106 82/91/98 83/92/99 91/100/107
f 91/100/107 83/92/99 84/93/100 92/101/108
f 92/101/108 84/93/100 85/94/101 93/102/109
f 93/102/109 85/94/101 86/95/102 94/103/110
f 86/95/102 87/96/103 95/104/111 94/103/110
f 95/104/111 87/96/103 88/97/104 96/105/112
f 96/105/112 88/97/104 89/98/105 97/106/113
f 97/106/113 89/98/105 82/91/98 90/99/106
f 99/108/114 98/107/115 90/99/106 91/100/107
f 100/109/116 99/108/114 91/100/107 92/101/108
f 101/110/117 100/109/116 92/101/108 93/102/109
f 102/111/118 101/110/117 93/102/109 94/103/110
f 94/103/110 95/104/111 103/112/119 102/111/118
f 104/113/120 103/112/119 95/104/111 96/105/112
f 105/114/121 104/113/120 96/105/112 97/106/113
f 98/107/115 105/114/121 97/106/113 90/99/106
s 4
f 98/115/122 99/116/123 107/117/124 106/118/125
f 99/119/123 100/120/126 108/121/127 107/122/124
f 100/123/126 101/124/128 109/125/129 108/126/127
f 101/127/128 102/128/130 110/129/131 109/130/129
f 102/131/130 103/132/132 111/133/133 110/134/131
f 103/135/132 104/136/134 112/137/135 111/138/133
f 104/139/134 105/140/136 113/141/137 112/142/135
f 105/143/136 98/144/122 106/145/125 113/146/137
f 106/147/125 107/148/124 114/149/138
f 107/150/124 108/151/127 114/152/138
f 108/153/127 109/154/129 114/155/138
f 109/156/129 110/157/131 114/158/138
f 110/159/131 111/160/133 114/161/138
f 111/162/133 112/163/135 114/164/138
f 112/165/135 113/166/137 114/167/138
f 113/168/137 106/169/125 114/170/138
