# This file uses centimeters as units for non-parametric coordinates.

mtllib Cup 8.mtl
g default
v 6.936806 7.510057 -13.722816
v 6.807503 7.510057 -13.680803
v 6.807503 7.510057 -13.544847
v 6.936806 7.510057 -13.502833
v 7.016720 7.510057 -13.612825
v 6.901068 7.510057 -13.612825
v 6.783434 7.949116 -13.698291
v 6.946000 7.949116 -13.751111
v 7.046470 7.949116 -13.612825
v 6.946000 7.949116 -13.474539
v 6.783434 7.949116 -13.527360
v 6.803682 7.579760 -13.683579
v 6.938266 7.579760 -13.727308
v 7.021443 7.579760 -13.612825
v 6.938266 7.579760 -13.498339
v 6.803682 7.579760 -13.542070
v 6.804374 7.567153 -13.683077
v 6.938001 7.567153 -13.726495
v 7.020589 7.567153 -13.612825
v 6.938001 7.567153 -13.499153
v 6.804374 7.567153 -13.542572
v 6.808413 7.567400 -13.680141
v 6.807722 7.580006 -13.680645
v 6.936458 7.567400 -13.721747
v 6.936722 7.580006 -13.722559
v 7.015595 7.567400 -13.612825
v 7.016449 7.580006 -13.612825
v 6.936458 7.567400 -13.503902
v 6.936722 7.580006 -13.503091
v 6.808413 7.567400 -13.545507
v 6.807722 7.580006 -13.545004
v 6.901068 7.668226 -13.612825
vt 0.548284 0.007647
vt 0.373591 0.064409
vt 0.373591 0.248091
vt 0.548284 0.304853
vt 0.656250 0.156250
vt 0.400000 0.312500
vt 0.450000 0.312500
vt 0.500000 0.312500
vt 0.550000 0.312500
vt 0.600000 0.312500
vt 0.500000 0.150000
vt 0.450000 0.641380
vt 0.400000 0.641380
vt 0.600000 0.641380
vt 0.550000 0.641380
vt 0.500000 0.641380
vt 0.450000 0.364711
vt 0.400000 0.364711
vt 0.600000 0.364711
vt 0.550000 0.364711
vt 0.500000 0.364711
vt 0.450000 0.355268
vt 0.400000 0.355268
vt 0.600000 0.355268
vt 0.550000 0.355268
vt 0.500000 0.355268
vt 0.450000 0.355268
vt 0.450000 0.364711
vt 0.400000 0.355268
vt 0.400000 0.364711
vt 0.600000 0.355268
vt 0.600000 0.364711
vt 0.550000 0.355268
vt 0.550000 0.364711
vt 0.500000 0.355268
vt 0.500000 0.364711
vt 0.000000 0.000000
vt 1.000000 0.000000
vt 0.500000 1.000000
vt 0.000000 0.000000
vt 1.000000 0.000000
vt 0.500000 1.000000
vt 0.000000 0.000000
vt 1.000000 0.000000
vt 0.500000 1.000000
vt 0.000000 0.000000
vt 1.000000 0.000000
vt 0.500000 1.000000
vt 0.000000 0.000000
vt 1.000000 0.000000
vt 0.500000 1.000000
vn -0.807168 -0.067594 -0.586439
vn 0.308306 -0.067599 -0.948883
vn 0.308310 -0.067599 -0.948881
vn -0.807165 -0.067594 -0.586443
vn -0.807174 -0.067602 0.586430
vn -0.807160 -0.067602 0.586449
vn 0.308308 -0.067607 0.948881
vn 0.308313 -0.067607 0.948879
vn 0.997712 -0.067603 0.000000
vn 0.997712 -0.067603 -0.000000
vn 0.000000 -1.000000 0.000000
vn 0.000000 -1.000000 0.000000
vn 0.000000 -1.000000 0.000000
vn 0.000000 -1.000000 0.000000
vn 0.000000 -1.000000 0.000000
vn 0.000000 -1.000000 0.000000
vn -0.807167 -0.067603 0.586440
vn -0.807164 -0.067606 -0.586443
vn -0.807166 -0.067606 -0.586440
vn -0.807166 -0.067603 0.586441
vn 0.308307 -0.067607 -0.948882
vn 0.308308 -0.067607 -0.948881
vn 0.997712 -0.067604 -0.000000
vn 0.997712 -0.067604 -0.000000
vn 0.308311 -0.067602 0.948881
vn 0.308309 -0.067602 0.948881
vn -0.807135 -0.067636 -0.586480
vn -0.807195 -0.067636 -0.586397
vn -0.807196 -0.067602 0.586400
vn -0.807136 -0.067602 0.586483
vn 0.308327 -0.067625 -0.948874
vn 0.308288 -0.067625 -0.948886
vn 0.997714 -0.067576 0.000000
vn 0.997714 -0.067576 -0.000000
vn 0.308359 -0.067569 0.948867
vn 0.308273 -0.067569 0.948895
vn -0.039889 0.998784 -0.028978
vn -0.039886 0.998784 -0.028983
vn -0.039886 0.998784 0.028983
vn -0.039889 0.998784 0.028978
vn 0.039885 -0.998784 0.028983
vn 0.039892 -0.998784 0.028973
vn -0.015240 -0.998784 0.046891
vn -0.015234 -0.998784 0.046892
vn 0.015233 0.998784 -0.046889
vn 0.015239 0.998784 -0.046887
vn -0.049293 -0.998784 -0.000000
vn -0.049293 -0.998784 0.000000
vn 0.049301 0.998784 0.000001
vn 0.049301 0.998784 0.000001
vn -0.015229 -0.998784 -0.046879
vn -0.015233 -0.998784 -0.046878
vn 0.015234 0.998784 0.046889
vn 0.015240 0.998784 0.046887
vn 0.039885 -0.998784 -0.028968
vn 0.039878 -0.998784 -0.028978
vn 0.718463 0.459709 0.521994
vn 0.718463 0.459709 -0.521994
vn -0.000000 1.000000 0.000000
vn -0.274428 0.459709 0.844604
vn -0.888070 0.459709 0.000000
vn -0.274428 0.459709 -0.844604
s 1
g Glass_8
usemtl initialShadingGroup
f 17/22/1 18/23/2 1/6/3 2/7/4
f 17/22/1 2/7/4 3/8/5 21/26/6
f 20/25/7 21/26/6 3/8/5 4/9/8
f 19/24/9 20/25/7 4/9/8 5/10/10
f 18/23/2 19/24/9 5/10/10 1/6/3
s 2
f 1/1/11 6/11/12 2/2/13
f 2/2/13 6/11/12 3/3/14
f 3/3/14 6/11/12 4/4/15
f 4/4/15 6/11/12 5/5/16
f 1/1/11 5/5/16 6/11/12
s 3
f 11/16/17 7/12/18 12/17/19 16/21/20
f 7/12/18 8/13/21 13/18/22 12/17/19
f 8/13/21 9/14/23 14/19/24 13/18/22
f 9/14/23 10/15/25 15/20/26 14/19/24
f 10/15/25 11/16/17 16/21/20 15/20/26
s 4
f 23/28/27 22/27/28 30/35/29 31/36/30
f 23/28/27 25/30/31 24/29/32 22/27/28
f 25/30/31 27/32/33 26/31/34 24/29/32
f 27/32/33 29/34/35 28/33/36 26/31/34
f 29/34/35 31/36/30 30/35/29 28/33/36
s 5
f 22/27/37 17/22/38 21/26/39 30/35/40
s 6
f 23/28/41 12/17/42 13/18/43 25/30/44
s 5
f 22/27/37 24/29/45 18/23/46 17/22/38
s 6
f 25/30/44 13/18/43 14/19/47 27/32/48
s 5
f 24/29/45 26/31/49 19/24/50 18/23/46
s 6
f 27/32/48 14/19/47 15/20/51 29/34/52
s 5
f 26/31/49 28/33/53 20/25/54 19/24/50
s 6
f 29/34/52 15/20/51 16/21/55 31/36/56
s 5
f 28/33/53 30/35/40 21/26/39 20/25/54
s 6
f 23/28/41 31/36/56 16/21/55 12/17/42
s 7
f 7/37/57 11/38/58 32/39/59
f 8/40/60 7/41/57 32/42/59
f 9/43/61 8/44/60 32/45/59
f 10/46/62 9/47/61 32/48/59
f 11/49/58 10/50/62 32/51/59
