# This file uses centimeters as units for non-parametric coordinates.

mtllib Cup 6.mtl
g default
v 7.089900 7.510056 -15.014708
v 6.907747 7.510056 -15.119873
v 6.725594 7.510056 -15.014708
v 6.725594 7.510056 -14.804376
v 6.907747 7.510056 -14.699210
v 7.089900 7.510056 -14.804376
v 7.089900 8.648590 -15.014708
v 6.907747 8.648590 -15.119873
v 6.725594 8.648590 -15.014708
v 6.725594 8.648590 -14.804376
v 6.907747 8.648590 -14.699210
v 7.089900 8.648590 -14.804376
v 6.907747 7.510056 -14.909541
v 6.907747 7.547139 -14.909542
vt 0.635316 0.078125
vt 0.500000 0.000000
vt 0.364684 0.078125
vt 0.364684 0.234375
vt 0.500000 0.312500
vt 0.635316 0.234375
vt 0.375000 0.312500
vt 0.416667 0.312500
vt 0.458333 0.312500
vt 0.500000 0.312500
vt 0.541667 0.312500
vt 0.583333 0.312500
vt 0.625000 0.312500
vt 0.375000 0.688440
vt 0.416667 0.688440
vt 0.458333 0.688440
vt 0.500000 0.688440
vt 0.541667 0.688440
vt 0.583333 0.688440
vt 0.625000 0.688440
vt 0.500000 0.150000
vt 0.000000 0.000000
vt 1.000000 0.000000
vt 0.500000 1.000000
vt 0.000000 0.000000
vt 1.000000 0.000000
vt 0.500000 1.000000
vt 0.000000 0.000000
vt 1.000000 0.000000
vt 0.500000 1.000000
vt 0.000000 0.000000
vt 1.000000 0.000000
vt 0.500000 1.000000
vt 0.000000 0.000000
vt 1.000000 0.000000
vt 0.500000 1.000000
vt 0.000000 0.000000
vt 1.000000 0.000000
vt 0.500000 1.000000
vn 0.000000 0.000000 -1.000000
vn 0.866026 0.000000 -0.500000
vn 0.866026 0.000000 -0.500000
vn 0.000000 0.000000 -1.000000
vn -0.866025 0.000000 -0.500001
vn -0.866025 0.000000 -0.500001
vn -0.866025 0.000000 0.500001
vn -0.866025 0.000000 0.500001
vn -0.000000 0.000000 1.000000
vn -0.000000 0.000000 1.000000
vn 0.866026 0.000000 0.499999
vn 0.866026 0.000000 0.499999
vn 0.000000 -1.000000 0.000000
vn 0.000000 -1.000000 0.000000
vn 0.000000 -1.000000 0.000000
vn 0.000000 -1.000000 0.000000
vn 0.000000 -1.000000 0.000000
vn 0.000000 -1.000000 0.000000
vn 0.000000 -1.000000 0.000000
vn -0.850655 0.187570 0.491125
vn -0.000000 0.187569 0.982251
vn 0.000001 1.000000 0.000000
vn 0.850654 0.187570 0.491126
vn 0.850654 0.187570 -0.491126
vn -0.000000 0.187569 -0.982251
vn -0.850655 0.187570 -0.491125
s 1
g Glass_11
usemtl initialShadingGroup
f 8/15/1 7/14/2 1/7/3 2/8/4
f 9/16/5 8/15/1 2/8/4 3/9/6
f 10/17/7 9/16/5 3/9/6 4/10/8
f 11/18/9 10/17/7 4/10/8 5/11/10
f 12/19/11 11/18/9 5/11/10 6/12/12
f 7/20/2 12/19/11 6/12/12 1/13/3
s 2
f 1/1/13 13/21/14 2/2/15
f 2/2/15 13/21/14 3/3/16
f 3/3/16 13/21/14 4/4/17
f 4/4/17 13/21/14 5/5/18
f 5/5/18 13/21/14 6/6/19
f 6/6/19 13/21/14 1/1/13
s 3
f 7/22/20 8/23/21 14/24/22
f 8/25/21 9/26/23 14/27/22
f 9/28/23 10/29/24 14/30/22
f 10/31/24 11/32/25 14/33/22
f 11/34/25 12/35/26 14/36/22
f 12/37/26 7/38/20 14/39/22
