# This file uses centimeters as units for non-parametric coordinates.

mtllib Mixer Bottle.mtl
g default
v 6.857531 8.222427 -18.989956
v 7.065022 8.222427 -19.057375
v 7.193259 8.222427 -18.880871
v 7.065022 8.222427 -18.704368
v 6.857531 8.222427 -18.771786
v 6.857531 8.235332 -18.989956
v 7.065022 8.235332 -19.057375
v 7.193259 8.235332 -18.880871
v 7.065022 8.235332 -18.704369
v 6.857531 8.235332 -18.771786
v 6.848878 8.235332 -18.996243
v 7.068326 8.235332 -19.067547
v 7.203955 8.235332 -18.880871
v 7.068326 8.235332 -18.694197
v 6.848878 8.235332 -18.765500
v 6.848878 8.305714 -18.996243
v 7.068326 8.305714 -19.067547
v 7.203955 8.305714 -18.880871
v 7.068326 8.305714 -18.694197
v 6.848878 8.305714 -18.765500
v 6.861647 8.323434 -18.986965
v 7.063448 8.323434 -19.052536
v 7.188170 8.323434 -18.880871
v 7.063448 8.323434 -18.709209
v 6.861647 8.323434 -18.774778
v 6.945424 8.333989 -18.926099
v 7.031449 8.333989 -18.954051
v 7.084616 8.333989 -18.880872
v 7.031449 8.333989 -18.807695
v 6.945424 8.333989 -18.835646
v 6.945424 8.352734 -18.926099
v 7.031449 8.352734 -18.954051
v 7.084616 8.352734 -18.880872
v 7.031449 8.352734 -18.807695
v 6.945424 8.352734 -18.835646
v 6.955197 8.352734 -18.918999
v 7.027716 8.352734 -18.942563
v 7.072536 8.352734 -18.880873
v 7.027716 8.352734 -18.819183
v 6.955197 8.352734 -18.842747
v 6.955197 8.363986 -18.918999
v 7.027716 8.363986 -18.942563
v 7.072536 8.363986 -18.880873
v 7.027716 8.363986 -18.819183
v 6.955197 8.363986 -18.842747
v 6.948086 8.368554 -18.924166
v 7.030432 8.368554 -18.950923
v 7.081326 8.368554 -18.880873
v 7.030432 8.368554 -18.810824
v 6.948086 8.368554 -18.837580
v 6.948086 8.502183 -18.924166
v 7.030432 8.502183 -18.950923
v 7.081326 8.502183 -18.880873
v 7.030432 8.502183 -18.810824
v 6.948086 8.502183 -18.837580
v 6.954555 8.513958 -18.919465
v 7.027961 8.513958 -18.943316
v 7.073328 8.513958 -18.880873
v 7.027961 8.513958 -18.818430
v 6.954555 8.513958 -18.842281
v 7.007672 8.513957 -18.880873
v 7.068472 7.520008 -19.067990
v 6.848500 7.520008 -18.996518
v 6.848500 7.520008 -18.765224
v 7.068472 7.520008 -18.693751
v 7.204422 7.520008 -18.880871
v 7.007673 7.520008 -18.880871
v 6.847563 8.220133 -18.997198
v 7.068830 8.220133 -19.069092
v 7.205579 8.220133 -18.880871
v 7.068830 8.220133 -18.692651
v 6.847563 8.220133 -18.764545
vt 0.000000 0.000000
vt 0.000000 1.000000
vt 1.000000 0.000000
vt 1.000000 1.000000
vt 0.000000 0.000000
vt 0.000000 1.000000
vt 1.000000 0.000000
vt 1.000000 1.000000
vt 0.000000 0.000000
vt 0.000000 1.000000
vt 1.000000 0.000000
vt 1.000000 1.000000
vt 0.000000 0.000000
vt 0.000000 1.000000
vt 1.000000 0.000000
vt 1.000000 1.000000
vt 0.000000 0.000000
vt 0.000000 1.000000
vt 1.000000 0.000000
vt 1.000000 1.000000
vt 0.000000 0.000000
vt 0.000000 1.000000
vt 1.000000 0.000000
vt 1.000000 1.000000
vt 0.000000 0.000000
vt 0.000000 1.000000
vt 1.000000 0.000000
vt 1.000000 1.000000
vt 0.000000 0.000000
vt 0.000000 1.000000
vt 1.000000 0.000000
vt 1.000000 1.000000
vt 0.000000 0.000000
vt 0.000000 1.000000
vt 1.000000 0.000000
vt 1.000000 1.000000
vt 0.000000 0.000000
vt 0.000000 1.000000
vt 1.000000 0.000000
vt 1.000000 1.000000
vt 0.000000 0.000000
vt 0.000000 1.000000
vt 1.000000 0.000000
vt 1.000000 1.000000
vt 0.000000 0.000000
vt 0.000000 1.000000
vt 1.000000 0.000000
vt 1.000000 1.000000
vt 0.000000 0.000000
vt 0.000000 1.000000
vt 1.000000 0.000000
vt 1.000000 1.000000
vt 0.000000 0.000000
vt 0.000000 1.000000
vt 1.000000 0.000000
vt 1.000000 1.000000
vt 0.000000 0.000000
vt 0.000000 1.000000
vt 1.000000 0.000000
vt 1.000000 1.000000
vt 0.000000 0.000000
vt 0.000000 1.000000
vt 1.000000 0.000000
vt 1.000000 1.000000
vt 0.000000 0.000000
vt 0.000000 1.000000
vt 1.000000 0.000000
vt 1.000000 1.000000
vt 0.000000 0.000000
vt 0.000000 1.000000
vt 1.000000 0.000000
vt 1.000000 1.000000
vt 0.000000 0.000000
vt 0.000000 1.000000
vt 1.000000 0.000000
vt 1.000000 1.000000
vt 0.000000 0.000000
vt 0.000000 1.000000
vt 1.000000 0.000000
vt 1.000000 1.000000
vt 0.000000 0.000000
vt 0.000000 1.000000
vt 1.000000 0.000000
vt 1.000000 1.000000
vt 0.000000 0.000000
vt 0.000000 1.000000
vt 1.000000 0.000000
vt 1.000000 1.000000
vt 0.000000 0.000000
vt 0.000000 1.000000
vt 1.000000 0.000000
vt 1.000000 1.000000
vt 0.000000 0.000000
vt 0.000000 1.000000
vt 1.000000 0.000000
vt 1.000000 1.000000
vt 0.000000 0.000000
vt 0.000000 1.000000
vt 1.000000 0.000000
vt 1.000000 1.000000
vt 0.000000 0.000000
vt 1.000000 0.000000
vt 0.000000 0.000000
vt 1.000000 0.000000
vt 0.000000 0.000000
vt 1.000000 0.000000
vt 0.000000 0.000000
vt 1.000000 0.000000
vt 0.000000 0.000000
vt 1.000000 0.000000
vt 0.000000 1.000000
vt 1.000000 1.000000
vt 0.000000 1.000000
vt 1.000000 1.000000
vt 0.000000 1.000000
vt 1.000000 1.000000
vt 0.000000 1.000000
vt 1.000000 1.000000
vt 0.000000 1.000000
vt 1.000000 1.000000
vt 0.000000 0.000000
vt 0.000000 1.000000
vt 1.000000 0.000000
vt 1.000000 1.000000
vt 0.000000 0.000000
vt 0.000000 1.000000
vt 1.000000 0.000000
vt 1.000000 1.000000
vt 0.000000 0.000000
vt 0.000000 1.000000
vt 1.000000 0.000000
vt 1.000000 1.000000
vt 0.000000 0.000000
vt 0.000000 1.000000
vt 1.000000 0.000000
vt 1.000000 1.000000
vt 0.000000 0.000000
vt 0.000000 1.000000
vt 1.000000 0.000000
vt 1.000000 1.000000
vt 0.000000 0.000000
vt 0.000000 1.000000
vt 1.000000 0.000000
vt 1.000000 1.000000
vt 0.000000 0.000000
vt 0.000000 1.000000
vt 1.000000 0.000000
vt 1.000000 1.000000
vt 0.000000 0.000000
vt 0.000000 1.000000
vt 1.000000 0.000000
vt 1.000000 1.000000
vt 0.000000 0.000000
vt 0.000000 1.000000
vt 1.000000 0.000000
vt 1.000000 1.000000
vt 0.000000 0.000000
vt 0.000000 1.000000
vt 1.000000 0.000000
vt 1.000000 1.000000
vt 0.000000 0.000000
vt 0.000000 1.000000
vt 1.000000 0.000000
vt 1.000000 1.000000
vt 0.000000 0.000000
vt 0.000000 1.000000
vt 1.000000 0.000000
vt 1.000000 1.000000
vt 0.000000 0.000000
vt 0.000000 1.000000
vt 1.000000 0.000000
vt 1.000000 1.000000
vt 0.000000 0.000000
vt 0.000000 1.000000
vt 1.000000 0.000000
vt 1.000000 1.000000
vt 0.000000 0.000000
vt 0.000000 1.000000
vt 1.000000 0.000000
vt 1.000000 1.000000
vt 0.000000 0.000000
vt 0.000000 1.000000
vt 1.000000 0.000000
vt 1.000000 1.000000
vt 0.000000 0.000000
vt 0.000000 1.000000
vt 1.000000 0.000000
vt 1.000000 1.000000
vt 0.000000 0.000000
vt 0.000000 1.000000
vt 1.000000 0.000000
vt 1.000000 1.000000
vt 0.000000 0.000000
vt 0.000000 1.000000
vt 1.000000 0.000000
vt 1.000000 1.000000
vt 0.000000 0.000000
vt 0.000000 1.000000
vt 1.000000 0.000000
vt 1.000000 1.000000
vt 0.000000 0.000000
vt 0.000000 1.000000
vt 1.000000 0.000000
vt 1.000000 1.000000
vt 0.000000 0.000000
vt 0.000000 1.000000
vt 1.000000 0.000000
vt 1.000000 1.000000
vt 0.000000 0.000000
vt 0.000000 1.000000
vt 1.000000 0.000000
vt 1.000000 1.000000
vt 0.000000 0.000000
vt 0.000000 1.000000
vt 1.000000 0.000000
vt 1.000000 1.000000
vt 0.000000 0.000000
vt 0.000000 1.000000
vt 1.000000 0.000000
vt 1.000000 1.000000
vt 0.000000 0.000000
vt 0.500000 1.000000
vt 1.000000 0.000000
vt 0.000000 0.000000
vt 0.500000 1.000000
vt 1.000000 0.000000
vt 0.000000 0.000000
vt 0.500000 1.000000
vt 1.000000 0.000000
vt 0.000000 0.000000
vt 0.500000 1.000000
vt 1.000000 0.000000
vt 0.000000 0.000000
vt 0.500000 1.000000
vt 1.000000 0.000000
vt 0.400000 0.312500
vt 0.450000 0.312500
vt 0.500000 0.312500
vt 0.550000 0.312500
vt 0.600000 0.312500
vt 0.548284 0.007647
vt 0.500000 0.150000
vt 0.373591 0.064409
vt 0.373591 0.248091
vt 0.548284 0.304853
vt 0.656250 0.156250
vt 0.450000 0.641380
vt 0.450000 0.641380
vt 0.400000 0.641380
vt 0.400000 0.641380
vt 0.600000 0.641380
vt 0.600000 0.641380
vt 0.550000 0.641380
vt 0.550000 0.641380
vt 0.500000 0.641380
vt 0.500000 0.641380
vn -0.809026 0.000021 0.587772
vn -0.809028 0.000000 -0.587770
vn -0.809028 0.000000 -0.587770
vn -0.809026 0.000021 0.587772
vn 0.309024 0.000000 -0.951054
vn 0.309024 0.000000 -0.951054
vn 1.000000 0.000019 0.000000
vn 1.000000 0.000019 0.000000
vn 0.309033 0.000040 0.951051
vn 0.309020 0.000040 0.951056
vn 0.000000 -1.000000 0.000003
vn 0.000000 -1.000000 -0.000019
vn 0.000000 -1.000000 -0.000019
vn 0.000000 -1.000000 0.000003
vn 0.000000 -1.000000 -0.000016
vn 0.000000 -1.000000 -0.000016
vn 0.000000 -1.000000 0.000006
vn 0.000000 -1.000000 0.000006
vn 0.000000 -1.000000 0.000006
vn 0.000000 -1.000000 0.000006
vn -0.801661 0.134548 0.582441
vn -0.801664 0.134546 -0.582437
vn -0.809019 0.000000 -0.587783
vn -0.809018 0.000000 0.587784
vn 0.306209 0.134549 -0.942408
vn 0.309016 0.000000 -0.951057
vn 0.990906 0.134552 0.000000
vn 1.000000 0.000000 0.000000
vn 0.306207 0.134552 0.942408
vn 0.309016 0.000000 0.951057
vn -0.317030 0.920020 0.230336
vn -0.317033 0.920019 -0.230336
vn 0.121091 0.920020 -0.372692
vn 0.391866 0.920022 0.000001
vn 0.121090 0.920021 0.372691
vn -0.082031 0.994846 0.059605
vn -0.082032 0.994846 -0.059603
vn 0.031334 0.994846 -0.096439
vn 0.101397 0.994846 -0.000001
vn 0.031333 0.994845 0.096440
vn -0.809020 0.000000 0.587781
vn -0.809022 0.000000 -0.587778
vn -0.809022 0.000000 -0.587778
vn -0.809020 0.000000 0.587781
vn 0.309022 0.000000 -0.951055
vn 0.309022 0.000000 -0.951055
vn 1.000000 0.000000 0.000000
vn 1.000000 0.000000 0.000000
vn 0.309022 0.000000 0.951055
vn 0.309022 0.000000 0.951055
vn 0.000000 1.000000 -0.000003
vn 0.000000 1.000000 -0.000007
vn 0.000000 1.000000 -0.000007
vn 0.000000 1.000000 -0.000003
vn 0.000000 1.000000 -0.000036
vn 0.000000 1.000000 -0.000036
vn 0.000000 1.000000 -0.000016
vn 0.000000 1.000000 -0.000016
vn 0.000000 1.000000 0.000010
vn 0.000000 1.000000 0.000010
vn -0.809008 0.000000 0.587797
vn -0.809006 0.000000 -0.587801
vn -0.809006 0.000000 -0.587801
vn -0.809008 0.000000 0.587797
vn 0.309016 0.000000 -0.951057
vn 0.309016 0.000000 -0.951057
vn 1.000000 0.000000 0.000000
vn 1.000000 0.000000 0.000000
vn 0.309009 0.000000 0.951059
vn 0.309009 0.000000 0.951059
vn -0.373024 -0.887357 0.271018
vn -0.373018 -0.887364 -0.271002
vn -0.373024 -0.887364 -0.270994
vn -0.373029 -0.887357 0.271011
vn 0.142473 -0.887373 -0.438487
vn 0.142485 -0.887373 -0.438483
vn 0.461088 -0.887354 0.000003
vn 0.461088 -0.887354 0.000005
vn 0.142488 -0.887353 0.438522
vn 0.142488 -0.887353 0.438521
vn -0.808315 0.041702 0.587272
vn -0.808318 0.041702 -0.587268
vn -0.809022 0.000000 -0.587779
vn -0.809018 0.000000 0.587783
vn 0.308750 0.041705 -0.950228
vn 0.309019 0.000000 -0.951056
vn 0.999130 0.041704 -0.000000
vn 1.000000 0.000000 0.000000
vn 0.308750 0.041703 0.950229
vn 0.309019 0.000000 0.951056
vn -0.669256 0.561854 0.486227
vn -0.669258 0.561851 -0.486228
vn 0.255626 0.561878 -0.786733
vn 0.827221 0.561877 0.000002
vn 0.255626 0.561866 0.786741
vn 0.000000 1.000000 0.000002
vn 0.000010 1.000000 0.000021
vn 0.000010 1.000000 -0.000018
vn -0.000004 1.000000 0.000034
vn -0.000012 1.000000 0.000003
vn -0.000004 1.000000 -0.000029
vn -0.809017 -0.001653 -0.587783
vn 0.309016 -0.001654 -0.951055
vn 0.309016 -0.001654 -0.951055
vn -0.809017 -0.001653 -0.587783
vn -0.809016 -0.001653 0.587784
vn -0.809016 -0.001653 0.587785
vn 0.309019 -0.001653 0.951054
vn 0.309018 -0.001653 0.951055
vn 0.999999 -0.001653 0.000000
vn 0.999999 -0.001653 0.000000
vn 0.000000 -1.000000 0.000000
vn 0.000000 -1.000000 -0.000001
vn 0.000000 -1.000000 -0.000000
vn 0.000000 -1.000000 0.000001
vn 0.000000 -1.000000 0.000001
vn 0.000000 -1.000000 -0.000001
vn -0.148130 0.983092 0.107647
vn -0.148129 0.983095 -0.107623
vn -0.148126 0.983095 -0.107627
vn -0.148134 0.983092 0.107643
vn 0.056578 0.983094 -0.174142
vn 0.056582 0.983094 -0.174141
vn 0.183097 0.983095 0.000006
vn 0.183097 0.983095 0.000006
vn 0.056580 0.983088 0.174172
vn 0.056585 0.983088 0.174170
s 1
g Cocktail_Mixer_1
usemtl initialShadingGroup
f 10/20/1 6/2/2 1/1/3 5/19/4
f 6/4/2 7/6/5 2/5/6 1/3/3
f 7/8/5 8/10/7 3/9/8 2/7/6
f 8/12/7 9/14/9 4/13/10 3/11/8
f 9/16/9 10/18/1 5/17/4 4/15/10
s 2
f 15/40/11 11/22/12 6/21/13 10/39/14
f 11/24/12 12/26/15 7/25/16 6/23/13
f 12/28/15 13/30/17 8/29/18 7/27/16
f 13/32/17 14/34/19 9/33/20 8/31/18
f 14/36/19 15/38/11 10/37/14 9/35/20
s 3
f 20/60/21 16/42/22 11/41/23 15/59/24
f 16/44/22 17/46/25 12/45/26 11/43/23
f 17/48/25 18/50/27 13/49/28 12/47/26
f 18/52/27 19/54/29 14/53/30 13/51/28
f 19/56/29 20/58/21 15/57/24 14/55/30
f 25/80/31 21/62/32 16/61/22 20/79/21
f 21/64/32 22/66/33 17/65/25 16/63/22
f 22/68/33 23/70/34 18/69/27 17/67/25
f 23/72/34 24/74/35 19/73/29 18/71/27
f 24/76/35 25/78/31 20/77/21 19/75/29
f 30/100/36 26/82/37 21/81/32 25/99/31
f 26/84/37 27/86/38 22/85/33 21/83/32
f 27/88/38 28/90/39 23/89/34 22/87/33
f 28/92/39 29/94/40 24/93/35 23/91/34
f 29/96/40 30/98/36 25/97/31 24/95/35
s 4
f 35/120/41 31/111/42 26/101/43 30/110/44
f 31/112/42 32/113/45 27/103/46 26/102/43
f 32/114/45 33/115/47 28/105/48 27/104/46
f 33/116/47 34/117/49 29/107/50 28/106/48
f 34/118/49 35/119/41 30/109/44 29/108/50
s 5
f 40/140/51 36/122/52 31/121/53 35/139/54
f 36/124/52 37/126/55 32/125/56 31/123/53
f 37/128/55 38/130/57 33/129/58 32/127/56
f 38/132/57 39/134/59 34/133/60 33/131/58
f 39/136/59 40/138/51 35/137/54 34/135/60
s 6
f 45/160/61 41/142/62 36/141/63 40/159/64
f 41/144/62 42/146/65 37/145/66 36/143/63
f 42/148/65 43/150/67 38/149/68 37/147/66
f 43/152/67 44/154/69 39/153/70 38/151/68
f 44/156/69 45/158/61 40/157/64 39/155/70
s 7
f 50/180/71 46/162/72 41/161/73 45/179/74
f 46/164/72 47/166/75 42/165/76 41/163/73
f 47/168/75 48/170/77 43/169/78 42/167/76
f 48/172/77 49/174/79 44/173/80 43/171/78
f 49/176/79 50/178/71 45/177/74 44/175/80
s 8
f 55/200/81 51/182/82 46/181/83 50/199/84
f 51/184/82 52/186/85 47/185/86 46/183/83
f 52/188/85 53/190/87 48/189/88 47/187/86
f 53/192/87 54/194/89 49/193/90 48/191/88
f 54/196/89 55/198/81 50/197/84 49/195/90
f 60/220/91 56/202/92 51/201/82 55/219/81
f 56/204/92 57/206/93 52/205/85 51/203/82
f 57/208/93 58/210/94 53/209/87 52/207/85
f 58/212/94 59/214/95 54/213/89 53/211/87
f 59/216/95 60/218/91 55/217/81 54/215/89
s 9
f 61/222/96 56/221/97 60/235/98
f 61/225/96 57/224/99 56/223/97
f 61/228/96 58/227/100 57/226/99
f 61/231/96 59/230/101 58/229/100
f 61/234/96 60/233/98 59/232/101
s 10
f 68/247/102 69/249/103 62/236/104 63/237/105
f 72/255/106 68/247/102 63/237/105 64/238/107
f 71/253/108 72/255/106 64/238/107 65/239/109
f 70/251/110 71/253/108 65/239/109 66/240/111
f 69/249/103 70/251/110 66/240/111 62/236/104
s 11
f 63/243/112 62/241/113 67/242/114
f 64/244/115 63/243/112 67/242/114
f 65/245/116 64/244/115 67/242/114
f 66/246/117 65/245/116 67/242/114
f 62/241/113 66/246/117 67/242/114
s 12
f 5/256/118 1/248/119 68/247/120 72/255/121
f 1/248/119 2/250/122 69/249/123 68/247/120
f 2/250/122 3/252/124 70/251/125 69/249/123
f 3/252/124 4/254/126 71/253/127 70/251/125
f 4/254/126 5/256/118 72/255/121 71/253/127
