# This file uses centimeters as units for non-parametric coordinates.

mtllib Bar Counter.mtl
g default
v 6.286510 0.000000 -6.581876
v 7.756290 0.000000 -5.779440
v 7.347400 6.590673 -20.605404
v 5.464756 0.000000 -20.605404
v 7.010150 0.000000 -20.605404
v 5.464756 0.000000 -8.008870
v 7.010150 0.000000 -7.791928
v 7.347400 6.590673 -7.791927
v 9.902985 0.000000 -7.791928
v 9.902985 0.000000 -5.779440
v 9.902985 6.590673 -7.791927
v 5.464756 6.008410 -8.008869
v 6.286510 6.008410 -6.581876
v 7.756290 6.008410 -5.779440
v 9.902985 6.008410 -5.779440
v 9.902985 6.008410 -7.791927
v 7.347400 6.008410 -7.791927
v 7.347400 6.008410 -20.605404
v 5.464756 6.008410 -20.605404
v 5.821753 6.008410 -6.193680
v 7.756290 6.008410 -5.348012
v 7.756290 6.590673 -5.348012
v 5.821753 6.590673 -6.193680
v 5.033329 6.008410 -8.008869
v 5.033329 6.590673 -8.008869
v 5.033329 6.008410 -20.605404
v 5.033329 6.590673 -20.605404
v 9.902985 6.008410 -5.348012
v 9.902985 6.590673 -5.348012
vt 0.434301 0.336992
vt 0.445606 0.337328
vt 0.444792 0.340850
vt 0.434042 0.340617
vt 0.424309 0.290601
vt 0.434242 0.278827
vt 0.444705 0.290811
vt 0.434055 0.290892
vt 0.423717 0.336498
vt 0.424544 0.340285
vt 0.338927 0.340076
vt 0.338873 0.335766
vt 0.339807 0.293644
vt 0.339318 0.281676
vt 0.352226 0.229023
vt 0.434200 0.228159
vt 0.434269 0.237422
vt 0.342122 0.237589
vt 0.450909 0.278054
vt 0.464673 0.290541
vt 0.451472 0.227712
vt 0.451493 0.236746
vt 0.464651 0.356247
vt 0.434096 0.356562
vt 0.464841 0.340335
vt 0.464596 0.337039
vt 0.423618 0.333662
vt 0.338867 0.332560
vt 0.434388 0.333796
vt 0.445458 0.333765
vt 0.464563 0.333019
vt 0.465712 0.235303
vt 0.329647 0.237760
vt 0.328210 0.278859
vt 0.339524 0.356774
vt 0.335053 0.227671
vt 0.340800 0.224461
vt 0.335940 0.233321
vt 0.466307 0.226806
vt 0.467602 0.231508
vn -0.698904 0.000000 0.715216
vn -0.202899 0.000000 0.979200
vn -0.202899 0.000000 0.979200
vn -0.698904 0.000000 0.715216
vn 0.000000 -1.000000 0.000000
vn 0.000000 -1.000000 0.000000
vn 0.000000 -1.000000 0.000000
vn 0.000000 -1.000000 0.000000
vn -0.998507 0.000000 0.054625
vn -0.998507 0.000000 0.054625
vn -1.000000 0.000000 0.000000
vn -1.000000 0.000000 0.000000
vn 0.000000 -1.000000 0.000000
vn 0.000000 -1.000000 0.000000
vn 0.000000 -1.000000 0.000000
vn 0.000000 -1.000000 0.000000
vn 1.000000 0.000000 0.000000
vn 1.000000 0.000000 0.000000
vn 1.000000 0.000000 0.000000
vn 1.000000 0.000000 0.000000
vn 0.000000 -1.000000 0.000000
vn 0.000000 -1.000000 0.000000
vn 0.000000 -1.000000 0.000000
vn 0.000000 -1.000000 0.000000
vn 0.000000 0.000000 -1.000000
vn 0.000000 0.000000 -1.000000
vn 0.000000 0.000000 -1.000000
vn 0.000000 0.000000 -1.000000
vn 0.000000 1.000000 0.000000
vn 0.000000 1.000000 0.000000
vn 0.000000 1.000000 0.000000
vn 0.000000 1.000000 0.000000
vn 0.000000 0.000000 1.000000
vn 0.000000 0.000000 1.000000
vn -1.000000 0.000000 0.000000
vn -0.998288 -0.000000 0.058498
vn -0.998288 -0.000000 0.058498
vn -1.000000 0.000000 0.000000
vn -0.697328 -0.000000 0.716753
vn -0.697328 -0.000000 0.716753
vn -0.216615 0.000000 0.976257
vn -0.216615 0.000000 0.976257
vn 0.000000 0.000000 1.000000
vn 0.000000 0.000000 1.000000
vn 1.000000 0.000000 0.000000
vn 1.000000 0.000000 0.000000
vn 1.000000 0.000000 0.000000
vn 1.000000 0.000000 0.000000
vn 0.000000 0.000000 -1.000000
vn 0.000000 0.000000 -1.000000
vn 0.000000 0.000000 -1.000000
vn 0.000000 0.000000 -1.000000
vn 0.998428 -0.056041 0.000000
vn 0.998428 -0.056041 0.000000
vn 0.998429 -0.056041 0.000000
vn 0.998429 -0.056041 0.000000
vn 0.000000 0.000000 -1.000000
vn 0.000000 0.000000 -1.000000
vn 0.000000 0.000000 -1.000000
vn 0.000000 0.000000 -1.000000
vn 0.000000 -1.000000 0.000000
vn 0.000000 -1.000000 0.000000
vn 0.000000 -1.000000 0.000000
vn 0.000000 -1.000000 0.000000
vn 0.000000 -1.000000 0.000000
vn 0.000000 -1.000000 0.000000
vn 0.000000 -1.000000 0.000000
vn 0.000000 -1.000000 0.000000
vn 0.000000 1.000000 0.000000
vn 0.000000 1.000000 0.000000
vn 0.000000 1.000000 0.000000
vn 0.000000 1.000000 0.000000
vn 0.000000 1.000000 0.000000
vn 0.000000 1.000000 0.000000
vn 0.000000 1.000000 0.000000
vn 0.000000 1.000000 0.000000
vn 0.000000 -1.000000 0.000000
vn 0.000000 -1.000000 0.000000
vn 0.000000 -1.000000 0.000000
vn 0.000000 -1.000000 0.000000
vn 0.000000 0.000000 -1.000000
vn 0.000000 0.000000 -1.000000
vn 0.000000 0.000000 -1.000000
vn 0.000000 0.000000 -1.000000
vn 0.000000 0.000000 -1.000000
vn 0.000000 -1.000000 0.000000
vn 0.000000 -1.000000 0.000000
vn 0.000000 -1.000000 0.000000
vn 0.000000 -1.000000 0.000000
vn 1.000000 0.000000 0.000000
vn 1.000000 0.000000 0.000000
vn 1.000000 0.000000 0.000000
vn 1.000000 0.000000 0.000000
vn 1.000000 0.000000 0.000000
s 1
g polySurface39 polySurface38 polySurface26 pCylinder33
usemtl initialShadingGroup
f 20/1/1 21/2/2 22/3/3 23/4/4
s off
f 6/5/5 7/6/6 2/7/7 1/8/8
s 1
f 24/9/9 20/1/1 23/4/4 25/10/10
f 24/9/9 25/10/10 27/11/11 26/12/12
s off
f 7/6/13 6/5/14 4/13/15 5/14/16
f 3/15/17 8/16/18 17/17/19 18/18/20
f 2/7/21 7/6/22 9/19/23 10/20/24
f 17/17/25 8/16/26 11/21/27 16/22/28
f 11/23/29 8/24/30 22/3/31 29/25/32
s 1
f 22/3/3 21/2/2 28/26/33 29/25/34
s 2
f 4/13/35 6/5/36 12/27/37 19/28/38
f 6/5/36 1/8/39 13/29/40 12/27/37
f 1/8/39 2/7/41 14/30/42 13/29/40
f 15/31/43 14/30/42 2/7/41 10/20/44
s off
f 10/20/45 9/19/46 16/22/47 15/32/48
f 7/6/49 17/17/50 16/22/51 9/19/52
f 17/17/53 7/6/54 5/14/55 18/18/56
f 19/33/57 18/18/58 5/14/59 4/34/60
f 13/29/61 14/30/62 21/2/63 20/1/64
f 12/27/65 13/29/66 20/1/67 24/9/68
f 8/24/69 25/10/70 23/4/71 22/3/72
f 3/35/73 27/11/74 25/10/75 8/24/76
f 24/9/77 26/12/78 19/28/79 12/27/80
s 3
f 26/36/81 27/37/82 19/38/83
f 27/37/82 3/15/84 19/38/83
f 19/38/83 3/15/84 18/18/85
s off
f 14/30/86 15/31/87 28/26/88 21/2/89
s 4
f 11/21/90 29/39/91 16/22/92
f 28/40/93 15/32/94 29/39/91
f 29/39/91 15/32/94 16/22/92
