# This file uses centimeters as units for non-parametric coordinates.

mtllib Entrance Door.mtl
g default
v 0.300719 13.717056 -23.786789
v 0.300719 0.000000 -23.786789
v 0.064395 13.717056 -23.786789
v 0.064395 -0.000000 -23.786789
v -4.441159 13.456284 -23.786789
v 0.064395 13.456284 -23.786789
v 0.300719 13.456284 -23.786789
v 4.873382 13.456282 -23.786789
v 4.583447 13.717055 -23.786789
v 4.583447 13.456283 -23.786789
v 4.583447 0.000000 -23.786789
v -4.155440 13.717055 -23.786789
v -4.155440 13.456284 -23.786789
v -4.155440 0.000000 -23.786789
v -4.441159 0.281645 -23.786789
v -4.155440 0.281645 -23.786789
v 0.064395 0.281645 -23.786789
v 0.300719 0.281645 -23.786789
v 4.583447 0.281645 -23.786789
v 4.873382 0.281645 -23.786789
v -4.441159 7.357334 -23.786789
v -4.155440 7.357334 -23.786789
v 0.064395 7.357334 -23.786789
v 0.300719 7.357334 -23.786789
v 4.583447 7.357334 -23.786789
v 4.873382 7.357333 -23.786789
v -4.441159 6.114531 -23.786791
v -4.155440 6.114531 -23.786791
v 0.064395 6.114531 -23.786791
v 0.300719 6.114531 -23.786791
v 4.583447 6.114531 -23.786791
v 4.873382 6.114531 -23.786791
v -0.045164 13.100512 -23.578163
v -0.045164 7.713106 -23.578163
v -3.917425 13.100512 -23.578163
v -3.917425 7.713106 -23.578163
v 4.341643 13.100511 -23.578161
v 4.341643 7.713106 -23.578161
v 0.412021 13.100512 -23.578161
v 0.412021 7.713106 -23.578161
v -0.042548 7.111939 -23.607033
v -0.042548 6.359924 -23.607035
v -3.923106 7.111939 -23.607033
v -3.923106 6.359924 -23.607035
v 4.347416 7.111940 -23.607033
v 4.347416 6.359925 -23.607035
v 0.409364 7.111940 -23.607033
v 0.409364 6.359925 -23.607035
v -3.928329 5.865934 -23.640249
v -0.040143 5.865934 -23.640249
v -3.928329 0.530242 -23.640247
v -0.040143 0.530242 -23.640247
v 0.406921 5.865934 -23.640249
v 4.352722 5.865934 -23.640249
v 0.406921 0.530242 -23.640247
v 4.352722 0.530242 -23.640247
v -4.441159 13.717055 -23.786789
v -4.441159 0.000000 -23.786789
v 4.873382 0.000000 -23.786789
v 4.873382 13.717055 -23.786789
vt 0.634280 0.745819
vt 0.632288 0.747560
vt 0.632326 0.745802
vt 0.600847 0.745439
vt 0.602428 0.745440
vt 0.602412 0.747198
vt 0.600863 0.747197
vt 0.571610 0.747592
vt 0.571570 0.745834
vt 0.599465 0.706628
vt 0.599388 0.742789
vt 0.573576 0.743166
vt 0.573478 0.706587
vt 0.600910 0.703951
vt 0.602504 0.703958
vt 0.634267 0.703973
vt 0.632313 0.703970
vt 0.630272 0.706607
vt 0.630275 0.743132
vt 0.603897 0.742799
vt 0.603955 0.706637
vt 0.571441 0.703951
vt 0.569644 0.745851
vt 0.569516 0.703950
vt 0.571837 0.653163
vt 0.571798 0.655062
vt 0.569873 0.655044
vt 0.600968 0.653491
vt 0.600951 0.655389
vt 0.602524 0.653492
vt 0.602541 0.655389
vt 0.631887 0.653153
vt 0.631925 0.655052
vt 0.633880 0.655034
vt 0.571568 0.694950
vt 0.569641 0.694949
vt 0.599742 0.696931
vt 0.599715 0.701964
vt 0.573291 0.701974
vt 0.573403 0.696923
vt 0.600878 0.694938
vt 0.602487 0.694938
vt 0.630439 0.696947
vt 0.630421 0.701994
vt 0.603700 0.701968
vt 0.603644 0.696931
vt 0.634223 0.694975
vt 0.632268 0.694971
vt 0.599734 0.693073
vt 0.573361 0.693096
vt 0.573542 0.656939
vt 0.599820 0.657233
vt 0.630457 0.693116
vt 0.603636 0.693078
vt 0.603674 0.657236
vt 0.630165 0.656930
vt 0.000000 0.000000
vt 1.000000 0.000000
vt 1.000000 1.000000
vt 0.000000 1.000000
vt 0.000000 0.000000
vt 1.000000 0.000000
vt 1.000000 1.000000
vt 0.000000 1.000000
vt 0.000000 0.000000
vt 1.000000 0.000000
vt 1.000000 1.000000
vt 0.000000 1.000000
vt 0.000000 0.000000
vt 1.000000 0.000000
vt 1.000000 1.000000
vt 0.000000 1.000000
vn -0.000000 0.000000 1.000000
vn 0.000000 0.000000 1.000000
vn 0.000000 0.000000 1.000000
vn -0.000000 0.000000 1.000000
vn -0.000000 0.000000 1.000000
vn -0.000000 0.000000 1.000000
vn 0.000000 0.000000 1.000000
vn 0.000000 0.000000 1.000000
vn 0.000000 0.000000 1.000000
vn 0.000000 0.000000 1.000000
vn 0.000000 -0.000000 1.000000
vn 0.000000 -0.000000 1.000000
vn -0.000005 -0.000000 1.000000
vn -0.000006 0.000000 1.000000
vn -0.000006 0.000000 1.000000
vn -0.000005 -0.000000 1.000000
vn 0.000000 0.000000 1.000000
vn 0.000000 0.000000 1.000000
vn -0.000000 0.000000 1.000000
vn -0.000000 0.000000 1.000000
vn -0.000000 0.000000 1.000000
vn -0.000000 0.000000 1.000000
vn -0.000003 -0.000000 1.000000
vn -0.000002 0.000000 1.000000
vn -0.000002 0.000000 1.000000
vn -0.000003 -0.000000 1.000000
vn -0.000000 0.000000 1.000000
vn 0.088365 -0.125209 0.988187
vn -0.000000 0.000000 1.000000
vn -0.000000 0.000000 1.000000
vn 0.000000 0.000000 1.000000
vn 0.000000 0.000000 1.000000
vn 0.000000 0.000000 1.000000
vn 0.000000 0.000000 1.000000
vn -0.000001 0.000000 1.000000
vn -0.000001 0.000000 1.000000
vn 0.000000 -0.000003 1.000000
vn 0.000000 -0.000003 1.000000
vn 0.000000 -0.000003 1.000000
vn 0.000000 -0.000003 1.000000
vn 0.118777 0.168301 0.978553
vn 0.000000 0.000000 1.000000
vn 0.000000 -0.000003 1.000000
vn 0.000000 -0.000003 1.000000
vn 0.000000 -0.000003 1.000000
vn 0.000000 -0.000003 1.000000
vn 0.000000 -0.000000 1.000000
vn 0.000000 -0.000000 1.000000
vn 0.000000 0.000000 1.000000
vn 0.000000 0.000000 1.000000
vn 0.000000 0.000000 1.000000
vn 0.000000 0.000000 1.000000
vn 0.000000 0.000000 1.000000
vn 0.000000 0.000000 1.000000
vn 0.000000 0.000000 1.000000
vn 0.000000 0.000000 1.000000
vn 0.000000 0.000000 1.000000
vn 0.000000 0.000000 1.000000
vn -0.000000 0.000000 1.000000
vn -0.000000 0.000000 1.000000
vn 0.268729 -0.424318 0.864719
vn 0.268729 0.424319 0.864719
vn 0.561343 0.283144 0.777640
vn 0.561342 -0.283144 0.777640
vn -0.311952 0.316598 0.895797
vn -0.403620 0.246628 0.881059
vn -0.311951 -0.316598 0.895797
vn -0.403619 -0.246628 0.881060
vn 0.310011 -0.315270 0.896938
vn 0.310011 0.315270 0.896938
vn 0.397606 0.247828 0.883454
vn 0.397606 -0.247828 0.883454
vn -0.266268 0.424244 0.865516
vn -0.554834 0.284811 0.781692
vn -0.266269 -0.424244 0.865516
vn -0.554835 -0.284811 0.781691
vn 0.079836 -0.566176 0.820409
vn 0.079835 0.566173 0.820411
vn 0.167777 0.533931 0.828715
vn 0.167778 -0.533933 0.828713
vn -0.119720 0.510425 0.851548
vn -0.126854 0.505196 0.853631
vn -0.119721 -0.510427 0.851546
vn -0.126854 -0.505199 0.853629
vn 0.119386 -0.509421 0.852195
vn 0.119386 0.509420 0.852196
vn 0.124421 0.505680 0.853702
vn 0.124421 -0.505681 0.853701
vn -0.079194 0.566025 0.820575
vn -0.164865 0.534307 0.829057
vn -0.079194 -0.566026 0.820575
vn -0.164866 -0.534308 0.829056
vn -0.315991 0.250712 0.915037
vn -0.333284 0.233918 0.913348
vn 0.497619 0.275564 0.822460
vn -0.315990 -0.250712 0.915037
vn -0.333284 -0.233917 0.913348
vn 0.497619 -0.275563 0.822460
vn 0.313824 0.248866 0.916286
vn -0.278206 0.396783 0.874737
vn -0.491119 0.277020 0.825871
vn 0.327970 0.234978 0.914998
vn -0.278206 -0.396783 0.874737
vn -0.491119 -0.277020 0.825871
vn 0.313824 -0.248866 0.916286
vn 0.327970 -0.234977 0.914998
vn 0.000000 0.000000 1.000000
vn 0.000000 0.000000 1.000000
vn 0.000006 0.000000 1.000000
vn 0.000006 0.000000 1.000000
vn -0.000006 0.000000 1.000000
vn -0.000006 0.000000 1.000000
vn 0.000000 0.000000 1.000000
vn 0.000000 0.000000 1.000000
s 1
g Main_Door polySurface42 polySurface40 polySurface38 polySurface26 pCylinder33
usemtl initialShadingGroup
f 6/4/1 7/5/2 1/6/3 3/7/4
f 6/4/1 3/7/4 12/8/5 13/9/6
s off
f 34/10/7 33/11/8 35/12/9 36/13/10
s 1
f 23/14/11 24/15/12 7/5/2 6/4/1
s 2
f 26/16/13 8/1/14 10/3/15 25/17/16
s 1
f 10/3/17 9/2/18 1/6/3 7/5/2
s off
f 38/18/19 37/19/20 39/20/21 40/21/22
s 3
f 22/22/23 13/9/24 5/23/25 21/24/26
s 1
f 4/28/27 17/29/28 16/26/29 14/25/30
f 4/28/27 2/30/31 18/31/32 17/29/28
f 11/32/33 19/33/34 18/31/32 2/30/31
s 3
f 28/35/35 22/22/23 21/24/26 27/36/36
s off
f 42/37/37 41/38/38 43/39/39 44/40/40
s 1
f 29/41/41 30/42/42 24/15/12 23/14/11
s off
f 46/43/43 45/44/44 47/45/45 48/46/46
s 2
f 32/47/47 26/16/13 25/17/16 31/48/48
s 3
f 28/35/35 27/36/36 15/27/49 16/26/50
s off
f 50/49/51 49/50/52 51/51/53 52/52/54
s 1
f 17/29/28 18/31/32 30/42/42 29/41/41
s off
f 54/53/55 53/54/56 55/55/57 56/56/58
s 2
f 20/34/59 32/47/47 31/48/48 19/33/60
s 5
f 23/14/61 6/4/62 33/11/63 34/10/64
f 6/4/62 13/9/65 35/12/66 33/11/63
f 13/9/65 22/22/67 36/13/68 35/12/66
f 22/22/67 23/14/61 34/10/64 36/13/68
s 6
f 25/17/69 10/3/70 37/19/71 38/18/72
f 10/3/70 7/5/73 39/20/74 37/19/71
f 7/5/73 24/15/75 40/21/76 39/20/74
f 24/15/75 25/17/69 38/18/72 40/21/76
s 7
f 29/41/77 23/14/78 41/38/79 42/37/80
f 23/14/78 22/22/81 43/39/82 41/38/79
f 22/22/81 28/35/83 44/40/84 43/39/82
f 28/35/83 29/41/77 42/37/80 44/40/84
s 8
f 31/48/85 25/17/86 45/44/87 46/43/88
f 25/17/86 24/15/89 47/45/90 45/44/87
f 24/15/89 30/42/91 48/46/92 47/45/90
f 30/42/91 31/48/85 46/43/88 48/46/92
s 1
f 29/41/41 28/35/93 49/50/94 50/49/95
f 28/35/93 16/26/96 51/51/97 49/50/94
f 16/26/96 17/29/28 52/52/98 51/51/97
f 17/29/28 29/41/41 50/49/95 52/52/98
s 10
f 31/48/99 30/42/100 53/54/101 54/53/102
f 30/42/100 18/31/103 55/55/104 53/54/101
f 18/31/103 19/33/105 56/56/106 55/55/104
f 19/33/105 31/48/99 54/53/102 56/56/106
s 1
f 13/57/6 12/58/5 57/59/107 5/60/108
s 3
f 16/61/50 15/62/49 58/63/109 14/64/110
s 2
f 20/65/59 19/66/60 11/67/111 59/68/112
s 1
f 9/69/18 10/70/17 8/71/113 60/72/114
