# This file uses centimeters as units for non-parametric coordinates.

mtllib Fireplace Fence.mtl
g default
v 5.352499 1.983506 17.739601
v 5.727234 1.983506 17.739601
v 5.352499 3.891648 17.739601
v 5.727234 3.891648 17.739601
v 5.352499 3.891648 17.616138
v 5.727234 3.891648 17.616138
v 5.352499 1.983506 17.616138
v 5.727234 1.983506 17.616138
vt 0.293645 0.801526
vt 0.287595 0.805192
vt 0.280717 0.805516
vt 0.293196 0.785948
vt 0.279216 0.802689
vt 0.292707 0.785381
vt 0.267874 0.795932
vt 0.285751 0.772757
vt 0.264988 0.778859
vt 0.269403 0.774006
vt 0.258427 0.788655
vt 0.257938 0.788088
vt 0.281892 0.766601
vt 0.283627 0.768450
vn 0.000000 0.000000 1.000000
vn 0.000000 0.000000 1.000000
vn 0.000000 0.000000 1.000000
vn 0.000000 0.000000 1.000000
vn 0.000000 1.000000 0.000000
vn 0.000000 1.000000 0.000000
vn 0.000000 1.000000 0.000000
vn 0.000000 1.000000 0.000000
vn 0.000000 0.000000 -1.000000
vn 0.000000 0.000000 -1.000000
vn 0.000000 0.000000 -1.000000
vn 0.000000 0.000000 -1.000000
vn 0.000000 -1.000000 0.000000
vn 0.000000 -1.000000 0.000000
vn 0.000000 -1.000000 0.000000
vn 0.000000 -1.000000 0.000000
vn 1.000000 0.000000 0.000000
vn 1.000000 0.000000 0.000000
vn 1.000000 0.000000 0.000000
vn 1.000000 0.000000 0.000000
vn -1.000000 0.000000 0.000000
vn -1.000000 0.000000 0.000000
vn -1.000000 0.000000 0.000000
vn -1.000000 0.000000 0.000000
s off
g Fireplace_Fence polySurface26 pCylinder33
usemtl initialShadingGroup
f 1/1/1 2/2/2 4/3/3 3/4/4
f 3/4/5 4/3/6 6/5/7 5/6/8
f 5/6/9 6/5/10 8/7/11 7/8/12
f 7/8/13 8/7/14 2/9/15 1/10/16
f 2/9/17 8/7/18 6/11/19 4/12/20
f 7/8/21 1/10/22 3/13/23 5/14/24
