# This file uses centimeters as units for non-parametric coordinates.

mtllib Toilet Door.mtl
g default
v -9.864865 13.717055 21.088760
v -4.441159 13.717055 21.088760
v -9.864865 0.000000 21.088760
v -4.441159 0.000000 21.088760
v -9.443243 13.717055 21.088760
v -9.443243 0.000000 21.088760
v -4.441159 13.358196 21.088760
v -9.443243 13.358196 21.088760
v -9.864865 13.358196 21.088760
v -5.291805 13.717055 21.088762
v -5.291805 13.358197 21.088762
v -5.291805 0.000000 21.088760
v -4.441159 1.312344 21.088760
v -5.291805 1.312345 21.088760
v -9.443243 1.312344 21.088760
v -9.864865 1.312344 21.088760
v -4.441159 4.307484 21.088760
v -5.291805 4.307484 21.088760
v -9.443243 4.307484 21.088760
v -9.864865 4.307484 21.088760
v -4.441159 4.733333 21.088760
v -5.291805 4.733334 21.088760
v -9.443243 4.733333 21.088760
v -9.864865 4.733333 21.088760
v -9.270266 12.998827 20.837990
v -9.270266 5.092702 20.837990
v -5.464782 12.998828 20.837992
v -5.464781 5.092703 20.837990
v -9.270267 4.182686 20.837990
v -9.270267 1.437142 20.837990
v -5.464781 4.182686 20.837990
v -5.464781 1.437142 20.837990
v -4.441159 7.283327 21.088760
v -5.291805 7.283328 21.088760
v -5.464781 7.430197 20.837990
v -9.270266 7.430197 20.837990
v -9.443243 7.283327 21.088760
v -9.864865 7.283327 21.088760
v -4.441159 6.623129 21.088760
v -5.291805 6.623130 21.088760
v -5.464781 6.825016 20.837990
v -9.270266 6.825015 20.837990
v -9.443243 6.623129 21.088760
v -9.864865 6.623129 21.088760
v -5.192563 7.206305 21.088760
v -5.192563 6.700153 21.088760
v -4.540401 7.206305 21.088760
v -4.540401 6.700153 21.088760
v -5.192563 7.206305 20.956383
v -5.192563 6.700153 20.956383
v -4.540401 7.206305 20.956383
v -4.540401 6.700153 20.956383
v -4.986663 7.070233 20.956383
v -4.986663 6.836224 20.956383
v -4.746301 7.070233 20.956383
v -4.746301 6.836224 20.956383
v -4.986664 6.836224 20.650684
v -4.986664 7.070233 20.650684
v -4.746302 7.070233 20.650684
v -4.746302 6.836224 20.650684
v -5.028772 6.795296 20.601780
v -5.028772 7.111209 20.601780
v -4.704283 7.111209 20.601780
v -4.704283 6.795296 20.601780
v -5.084149 6.741516 20.440594
v -5.084149 7.165083 20.440594
v -4.649085 7.165083 20.440594
v -4.649085 6.741516 20.440594
v -4.950203 6.871810 20.209320
v -4.950203 7.034709 20.209320
v -4.782882 7.034709 20.209320
v -4.782882 6.871810 20.209320
vt 0.403589 0.750149
vt 0.403251 0.752414
vt 0.400806 0.752223
vt 0.400650 0.749688
vt 0.372366 0.755179
vt 0.372194 0.752654
vt 0.398345 0.709980
vt 0.398680 0.746786
vt 0.373642 0.749352
vt 0.370066 0.709319
vt 0.403529 0.709444
vt 0.400547 0.709262
vt 0.367010 0.756025
vt 0.366296 0.753736
vt 0.367775 0.708293
vt 0.361798 0.708679
vt 0.374390 0.659605
vt 0.373178 0.667744
vt 0.367585 0.666078
vt 0.369149 0.658543
vt 0.398634 0.656992
vt 0.400674 0.665571
vt 0.401187 0.656250
vt 0.403667 0.664656
vt 0.370460 0.687263
vt 0.364066 0.685222
vt 0.398888 0.667284
vt 0.399700 0.686641
vt 0.372652 0.686008
vt 0.374875 0.669218
vt 0.404492 0.687989
vt 0.401518 0.688280
vt 0.370139 0.690171
vt 0.364141 0.688581
vt 0.401175 0.691238
vt 0.404155 0.691074
vt 0.399088 0.694034
vt 0.371650 0.693321
vt 0.484941 0.769104
vt 0.484228 0.768514
vt 0.482696 0.769078
vt 0.483339 0.768608
vt 0.368004 0.703572
vt 0.370153 0.705102
vt 0.398859 0.706011
vt 0.401103 0.704691
vt 0.404059 0.704637
vt 0.362072 0.702672
vt 0.367088 0.707757
vt 0.367220 0.704053
vt 0.362577 0.707992
vt 0.362752 0.703470
vt 0.487436 0.780000
vt 0.484516 0.780610
vt 0.484588 0.779141
vt 0.480502 0.780388
vt 0.480836 0.778798
vt 0.477566 0.778966
vt 0.478101 0.777576
vt 0.474930 0.776023
vt 0.474963 0.775143
vt 0.484497 0.777271
vt 0.481451 0.776902
vt 0.478696 0.775790
vt 0.475957 0.774052
vt 0.487854 0.779193
vt 0.487647 0.777377
vt 0.488024 0.775070
vt 0.485191 0.774642
vt 0.482334 0.774130
vt 0.479572 0.773265
vt 0.477080 0.771922
vt 0.488232 0.774502
vt 0.485242 0.773916
vt 0.482481 0.773308
vt 0.479853 0.772584
vt 0.477238 0.771339
vt 0.488294 0.773208
vt 0.485455 0.772560
vt 0.482696 0.771785
vt 0.480318 0.771262
vt 0.477822 0.770056
vt 0.487408 0.771166
vt 0.485962 0.770326
vt 0.481127 0.768992
vt 0.479733 0.768821
vn 0.000000 0.000000 -1.000000
vn 0.000000 0.000000 -1.000000
vn 0.000001 0.000000 -1.000000
vn 0.000000 0.000000 -1.000000
vn 0.000000 0.000000 -1.000000
vn 0.000001 0.000000 -1.000000
vn -0.000000 0.000000 -1.000000
vn -0.000000 0.000000 -1.000000
vn -0.000000 0.000000 -1.000000
vn -0.000000 0.000000 -1.000000
vn 0.000000 0.000000 -1.000000
vn 0.000000 0.000000 -1.000000
vn -0.000003 0.000000 -1.000000
vn 0.000001 0.000000 -1.000000
vn 0.000001 0.000000 -1.000000
vn 0.000001 0.000000 -1.000000
vn 0.000000 0.000000 -1.000000
vn 0.000000 0.000000 -1.000000
vn -0.000000 0.000000 -1.000000
vn -0.000002 0.000000 -1.000000
vn 0.000000 0.000000 -1.000000
vn 0.000000 0.000000 -1.000000
vn -0.000000 0.000000 -1.000000
vn -0.000000 0.000000 -1.000000
vn 0.000000 0.000000 -1.000000
vn 0.000001 0.000000 -1.000000
vn 0.000000 0.000000 -1.000000
vn 0.000000 0.000000 -1.000000
vn 0.000000 0.000000 -1.000000
vn 0.000000 0.000000 -1.000000
vn 0.000000 0.000000 -1.000000
vn -0.000000 0.000000 -1.000000
vn 0.000000 0.000000 -1.000000
vn 0.000001 0.000000 -1.000000
vn -0.000000 0.000000 -1.000000
vn 0.000000 0.000000 -1.000000
vn -0.823164 0.000000 -0.567804
vn -0.356030 0.413426 -0.838047
vn -0.537342 0.293165 -0.790771
vn -0.823164 0.000000 -0.567804
vn 0.356028 0.413427 -0.838046
vn 0.537341 0.293165 -0.790771
vn 0.823164 0.000000 -0.567803
vn 0.823164 0.000000 -0.567803
vn 0.139476 -0.520636 -0.842309
vn -0.139475 -0.520635 -0.842310
vn -0.264112 -0.463205 -0.845982
vn 0.264115 -0.463206 -0.845981
vn -0.495589 -0.591365 -0.636143
vn -0.495589 0.591366 -0.636143
vn -0.433423 0.651151 -0.623015
vn -0.433422 -0.651151 -0.623015
vn 0.495587 0.591367 -0.636144
vn 0.433421 0.651152 -0.623015
vn 0.495588 -0.591366 -0.636144
vn 0.433421 -0.651152 -0.623015
vn 0.000000 0.000000 -1.000000
vn 0.000000 0.000000 -1.000000
vn 0.000000 0.000000 -1.000000
vn 0.000000 0.000000 -1.000000
vn 0.823166 0.000000 -0.567800
vn 0.823165 0.000000 -0.567802
vn -0.000000 0.000000 -1.000000
vn -0.000000 0.000000 -1.000000
vn -0.823162 0.000000 -0.567806
vn -0.823162 0.000000 -0.567807
vn 0.000000 0.000000 -1.000000
vn 0.000000 0.000000 -1.000000
vn 0.000001 0.000000 -1.000000
vn 0.000001 0.000000 -1.000000
vn -0.000000 0.000000 -1.000000
vn -0.000000 0.000000 -1.000000
vn 0.000006 0.000000 -1.000000
vn 0.000006 0.000000 -1.000000
vn -0.000005 0.000000 -1.000000
vn -0.000005 0.000000 -1.000000
vn -0.613122 -0.789988 0.000000
vn -0.613122 0.789988 0.000000
vn -0.613122 0.789988 0.000000
vn -0.613122 -0.789988 0.000000
vn 0.613122 0.789988 0.000000
vn 0.613122 0.789988 0.000000
vn 0.613122 -0.789988 0.000000
vn 0.613122 -0.789988 0.000000
vn 0.000000 0.000000 -1.000000
vn 0.000000 0.000000 -1.000000
vn 0.000000 0.000000 -1.000000
vn 0.000000 0.000000 -1.000000
vn -0.000009 0.000000 -1.000000
vn -0.000006 0.000000 -1.000000
vn -0.000009 0.000000 -1.000000
vn -0.000006 0.000000 -1.000000
vn -0.697577 -0.716510 0.000002
vn -0.697576 -0.716511 0.000002
vn -0.697576 0.716511 0.000002
vn -0.697577 0.716510 0.000002
vn 0.697577 0.716510 -0.000002
vn 0.697576 0.716511 -0.000002
vn 0.697577 -0.716510 -0.000002
vn 0.697576 -0.716511 -0.000002
vn -0.450658 -0.454438 0.768370
vn -0.444565 -0.460580 0.768263
vn -0.444492 0.460343 0.768448
vn -0.450341 0.454452 0.768548
vn 0.444916 0.460485 0.768117
vn 0.450311 0.455059 0.768207
vn 0.444989 -0.460721 0.767933
vn 0.450629 -0.455045 0.768028
vn -0.631584 -0.643913 0.431830
vn -0.627592 -0.647845 0.431770
vn -0.627585 0.647647 0.432077
vn -0.631342 0.643948 0.432132
vn 0.627952 0.647666 0.431515
vn 0.631266 0.644406 0.431561
vn 0.627959 -0.647863 0.431208
vn 0.631509 -0.644371 0.431258
vn -0.540812 -0.559255 -0.628296
vn -0.546073 -0.554013 -0.628390
vn -0.545934 0.554021 -0.628503
vn -0.540788 0.559148 -0.628412
vn 0.545917 0.554282 -0.628288
vn 0.540982 0.559195 -0.628203
vn 0.546055 -0.554274 -0.628175
vn 0.541006 -0.559302 -0.628087
s 1
g Toilet_Door polySurface40 polySurface38 polySurface26 pCylinder33
usemtl initialShadingGroup
f 9/1/1 1/2/2 5/3/3 8/4/4
f 8/4/4 5/3/3 10/5/5 11/6/6
s 2
f 36/7/7 25/8/8 27/9/9 35/10/10
s 1
f 38/11/11 9/1/1 8/4/4 37/12/12
f 11/6/6 10/5/5 2/13/13 7/14/14
f 34/15/15 11/6/6 7/14/14 33/16/16
f 12/17/17 14/18/18 13/19/19 4/20/20
f 6/21/21 15/22/22 14/18/18 12/17/17
f 3/23/23 16/24/24 15/22/22 6/21/21
f 14/18/18 18/25/25 17/26/26 13/19/19
s off
f 30/27/27 29/28/28 31/29/29 32/30/30
s 1
f 16/24/24 20/31/31 19/32/32 15/22/22
f 18/25/25 22/33/33 21/34/34 17/26/26
f 19/32/32 23/35/35 22/33/33 18/25/25
f 20/31/31 24/36/36 23/35/35 19/32/32
s 4
f 37/12/37 8/4/38 25/8/39 36/7/40
f 8/4/38 11/6/41 27/9/42 25/8/39
f 11/6/41 34/15/43 35/10/44 27/9/42
f 22/33/45 23/35/46 26/37/47 28/38/48
s 6
f 15/22/49 19/32/50 29/28/51 30/27/52
f 19/32/50 18/25/53 31/29/54 29/28/51
f 18/25/53 14/18/55 32/30/56 31/29/54
f 14/18/55 15/22/49 30/27/52 32/30/56
s off
f 72/42/57 69/40/58 70/39/59 71/41/60
s 4
f 35/10/44 34/15/43 40/43/61 41/44/62
s 2
f 42/45/63 36/7/7 35/10/10 41/44/64
s 4
f 43/46/65 37/12/37 36/7/40 42/45/66
s 1
f 44/47/67 38/11/11 37/12/12 43/46/68
f 22/33/33 40/43/69 39/48/70 21/34/34
s 4
f 41/44/62 40/43/61 22/33/45 28/38/48
s 2
f 26/37/71 42/45/63 41/44/64 28/38/72
s 4
f 23/35/46 43/46/65 42/45/66 26/37/47
s 1
f 24/36/36 44/47/67 43/46/68 23/35/35
f 40/43/69 34/15/15 45/49/73 46/50/74
f 34/15/15 33/16/16 47/51/75 45/49/73
f 33/16/16 39/48/70 48/52/76 47/51/75
f 39/48/70 40/43/69 46/50/74 48/52/76
s 7
f 46/53/77 45/54/78 49/55/79 50/66/80
f 45/54/78 47/56/81 51/57/82 49/55/79
f 47/56/81 48/58/83 52/59/84 51/57/82
f 48/58/83 46/60/77 50/61/80 52/59/84
s 8
f 49/55/85 53/62/86 54/67/87 50/66/88
f 51/57/89 55/63/90 53/62/86 49/55/85
f 52/59/91 56/64/92 55/63/90 51/57/89
f 52/59/91 50/61/88 54/65/87 56/64/92
s 9
f 57/68/93 54/67/94 53/62/95 58/69/96
f 58/69/96 53/62/95 55/63/97 59/70/98
f 59/70/98 55/63/97 56/64/99 60/71/100
f 60/71/100 56/64/99 54/65/94 57/72/93
s 10
f 61/73/101 57/68/102 58/69/103 62/74/104
f 62/74/104 58/69/103 59/70/105 63/75/106
f 63/75/106 59/70/105 60/71/107 64/76/108
f 64/76/108 60/71/107 57/72/102 61/77/101
s 11
f 65/78/109 61/73/110 62/74/111 66/79/112
f 66/79/112 62/74/111 63/75/113 67/80/114
f 67/80/114 63/75/113 64/76/115 68/81/116
f 68/81/116 64/76/115 61/77/110 65/82/109
s 12
f 69/83/117 65/78/118 66/79/119 70/84/120
f 70/84/120 66/79/119 67/80/121 71/41/122
f 71/41/122 67/80/121 68/81/123 72/85/124
f 72/85/124 68/81/123 65/82/118 69/86/117
