# This file uses centimeters as units for non-parametric coordinates.

mtllib Wood.mtl
g default
v 6.376591 1.738854 20.422026
v 6.272483 1.757324 20.085337
v 6.245502 2.098200 19.998075
v 6.332933 2.290403 20.280834
v 6.413951 2.068316 20.542849
v 8.470224 1.738854 19.774654
v 8.366117 1.757324 19.437965
v 8.339135 2.098200 19.350704
v 8.426567 2.290403 19.633463
v 8.507585 2.068316 19.895479
v 6.328292 1.990619 20.265823
v 8.421926 1.990619 19.618454
vt 0.798917 0.755377
vt 0.798922 0.752648
vt 0.815371 0.752804
vt 0.815191 0.755500
vt 0.798920 0.750051
vt 0.815245 0.749946
vt 0.798931 0.747195
vt 0.815250 0.747332
vt 0.799008 0.744804
vt 0.815220 0.744800
vt 0.798946 0.757683
vt 0.815013 0.757596
vt 0.796273 0.754891
vt 0.797052 0.756644
vt 0.795188 0.757039
vt 0.796958 0.758732
vt 0.817568 0.754934
vt 0.816689 0.756746
vt 0.818808 0.757209
vt 0.816777 0.758972
vn 0.160891 -0.838671 0.520332
vn -0.185907 -0.777146 -0.601234
vn -0.185907 -0.777146 -0.601234
vn 0.160891 -0.838670 0.520332
vn -0.275788 0.358368 -0.891916
vn -0.275788 0.358368 -0.891916
vn 0.015461 0.998630 0.050000
vn 0.015461 0.998630 0.050000
vn 0.285344 0.258818 0.922818
vn 0.285344 0.258818 0.922817
vn -0.955371 -0.000000 0.295409
vn -0.955371 0.000000 0.295408
vn -0.955371 0.000001 0.295409
vn -0.955371 0.000002 0.295409
vn -0.955371 0.000000 0.295409
vn -0.955370 0.000001 0.295411
vn 0.955371 0.000000 -0.295409
vn 0.955372 0.000001 -0.295407
vn 0.955371 0.000000 -0.295409
vn 0.955371 0.000001 -0.295410
vn 0.955370 -0.000000 -0.295410
vn 0.955371 -0.000000 -0.295408
s 1
g Fireplace_Wood pCylinder33
usemtl initialShadingGroup
f 1/1/1 2/2/2 7/3/3 6/4/4
f 2/2/2 3/5/5 8/6/6 7/3/3
f 3/5/5 4/7/7 9/8/8 8/6/6
f 4/7/7 5/9/9 10/10/10 9/8/8
f 5/11/9 1/1/1 6/4/4 10/12/10
s 2
f 2/13/11 1/1/12 11/14/13
f 3/15/14 2/13/11 11/14/13
f 4/16/15 3/15/14 11/14/13
f 5/11/16 4/16/15 11/14/13
f 1/1/12 5/11/16 11/14/13
s 3
f 6/4/17 7/17/18 12/18/19
f 7/17/18 8/19/20 12/18/19
f 8/19/20 9/20/21 12/18/19
f 9/20/21 10/12/22 12/18/19
f 10/12/22 6/4/17 12/18/19
