# This file uses centimeters as units for non-parametric coordinates.

mtllib Cup 6.mtl
g default
v 7.089900 7.510057 -15.014707
v 6.907747 7.510057 -15.119873
v 6.725594 7.510057 -15.014707
v 6.725594 7.510057 -14.804375
v 6.907747 7.510057 -14.699209
v 7.089900 7.510057 -14.804375
v 7.089900 8.648592 -15.014707
v 6.907747 8.648592 -15.119873
v 6.725594 8.648592 -15.014707
v 6.725594 8.648592 -14.804375
v 6.907747 8.648592 -14.699209
v 7.089900 8.648592 -14.804375
v 6.907747 7.510057 -14.909541
vt 0.635316 0.078125
vt 0.500000 0.000000
vt 0.364684 0.078125
vt 0.364684 0.234375
vt 0.500000 0.312500
vt 0.635316 0.234375
vt 0.375000 0.312500
vt 0.416667 0.312500
vt 0.458333 0.312500
vt 0.500000 0.312500
vt 0.541667 0.312500
vt 0.583333 0.312500
vt 0.625000 0.312500
vt 0.375000 0.688440
vt 0.416667 0.688440
vt 0.458333 0.688440
vt 0.500000 0.688440
vt 0.541667 0.688440
vt 0.583333 0.688440
vt 0.625000 0.688440
vt 0.500000 0.150000
vn 0.000000 0.000000 -1.000000
vn 0.866025 0.000000 -0.500000
vn 0.866025 0.000000 -0.500000
vn 0.000000 0.000000 -1.000000
vn -0.866025 0.000000 -0.500000
vn -0.866025 0.000000 -0.500000
vn -0.866025 0.000000 0.500000
vn -0.866025 0.000000 0.500000
vn 0.000000 0.000000 1.000000
vn 0.000000 0.000000 1.000000
vn 0.866025 0.000000 0.500000
vn 0.866025 0.000000 0.500000
vn 0.000000 -1.000000 0.000000
vn 0.000000 -1.000000 0.000000
vn 0.000000 -1.000000 0.000000
vn 0.000000 -1.000000 0.000000
vn 0.000000 -1.000000 0.000000
vn 0.000000 -1.000000 0.000000
vn 0.000000 -1.000000 0.000000
s 1
g Glass_5
usemtl initialShadingGroup
f 8/15/1 7/14/2 1/7/3 2/8/4
f 9/16/5 8/15/1 2/8/4 3/9/6
f 10/17/7 9/16/5 3/9/6 4/10/8
f 11/18/9 10/17/7 4/10/8 5/11/10
f 12/19/11 11/18/9 5/11/10 6/12/12
f 7/20/2 12/19/11 6/12/12 1/13/3
s 2
f 1/1/13 13/21/14 2/2/15
f 2/2/15 13/21/14 3/3/16
f 3/3/16 13/21/14 4/4/17
f 4/4/17 13/21/14 5/5/18
f 5/5/18 13/21/14 6/6/19
f 6/6/19 13/21/14 1/1/13
