# This file uses centimeters as units for non-parametric coordinates.

mtllib Cup 4.mtl
g default
v 7.071628 7.510057 -16.554454
v 6.907747 7.510057 -16.702013
v 6.688431 7.510057 -16.678962
v 6.604660 7.510057 -16.603535
v 6.558810 7.510057 -16.387830
v 6.688431 7.510057 -16.209422
v 6.907747 7.510057 -16.186371
v 7.071628 7.510057 -16.333930
v 6.823095 7.504877 -16.444192
v 7.059226 7.544924 -16.548865
v 6.903651 7.544924 -16.688945
v 6.695451 7.544924 -16.667062
v 6.615926 7.544924 -16.595459
v 6.572400 7.544924 -16.390687
v 6.695451 7.544924 -16.221322
v 6.903651 7.544924 -16.199439
v 7.059226 7.544924 -16.339519
v 6.897676 7.629248 -16.476069
v 6.850299 7.629248 -16.518727
v 6.786896 7.629248 -16.512063
v 6.762678 7.629248 -16.490258
v 6.749423 7.629248 -16.427898
v 6.786896 7.629248 -16.376322
v 6.850299 7.629248 -16.369657
v 6.897676 7.629248 -16.412316
v 6.855976 7.679951 -16.457278
v 6.836527 7.679951 -16.474789
v 6.810500 7.679951 -16.472053
v 6.800558 7.679951 -16.463102
v 6.795118 7.679951 -16.437504
v 6.810500 7.679951 -16.416331
v 6.836527 7.679951 -16.413596
v 6.855976 7.679951 -16.431107
v 6.851385 7.790209 -16.455209
v 6.835012 7.790209 -16.469952
v 6.813099 7.790209 -16.467649
v 6.804728 7.790209 -16.460113
v 6.800148 7.790209 -16.438561
v 6.813099 7.790209 -16.420735
v 6.835012 7.790209 -16.418432
v 6.851385 7.790209 -16.433176
v 6.845677 8.128699 -16.452637
v 6.833126 8.128699 -16.463938
v 6.816329 8.128699 -16.462173
v 6.809914 8.128699 -16.456396
v 6.806402 8.128699 -16.439876
v 6.816329 8.128699 -16.426212
v 6.833126 8.128699 -16.424446
v 6.845677 8.128699 -16.435748
v 6.855342 8.185628 -16.456992
v 6.836318 8.185628 -16.474121
v 6.810858 8.185628 -16.471446
v 6.801134 8.185628 -16.462690
v 6.795811 8.185628 -16.437650
v 6.810858 8.185628 -16.416939
v 6.836318 8.185628 -16.414263
v 6.855342 8.185628 -16.431392
v 6.885328 8.208885 -16.470504
v 6.846220 8.208885 -16.505715
v 6.793885 8.208885 -16.500216
v 6.773896 8.208885 -16.482217
v 6.762953 8.208885 -16.430743
v 6.793885 8.208885 -16.388169
v 6.846220 8.208885 -16.382668
v 6.885328 8.208885 -16.417880
v 6.948605 8.241194 -16.499018
v 6.867117 8.241194 -16.572387
v 6.758066 8.241194 -16.560928
v 6.716415 8.241194 -16.523423
v 6.693615 8.241194 -16.416168
v 6.758066 8.241194 -16.327457
v 6.867117 8.241194 -16.315994
v 6.948605 8.241194 -16.389366
v 7.001925 8.305230 -16.523044
v 6.884726 8.305230 -16.628567
v 6.727883 8.305230 -16.612087
v 6.667980 8.305230 -16.558145
v 6.635187 8.305230 -16.403887
v 6.727883 8.305230 -16.276299
v 6.884726 8.305230 -16.259812
v 7.001925 8.305230 -16.365339
v 7.016016 8.422518 -16.529394
v 6.889379 8.422518 -16.643413
v 6.719907 8.422518 -16.625606
v 6.655180 8.422518 -16.567321
v 6.619747 8.422518 -16.400641
v 6.719907 8.422518 -16.262780
v 6.889379 8.422518 -16.244966
v 7.016016 8.422518 -16.358990
v 7.003293 8.557167 -16.523661
v 6.885178 8.557167 -16.630008
v 6.727109 8.557167 -16.613399
v 6.666738 8.557167 -16.559036
v 6.633689 8.557167 -16.403572
v 6.727109 8.557167 -16.274987
v 6.885178 8.557167 -16.258372
v 7.003293 8.557167 -16.364723
v 6.969278 8.745810 -16.508333
v 6.873945 8.745810 -16.594168
v 6.746364 8.745810 -16.580763
v 6.697636 8.745810 -16.536885
v 6.670962 8.745810 -16.411406
v 6.746364 8.745810 -16.307622
v 6.873945 8.745810 -16.294212
v 6.969278 8.745810 -16.380051
v 6.944760 8.861361 -16.497285
v 6.865847 8.861361 -16.568335
v 6.760243 8.861361 -16.557238
v 6.719909 8.861361 -16.520919
v 6.697829 8.861361 -16.417054
v 6.760243 8.861361 -16.331147
v 6.865847 8.861361 -16.320046
v 6.944760 8.861361 -16.391099
vt 0.642741 0.092697
vt 0.548284 0.007647
vt 0.421875 0.020934
vt 0.373591 0.064409
vt 0.347164 0.188736
vt 0.421875 0.291566
vt 0.548284 0.304853
vt 0.642741 0.219803
vt 0.375000 0.312500
vt 0.408333 0.312500
vt 0.441667 0.312500
vt 0.458333 0.312500
vt 0.491667 0.312500
vt 0.525000 0.312500
vt 0.558333 0.312500
vt 0.591667 0.312500
vt 0.625000 0.312500
vt 0.500000 0.150000
vt 0.642741 0.907303
vt 0.548284 0.992353
vt 0.421875 0.979066
vt 0.373591 0.935591
vt 0.347164 0.811264
vt 0.421875 0.708434
vt 0.548284 0.695147
vt 0.642741 0.780197
vt 0.642741 0.907303
vt 0.548284 0.992353
vt 0.421875 0.979066
vt 0.373591 0.935591
vt 0.347164 0.811264
vt 0.421875 0.708434
vt 0.548284 0.695147
vt 0.642741 0.780197
vt 0.642741 0.907303
vt 0.548284 0.992353
vt 0.421875 0.979066
vt 0.373591 0.935591
vt 0.347164 0.811264
vt 0.421875 0.708434
vt 0.548284 0.695147
vt 0.642741 0.780197
vt 0.642741 0.907303
vt 0.548284 0.992353
vt 0.421875 0.979066
vt 0.373591 0.935591
vt 0.347164 0.811264
vt 0.421875 0.708434
vt 0.548284 0.695147
vt 0.642741 0.780197
vt 0.642741 0.907303
vt 0.548284 0.992353
vt 0.421875 0.979066
vt 0.373591 0.935591
vt 0.347164 0.811264
vt 0.421875 0.708434
vt 0.548284 0.695147
vt 0.642741 0.780197
vt 0.642741 0.907303
vt 0.548284 0.992353
vt 0.421875 0.979066
vt 0.373591 0.935591
vt 0.347164 0.811264
vt 0.421875 0.708434
vt 0.548284 0.695147
vt 0.642741 0.780197
vt 0.642741 0.907303
vt 0.548284 0.992353
vt 0.421875 0.979066
vt 0.373591 0.935591
vt 0.347164 0.811264
vt 0.421875 0.708434
vt 0.548284 0.695147
vt 0.642741 0.780197
vt 0.642741 0.907303
vt 0.548284 0.992353
vt 0.421875 0.979066
vt 0.373591 0.935591
vt 0.347164 0.811264
vt 0.421875 0.708434
vt 0.548284 0.695147
vt 0.642741 0.780197
vt 0.642741 0.907303
vt 0.548284 0.992353
vt 0.421875 0.979066
vt 0.373591 0.935591
vt 0.347164 0.811264
vt 0.421875 0.708434
vt 0.548284 0.695147
vt 0.642741 0.780197
vt 0.642741 0.907303
vt 0.548284 0.992353
vt 0.421875 0.979066
vt 0.373591 0.935591
vt 0.347164 0.811264
vt 0.421875 0.708434
vt 0.548284 0.695147
vt 0.642741 0.780197
vt 0.642741 0.907303
vt 0.548284 0.992353
vt 0.421875 0.979066
vt 0.373591 0.935591
vt 0.347164 0.811264
vt 0.421875 0.708434
vt 0.548284 0.695147
vt 0.642741 0.780197
vt 0.642741 0.907303
vt 0.548284 0.992353
vt 0.421875 0.979066
vt 0.373591 0.935591
vt 0.347164 0.811264
vt 0.421875 0.708434
vt 0.548284 0.695147
vt 0.642741 0.780197
vt 0.642741 0.907303
vt 0.548284 0.992353
vt 0.421875 0.979066
vt 0.373591 0.935591
vt 0.347164 0.811264
vt 0.421875 0.708434
vt 0.548284 0.695147
vt 0.642741 0.780197
vn 0.017404 -0.999819 -0.007738
vn 0.000459 -1.000000 0.000547
vn 0.005919 -0.999818 -0.018143
vn -0.006455 -0.999811 -0.018355
vn -0.017600 -0.999810 -0.008373
vn -0.018744 -0.999816 0.003989
vn -0.009549 -0.999817 0.016581
vn 0.005919 -0.999818 0.018143
vn 0.017404 -0.999819 0.007738
vn 0.286650 0.365573 -0.885544
vn 0.288435 0.365566 -0.884967
vn 0.851215 0.363461 -0.378587
vn 0.850888 0.363462 -0.379322
vn -0.295233 0.361305 -0.884475
vn -0.282221 0.360274 -0.889131
vn -0.848482 0.363303 -0.384824
vn -0.853636 0.362474 -0.374057
vn -0.908767 0.370024 0.192936
vn -0.908682 0.370024 0.193335
vn -0.465645 0.368377 0.804657
vn -0.464173 0.368372 0.805510
vn 0.286650 0.365572 0.885544
vn 0.288435 0.365566 0.884967
vn 0.850888 0.363462 0.379322
vn 0.851216 0.363460 0.378587
vn 0.130662 0.904074 -0.406912
vn 0.140282 0.892154 -0.429399
vn 0.415007 0.890929 -0.184431
vn 0.392299 0.902967 -0.175361
vn -0.142790 0.902351 -0.406661
vn -0.136961 0.888029 -0.438916
vn -0.388302 0.903306 -0.182375
vn -0.419569 0.889341 -0.181752
vn -0.413339 0.906360 0.087535
vn -0.436859 0.894708 0.093016
vn -0.213296 0.905522 0.366790
vn -0.223702 0.893767 0.388764
vn 0.130662 0.904074 0.406911
vn 0.140281 0.892154 0.429398
vn 0.392299 0.902967 0.175361
vn 0.415008 0.890929 0.184430
vn 0.279057 0.433870 -0.856670
vn 0.824266 0.431438 -0.366670
vn -0.275146 0.423843 -0.862932
vn -0.828207 0.426078 -0.364047
vn -0.878802 0.439040 0.186952
vn -0.449173 0.437121 0.779211
vn 0.279059 0.433872 0.856669
vn 0.824269 0.431435 0.366666
vn 0.913228 0.026389 -0.406593
vn 0.308911 0.026565 -0.950720
vn -0.308896 0.026148 -0.950736
vn -0.913226 0.026323 -0.406603
vn -0.977792 0.026940 0.207840
vn -0.499820 0.026800 0.865715
vn 0.308910 0.026565 0.950720
vn 0.913231 0.026388 0.406588
vn 0.309102 -0.014490 -0.950919
vn 0.913472 -0.014387 -0.406647
vn -0.308133 -0.014088 -0.951239
vn -0.913760 -0.014177 -0.406007
vn -0.978037 -0.014711 0.207914
vn -0.499853 -0.014629 0.865987
vn 0.309099 -0.014491 0.950920
vn 0.913475 -0.014387 0.406641
vn 0.242632 -0.621352 -0.745018
vn 0.717783 -0.618720 -0.319332
vn -0.241334 -0.609381 -0.755257
vn -0.724004 -0.611749 -0.318718
vn -0.762024 -0.626936 0.162080
vn -0.389952 -0.624874 0.676366
vn 0.242625 -0.621365 0.745009
vn 0.717785 -0.618721 0.319327
vn 0.137089 -0.897021 -0.420190
vn 0.406035 -0.895848 -0.180531
vn -0.135216 -0.893190 -0.428868
vn -0.409916 -0.894423 -0.178817
vn -0.427398 -0.899477 0.090954
vn -0.218999 -0.898575 0.380266
vn 0.137084 -0.897026 0.420181
vn 0.406036 -0.895849 0.180527
vn 0.609411 -0.745069 -0.271092
vn 0.205858 -0.747216 -0.631895
vn -0.202217 -0.745722 -0.634829
vn -0.607430 -0.748222 -0.266818
vn -0.645044 -0.751726 0.137210
vn -0.330283 -0.750066 0.572987
vn 0.205852 -0.747222 0.631889
vn 0.609412 -0.745070 0.271087
vn 0.865862 -0.318653 -0.385672
vn 0.292409 -0.320432 -0.901011
vn -0.294854 -0.321414 -0.899863
vn -0.863580 -0.323545 -0.386716
vn -0.925335 -0.324201 0.196595
vn -0.473500 -0.322807 0.819508
vn 0.292404 -0.320436 0.901011
vn 0.865864 -0.318654 0.385667
vn 0.913472 -0.005303 -0.406866
vn 0.308705 -0.005335 -0.951143
vn -0.311279 -0.005328 -0.950304
vn -0.912688 -0.005366 -0.408621
vn -0.978152 -0.005404 0.207822
vn -0.500258 -0.005378 0.865860
vn 0.308700 -0.005335 0.951145
vn 0.913475 -0.005303 0.406861
vn 0.902926 0.151802 -0.402096
vn 0.305234 0.152778 -0.939942
vn -0.306627 0.150846 -0.939801
vn -0.902525 0.151837 -0.402981
vn -0.966359 0.154860 0.205351
vn -0.494167 0.154089 0.855602
vn 0.305228 0.152781 0.939943
vn 0.902928 0.151802 0.402090
vn 0.894318 0.204196 -0.398120
vn 0.302559 0.205492 -0.930716
vn -0.301597 0.202591 -0.931663
vn -0.894722 0.203908 -0.397358
vn -0.956697 0.208261 0.203366
vn -0.489042 0.207235 0.847285
vn 0.302553 0.205496 0.930716
vn 0.894320 0.204196 0.398114
vn 0.301413 0.228104 -0.925807
vn 0.889861 0.226675 -0.395936
vn -0.297067 0.224622 -0.928061
vn -0.891378 0.226095 -0.392844
vn -0.951634 0.231158 0.202385
vn -0.486153 0.230026 0.843056
vn 0.301407 0.228109 0.925808
vn 0.889864 0.226675 0.395930
s 1
g Glass_3
usemtl initialShadingGroup
f 1/1/1 9/18/2 2/2/3
f 2/2/3 9/18/2 3/3/4
f 4/4/5 3/3/4 9/18/2
f 4/4/5 9/18/2 5/5/6
f 5/5/6 9/18/2 6/6/7
f 6/6/7 9/18/2 7/7/8
f 7/7/8 9/18/2 8/8/9
f 8/8/9 9/18/2 1/1/1
s 2
f 2/10/10 11/20/11 10/19/12 1/9/13
f 3/11/14 12/21/15 11/20/11 2/10/10
f 4/12/16 13/22/17 12/21/15 3/11/14
f 5/13/18 14/23/19 13/22/17 4/12/16
f 6/14/20 15/24/21 14/23/19 5/13/18
f 7/15/22 16/25/23 15/24/21 6/14/20
f 8/16/24 17/26/25 16/25/23 7/15/22
f 1/17/13 10/19/12 17/26/25 8/16/24
s 3
f 11/20/26 19/28/27 18/27/28 10/19/29
f 12/21/30 20/29/31 19/28/27 11/20/26
f 13/22/32 21/30/33 20/29/31 12/21/30
f 14/23/34 22/31/35 21/30/33 13/22/32
f 15/24/36 23/32/37 22/31/35 14/23/34
f 16/25/38 24/33/39 23/32/37 15/24/36
f 17/26/40 25/34/41 24/33/39 16/25/38
f 10/19/29 18/27/28 25/34/41 17/26/40
f 19/28/27 27/36/42 26/35/43 18/27/28
f 20/29/31 28/37/44 27/36/42 19/28/27
f 21/30/33 29/38/45 28/37/44 20/29/31
f 22/31/35 30/39/46 29/38/45 21/30/33
f 23/32/37 31/40/47 30/39/46 22/31/35
f 24/33/39 32/41/48 31/40/47 23/32/37
f 25/34/41 33/42/49 32/41/48 24/33/39
f 18/27/28 26/35/43 33/42/49 25/34/41
f 34/43/50 26/35/43 27/36/42 35/44/51
f 35/44/51 27/36/42 28/37/44 36/45/52
f 28/37/44 29/38/45 37/46/53 36/45/52
f 37/46/53 29/38/45 30/39/46 38/47/54
f 38/47/54 30/39/46 31/40/47 39/48/55
f 39/48/55 31/40/47 32/41/48 40/49/56
f 40/49/56 32/41/48 33/42/49 41/50/57
f 41/50/57 33/42/49 26/35/43 34/43/50
f 35/44/51 43/52/58 42/51/59 34/43/50
f 36/45/52 44/53/60 43/52/58 35/44/51
f 37/46/53 45/54/61 44/53/60 36/45/52
f 38/47/54 46/55/62 45/54/61 37/46/53
f 39/48/55 47/56/63 46/55/62 38/47/54
f 40/49/56 48/57/64 47/56/63 39/48/55
f 41/50/57 49/58/65 48/57/64 40/49/56
f 34/43/50 42/51/59 49/58/65 41/50/57
f 43/52/58 51/60/66 50/59/67 42/51/59
f 44/53/60 52/61/68 51/60/66 43/52/58
f 45/54/61 53/62/69 52/61/68 44/53/60
f 46/55/62 54/63/70 53/62/69 45/54/61
f 47/56/63 55/64/71 54/63/70 46/55/62
f 48/57/64 56/65/72 55/64/71 47/56/63
f 49/58/65 57/66/73 56/65/72 48/57/64
f 42/51/59 50/59/67 57/66/73 49/58/65
f 51/60/66 59/68/74 58/67/75 50/59/67
f 52/61/68 60/69/76 59/68/74 51/60/66
f 53/62/69 61/70/77 60/69/76 52/61/68
f 54/63/70 62/71/78 61/70/77 53/62/69
f 55/64/71 63/72/79 62/71/78 54/63/70
f 56/65/72 64/73/80 63/72/79 55/64/71
f 57/66/73 65/74/81 64/73/80 56/65/72
f 50/59/67 58/67/75 65/74/81 57/66/73
f 66/75/82 58/67/75 59/68/74 67/76/83
f 67/76/83 59/68/74 60/69/76 68/77/84
f 60/69/76 61/70/77 69/78/85 68/77/84
f 69/78/85 61/70/77 62/71/78 70/79/86
f 70/79/86 62/71/78 63/72/79 71/80/87
f 71/80/87 63/72/79 64/73/80 72/81/88
f 72/81/88 64/73/80 65/74/81 73/82/89
f 73/82/89 65/74/81 58/67/75 66/75/82
f 74/83/90 66/75/82 67/76/83 75/84/91
f 75/84/91 67/76/83 68/77/84 76/85/92
f 68/77/84 69/78/85 77/86/93 76/85/92
f 77/86/93 69/78/85 70/79/86 78/87/94
f 78/87/94 70/79/86 71/80/87 79/88/95
f 79/88/95 71/80/87 72/81/88 80/89/96
f 80/89/96 72/81/88 73/82/89 81/90/97
f 81/90/97 73/82/89 66/75/82 74/83/90
f 82/91/98 74/83/90 75/84/91 83/92/99
f 83/92/99 75/84/91 76/85/92 84/93/100
f 76/85/92 77/86/93 85/94/101 84/93/100
f 85/94/101 77/86/93 78/87/94 86/95/102
f 86/95/102 78/87/94 79/88/95 87/96/103
f 87/96/103 79/88/95 80/89/96 88/97/104
f 88/97/104 80/89/96 81/90/97 89/98/105
f 89/98/105 81/90/97 74/83/90 82/91/98
f 90/99/106 82/91/98 83/92/99 91/100/107
f 91/100/107 83/92/99 84/93/100 92/101/108
f 84/93/100 85/94/101 93/102/109 92/101/108
f 93/102/109 85/94/101 86/95/102 94/103/110
f 94/103/110 86/95/102 87/96/103 95/104/111
f 95/104/111 87/96/103 88/97/104 96/105/112
f 96/105/112 88/97/104 89/98/105 97/106/113
f 97/106/113 89/98/105 82/91/98 90/99/106
f 98/107/114 90/99/106 91/100/107 99/108/115
f 99/108/115 91/100/107 92/101/108 100/109/116
f 92/101/108 93/102/109 101/110/117 100/109/116
f 101/110/117 93/102/109 94/103/110 102/111/118
f 102/111/118 94/103/110 95/104/111 103/112/119
f 103/112/119 95/104/111 96/105/112 104/113/120
f 104/113/120 96/105/112 97/106/113 105/114/121
f 105/114/121 97/106/113 90/99/106 98/107/114
f 107/116/122 106/115/123 98/107/114 99/108/115
f 108/117/124 107/116/122 99/108/115 100/109/116
f 100/109/116 101/110/117 109/118/125 108/117/124
f 110/119/126 109/118/125 101/110/117 102/111/118
f 111/120/127 110/119/126 102/111/118 103/112/119
f 112/121/128 111/120/127 103/112/119 104/113/120
f 113/122/129 112/121/128 104/113/120 105/114/121
f 106/115/123 113/122/129 105/114/121 98/107/114
