# This file uses centimeters as units for non-parametric coordinates.

mtllib Beer Bottle.mtl
g default
v 8.424689 9.685973 -14.384761
v 8.226378 9.685973 -14.320325
v 8.226378 9.685973 -14.111809
v 8.424689 9.685973 -14.047372
v 8.547251 9.685973 -14.216068
v 8.389538 10.993221 -14.276575
v 8.318404 10.993221 -14.253465
v 8.318404 10.993221 -14.178671
v 8.389538 10.993221 -14.155558
v 8.433499 10.993221 -14.216068
v 8.369878 9.688555 -14.216068
v 8.217014 9.813486 -14.327127
v 8.428264 9.813486 -14.395768
v 8.558829 9.813486 -14.216068
v 8.428264 9.813486 -14.036366
v 8.217014 9.813486 -14.105005
v 8.209347 10.486286 -14.332700
v 8.431195 10.486286 -14.404782
v 8.568304 10.486286 -14.216068
v 8.431195 10.486286 -14.027352
v 8.209347 10.486286 -14.099434
v 8.293899 10.564371 -14.271268
v 8.398899 10.564371 -14.305383
v 8.463788 10.564371 -14.216068
v 8.398899 10.564371 -14.126752
v 8.293899 10.564371 -14.160867
v 8.225948 9.829362 -14.320638
v 8.424854 9.829362 -14.385267
v 8.547784 9.829362 -14.216068
v 8.424854 9.829362 -14.046867
v 8.225948 9.829362 -14.111496
v 8.391827 11.003125 -14.283622
v 8.312412 11.003125 -14.257818
v 8.312412 11.003125 -14.174313
v 8.391827 11.003125 -14.148507
v 8.440905 11.003125 -14.216068
v 8.388913 11.012553 -14.274653
v 8.320039 11.012553 -14.252275
v 8.320039 11.012553 -14.179855
v 8.388913 11.012553 -14.157473
v 8.431477 11.012553 -14.216066
v 8.388913 11.030133 -14.274653
v 8.320039 11.030133 -14.252275
v 8.320039 11.030133 -14.179855
v 8.388913 11.030133 -14.157473
v 8.431477 11.030133 -14.216066
v 8.386421 11.030133 -14.266985
v 8.326562 11.030133 -14.247536
v 8.326562 11.030133 -14.184594
v 8.386421 11.030133 -14.165142
v 8.423414 11.030133 -14.216066
vt 0.548284 0.007647
vt 0.373591 0.064409
vt 0.373591 0.248091
vt 0.548284 0.304853
vt 0.656250 0.156250
vt 0.412500 0.312500
vt 0.462500 0.312500
vt 0.512500 0.312500
vt 0.562500 0.312500
vt 0.612500 0.312500
vt 0.412500 0.688440
vt 0.462500 0.688440
vt 0.512500 0.688440
vt 0.562500 0.688440
vt 0.612500 0.688440
vt 0.500000 0.150000
vt 0.462500 0.336850
vt 0.412500 0.336850
vt 0.612500 0.336850
vt 0.562500 0.336850
vt 0.512500 0.336850
vt 0.462500 0.664123
vt 0.412500 0.664123
vt 0.612500 0.664123
vt 0.562500 0.664123
vt 0.512500 0.664123
vt 0.462500 0.673112
vt 0.412500 0.673112
vt 0.612500 0.673112
vt 0.562500 0.673112
vt 0.512500 0.673112
vt 0.462500 0.345609
vt 0.412500 0.345609
vt 0.612500 0.345609
vt 0.562500 0.345609
vt 0.512500 0.345609
vt 1.000000 0.000000
vt 0.000000 0.000000
vt 1.000000 0.000000
vt 0.000000 0.000000
vt 1.000000 0.000000
vt 0.000000 0.000000
vt 1.000000 0.000000
vt 0.000000 0.000000
vt 1.000000 0.000000
vt 0.000000 0.000000
vt 1.000000 1.000000
vt 0.000000 1.000000
vt 1.000000 1.000000
vt 0.000000 1.000000
vt 1.000000 1.000000
vt 0.000000 1.000000
vt 1.000000 1.000000
vt 0.000000 1.000000
vt 1.000000 1.000000
vt 0.000000 1.000000
vt 1.000000 0.000000
vt 1.000000 1.000000
vt 0.000000 0.000000
vt 0.000000 1.000000
vt 1.000000 0.000000
vt 1.000000 1.000000
vt 0.000000 0.000000
vt 0.000000 1.000000
vt 1.000000 0.000000
vt 1.000000 1.000000
vt 0.000000 0.000000
vt 0.000000 1.000000
vt 1.000000 0.000000
vt 1.000000 1.000000
vt 0.000000 0.000000
vt 0.000000 1.000000
vt 1.000000 0.000000
vt 1.000000 1.000000
vt 0.000000 0.000000
vt 0.000000 1.000000
vt 1.000000 0.000000
vt 1.000000 1.000000
vt 0.000000 0.000000
vt 0.000000 1.000000
vt 1.000000 0.000000
vt 1.000000 1.000000
vt 0.000000 0.000000
vt 0.000000 1.000000
vt 1.000000 0.000000
vt 1.000000 1.000000
vt 0.000000 0.000000
vt 0.000000 1.000000
vt 1.000000 0.000000
vt 1.000000 1.000000
vt 0.000000 0.000000
vt 0.000000 1.000000
vt 1.000000 0.000000
vt 1.000000 1.000000
vt 0.000000 0.000000
vt 0.000000 1.000000
vt 1.000000 0.000000
vt 1.000000 1.000000
vt 0.000000 0.000000
vt 0.000000 1.000000
vt 1.000000 0.000000
vt 1.000000 1.000000
vt 0.000000 0.000000
vt 0.000000 1.000000
vt 1.000000 0.000000
vt 1.000000 1.000000
vt 0.000000 0.000000
vt 0.000000 1.000000
vt 1.000000 0.000000
vt 1.000000 1.000000
vt 0.000000 0.000000
vt 0.000000 1.000000
vt 1.000000 0.000000
vt 1.000000 1.000000
vt 0.000000 0.000000
vt 0.000000 1.000000
vn -0.808748 -0.026363 -0.587565
vn 0.308884 -0.026367 -0.950734
vn 0.307758 -0.090400 -0.947160
vn -0.805700 -0.090401 -0.585384
vn -0.808736 -0.026361 0.587581
vn -0.805707 -0.090401 0.585374
vn 0.308895 -0.026363 0.950731
vn 0.307762 -0.090398 0.947159
vn 0.999652 -0.026369 0.000000
vn 0.995905 -0.090401 -0.000000
vn -0.004498 -0.999894 0.013845
vn -0.000000 -1.000000 -0.000000
vn 0.011777 -0.999894 0.008556
vn 0.011777 -0.999894 -0.008556
vn -0.004498 -0.999894 -0.013845
vn -0.014557 -0.999894 -0.000000
vn -0.664128 0.571027 -0.482557
vn 0.253728 0.570988 -0.780766
vn 0.820959 0.570987 -0.000000
vn 0.253730 0.571008 0.780750
vn -0.664136 0.571048 0.482523
vn -0.724611 0.444715 0.526467
vn -0.724609 0.444717 -0.526468
vn -0.808208 0.044697 -0.587198
vn -0.808208 0.044697 0.587198
vn 0.276778 0.444721 -0.851832
vn 0.308707 0.044698 -0.950106
vn 0.895670 0.444720 -0.000000
vn 0.999000 0.044698 -0.000000
vn 0.276785 0.444722 0.851829
vn 0.308712 0.044698 0.950105
vn -0.806995 0.070454 -0.586340
vn -0.807003 0.070454 0.586330
vn 0.308249 0.070454 -0.948693
vn 0.997515 0.070455 -0.000001
vn 0.308253 0.070454 0.948692
vn -0.808624 -0.031221 -0.587497
vn -0.808624 -0.031221 0.587497
vn 0.308864 -0.031221 -0.950594
vn 0.999513 -0.031220 0.000000
vn 0.308869 -0.031221 0.950592
vn 0.307828 0.086090 -0.947539
vn 0.247491 -0.598933 -0.761595
vn -0.647868 -0.598902 -0.470726
vn -0.806012 0.086057 -0.585610
vn -0.647881 -0.599043 0.470529
vn -0.805904 0.085902 0.585780
vn 0.247495 -0.599129 0.761440
vn 0.307819 0.085859 0.947563
vn 0.800781 -0.598957 -0.000009
vn 0.996295 0.085997 -0.000037
vn 0.218493 0.707193 -0.672413
vn -0.572042 0.707152 -0.415576
vn -0.572072 0.707127 0.415579
vn 0.218513 0.707145 0.672456
vn 0.707072 0.707142 0.000034
vn 0.299285 0.249072 -0.921082
vn 0.309024 0.000000 -0.951054
vn -0.809020 0.000000 -0.587781
vn -0.783525 0.249066 -0.569259
vn -0.809031 0.000000 0.587766
vn -0.783537 0.249063 0.569243
vn 0.309039 0.000000 0.951049
vn 0.299300 0.249060 0.921080
vn 1.000000 0.000000 0.000000
vn 0.968485 0.249072 0.000000
vn 0.000000 1.000000 -0.000002
vn 0.000000 1.000000 -0.000004
vn 0.000000 1.000000 -0.000002
vn 0.000000 1.000000 0.000000
vn 0.000000 1.000000 0.000000
s 1
g Beer_Bottle
usemtl initialShadingGroup
f 12/17/1 13/18/2 1/6/3 2/7/4
f 16/21/5 12/17/1 2/7/4 3/8/6
f 15/20/7 16/21/5 3/8/6 4/9/8
f 14/19/9 15/20/7 4/9/8 5/10/10
f 13/18/2 14/19/9 5/10/10 1/6/3
s 2
f 1/1/11 11/16/12 2/2/13
f 2/2/13 11/16/12 3/3/14
f 3/3/14 11/16/12 4/4/15
f 4/4/15 11/16/12 5/5/16
f 1/1/11 5/5/16 11/16/12
s 1
f 27/32/17 28/33/18 13/18/2 12/17/1
f 28/33/18 29/34/19 14/19/9 13/18/2
f 29/34/19 30/35/20 15/20/7 14/19/9
f 30/35/20 31/36/21 16/21/5 15/20/7
f 27/32/17 12/17/1 16/21/5 31/36/21
s 3
f 26/31/22 22/27/23 17/22/24 21/26/25
f 22/27/23 23/28/26 18/23/27 17/22/24
f 23/28/26 24/29/28 19/24/29 18/23/27
f 24/29/28 25/30/30 20/25/31 19/24/29
f 25/30/30 26/31/22 21/26/25 20/25/31
f 7/12/32 22/27/23 26/31/22 8/13/33
f 6/11/34 23/28/26 22/27/23 7/12/32
f 6/11/34 10/15/35 24/29/28 23/28/26
f 9/14/36 25/30/30 24/29/28 10/15/35
f 8/13/33 26/31/22 25/30/30 9/14/36
f 21/26/25 17/22/24 27/32/37 31/36/38
f 17/22/24 18/23/27 28/33/39 27/32/37
f 18/23/27 19/24/29 29/34/40 28/33/39
f 19/24/29 20/25/31 30/35/41 29/34/40
f 20/25/31 21/26/25 31/36/38 30/35/41
s 4
f 32/48/42 6/38/43 7/39/44 33/49/45
f 33/50/45 7/40/44 8/41/46 34/51/47
f 34/52/47 8/42/46 9/43/48 35/53/49
f 35/54/49 9/44/48 10/45/50 36/55/51
f 32/47/42 36/56/51 10/46/50 6/37/43
f 37/60/52 32/59/42 33/61/45 38/62/53
f 38/64/53 33/63/45 34/65/47 39/66/54
f 39/68/54 34/67/47 35/69/49 40/70/55
f 40/72/55 35/71/49 36/73/51 41/74/56
f 37/58/52 41/76/56 36/75/51 32/57/42
s 5
f 42/80/57 37/79/58 38/81/59 43/82/60
f 43/84/60 38/83/59 39/85/61 44/86/62
f 44/88/62 39/87/61 40/89/63 45/90/64
f 45/92/64 40/91/63 41/93/65 46/94/66
f 42/78/57 46/96/66 41/95/65 37/77/58
f 48/102/67 47/100/68 42/99/57 43/101/60
f 49/106/69 48/104/67 43/103/60 44/105/62
f 50/110/70 49/108/69 44/107/62 45/109/64
f 51/114/71 50/112/70 45/111/64 46/113/66
f 47/98/68 51/116/71 46/115/66 42/97/57
