# This file uses centimeters as units for non-parametric coordinates.

mtllib Coctail Mixer Cover.mtl
g default
v 8.352853 10.598949 -19.418445
v 8.560344 10.598949 -19.485863
v 8.688582 10.598949 -19.309359
v 8.560344 10.598949 -19.132857
v 8.352853 10.598949 -19.200275
v 8.352853 10.611854 -19.418445
v 8.560344 10.611854 -19.485863
v 8.688582 10.611854 -19.309359
v 8.560344 10.611854 -19.132857
v 8.352853 10.611854 -19.200275
v 8.344200 10.611854 -19.424731
v 8.563649 10.611854 -19.496035
v 8.699277 10.611854 -19.309359
v 8.563649 10.611854 -19.122685
v 8.344200 10.611854 -19.193988
v 8.344200 10.682236 -19.424731
v 8.563649 10.682236 -19.496035
v 8.699277 10.682236 -19.309359
v 8.563649 10.682236 -19.122685
v 8.344200 10.682236 -19.193988
v 8.356970 10.699956 -19.415454
v 8.558771 10.699956 -19.481025
v 8.683493 10.699956 -19.309359
v 8.558771 10.699956 -19.137698
v 8.356970 10.699956 -19.203266
v 8.440746 10.710511 -19.354587
v 8.526772 10.710511 -19.382539
v 8.579939 10.710511 -19.309360
v 8.526772 10.710511 -19.236183
v 8.440746 10.710511 -19.264134
v 8.440746 10.729256 -19.354587
v 8.526772 10.729256 -19.382539
v 8.579939 10.729256 -19.309360
v 8.526772 10.729256 -19.236183
v 8.440746 10.729256 -19.264134
v 8.450519 10.729256 -19.347487
v 8.523038 10.729256 -19.371051
v 8.567859 10.729256 -19.309361
v 8.523038 10.729256 -19.247672
v 8.450519 10.729256 -19.271236
v 8.450519 10.740508 -19.347487
v 8.523038 10.740508 -19.371051
v 8.567859 10.740508 -19.309361
v 8.523038 10.740508 -19.247672
v 8.450519 10.740508 -19.271236
v 8.443408 10.745076 -19.352654
v 8.525755 10.745076 -19.379411
v 8.576648 10.745076 -19.309361
v 8.525755 10.745076 -19.239313
v 8.443408 10.745076 -19.266069
v 8.443408 10.814575 -19.352654
v 8.525755 10.814575 -19.379411
v 8.576648 10.814575 -19.309361
v 8.525755 10.814575 -19.239313
v 8.443408 10.814575 -19.266069
v 8.502994 10.826350 -19.309362
vt 0.000000 0.000000
vt 0.000000 1.000000
vt 1.000000 0.000000
vt 1.000000 1.000000
vt 0.000000 0.000000
vt 0.000000 1.000000
vt 1.000000 0.000000
vt 1.000000 1.000000
vt 0.000000 0.000000
vt 0.000000 1.000000
vt 1.000000 0.000000
vt 1.000000 1.000000
vt 0.000000 0.000000
vt 0.000000 1.000000
vt 1.000000 0.000000
vt 1.000000 1.000000
vt 0.000000 0.000000
vt 0.000000 1.000000
vt 1.000000 0.000000
vt 1.000000 1.000000
vt 0.000000 0.000000
vt 0.000000 1.000000
vt 1.000000 0.000000
vt 1.000000 1.000000
vt 0.000000 0.000000
vt 0.000000 1.000000
vt 1.000000 0.000000
vt 1.000000 1.000000
vt 0.000000 0.000000
vt 0.000000 1.000000
vt 1.000000 0.000000
vt 1.000000 1.000000
vt 0.000000 0.000000
vt 0.000000 1.000000
vt 1.000000 0.000000
vt 1.000000 1.000000
vt 0.000000 0.000000
vt 0.000000 1.000000
vt 1.000000 0.000000
vt 1.000000 1.000000
vt 0.000000 0.000000
vt 0.000000 1.000000
vt 1.000000 0.000000
vt 1.000000 1.000000
vt 0.000000 0.000000
vt 0.000000 1.000000
vt 1.000000 0.000000
vt 1.000000 1.000000
vt 0.000000 0.000000
vt 0.000000 1.000000
vt 1.000000 0.000000
vt 1.000000 1.000000
vt 0.000000 0.000000
vt 0.000000 1.000000
vt 1.000000 0.000000
vt 1.000000 1.000000
vt 0.000000 0.000000
vt 0.000000 1.000000
vt 1.000000 0.000000
vt 1.000000 1.000000
vt 0.000000 0.000000
vt 0.000000 1.000000
vt 1.000000 0.000000
vt 1.000000 1.000000
vt 0.000000 0.000000
vt 0.000000 1.000000
vt 1.000000 0.000000
vt 1.000000 1.000000
vt 0.000000 0.000000
vt 0.000000 1.000000
vt 1.000000 0.000000
vt 1.000000 1.000000
vt 0.000000 0.000000
vt 0.000000 1.000000
vt 1.000000 0.000000
vt 1.000000 1.000000
vt 0.000000 0.000000
vt 0.000000 1.000000
vt 1.000000 0.000000
vt 1.000000 1.000000
vt 0.000000 0.000000
vt 0.000000 1.000000
vt 1.000000 0.000000
vt 1.000000 1.000000
vt 0.000000 0.000000
vt 0.000000 1.000000
vt 1.000000 0.000000
vt 1.000000 1.000000
vt 0.000000 0.000000
vt 0.000000 1.000000
vt 1.000000 0.000000
vt 1.000000 1.000000
vt 0.000000 0.000000
vt 0.000000 1.000000
vt 1.000000 0.000000
vt 1.000000 1.000000
vt 0.000000 0.000000
vt 0.000000 1.000000
vt 1.000000 0.000000
vt 1.000000 1.000000
vt 0.000000 0.000000
vt 1.000000 0.000000
vt 0.000000 0.000000
vt 1.000000 0.000000
vt 0.000000 0.000000
vt 1.000000 0.000000
vt 0.000000 0.000000
vt 1.000000 0.000000
vt 0.000000 0.000000
vt 1.000000 0.000000
vt 0.000000 1.000000
vt 1.000000 1.000000
vt 0.000000 1.000000
vt 1.000000 1.000000
vt 0.000000 1.000000
vt 1.000000 1.000000
vt 0.000000 1.000000
vt 1.000000 1.000000
vt 0.000000 1.000000
vt 1.000000 1.000000
vt 0.000000 0.000000
vt 0.000000 1.000000
vt 1.000000 0.000000
vt 1.000000 1.000000
vt 0.000000 0.000000
vt 0.000000 1.000000
vt 1.000000 0.000000
vt 1.000000 1.000000
vt 0.000000 0.000000
vt 0.000000 1.000000
vt 1.000000 0.000000
vt 1.000000 1.000000
vt 0.000000 0.000000
vt 0.000000 1.000000
vt 1.000000 0.000000
vt 1.000000 1.000000
vt 0.000000 0.000000
vt 0.000000 1.000000
vt 1.000000 0.000000
vt 1.000000 1.000000
vt 0.000000 0.000000
vt 0.000000 1.000000
vt 1.000000 0.000000
vt 1.000000 1.000000
vt 0.000000 0.000000
vt 0.000000 1.000000
vt 1.000000 0.000000
vt 1.000000 1.000000
vt 0.000000 0.000000
vt 0.000000 1.000000
vt 1.000000 0.000000
vt 1.000000 1.000000
vt 0.000000 0.000000
vt 0.000000 1.000000
vt 1.000000 0.000000
vt 1.000000 1.000000
vt 0.000000 0.000000
vt 0.000000 1.000000
vt 1.000000 0.000000
vt 1.000000 1.000000
vt 0.000000 0.000000
vt 0.000000 1.000000
vt 1.000000 0.000000
vt 1.000000 1.000000
vt 0.000000 0.000000
vt 0.000000 1.000000
vt 1.000000 0.000000
vt 1.000000 1.000000
vt 0.000000 0.000000
vt 0.000000 1.000000
vt 1.000000 0.000000
vt 1.000000 1.000000
vt 0.000000 0.000000
vt 0.000000 1.000000
vt 1.000000 0.000000
vt 1.000000 1.000000
vt 0.000000 0.000000
vt 0.000000 1.000000
vt 1.000000 0.000000
vt 1.000000 1.000000
vt 0.000000 0.000000
vt 0.000000 1.000000
vt 1.000000 0.000000
vt 1.000000 1.000000
vt 0.000000 0.000000
vt 0.000000 1.000000
vt 1.000000 0.000000
vt 1.000000 1.000000
vt 0.000000 0.000000
vt 0.000000 1.000000
vt 1.000000 0.000000
vt 1.000000 1.000000
vt 0.000000 0.000000
vt 0.000000 1.000000
vt 1.000000 0.000000
vt 1.000000 1.000000
vt 0.000000 0.000000
vt 0.000000 1.000000
vt 1.000000 0.000000
vt 1.000000 1.000000
vt 0.000000 0.000000
vt 1.000000 0.000000
vt 0.000000 0.000000
vt 1.000000 0.000000
vt 0.000000 0.000000
vt 1.000000 0.000000
vt 0.000000 0.000000
vt 1.000000 0.000000
vt 0.000000 0.000000
vt 1.000000 0.000000
vt 0.500000 1.000000
vt 0.500000 1.000000
vt 0.500000 1.000000
vt 0.500000 1.000000
vt 0.500000 1.000000
vn -0.809018 0.000000 -0.587784
vn -0.809018 0.000000 -0.587784
vn -0.809017 0.000000 0.587785
vn -0.809017 0.000000 0.587785
vn 0.309018 0.000000 -0.951056
vn 0.309018 0.000000 -0.951056
vn 1.000000 0.000000 0.000000
vn 1.000000 0.000000 0.000000
vn 0.309017 0.000000 0.951057
vn 0.309017 0.000000 0.951057
vn 0.000000 -1.000000 0.000001
vn 0.000000 -1.000000 0.000001
vn 0.000000 -1.000000 -0.000001
vn 0.000000 -1.000000 -0.000001
vn 0.000000 -1.000000 0.000001
vn 0.000000 -1.000000 0.000001
vn 0.000000 -1.000000 0.000000
vn 0.000000 -1.000000 0.000000
vn 0.000000 -1.000000 -0.000001
vn 0.000000 -1.000000 -0.000001
vn -0.803149 0.120253 -0.583516
vn -0.809019 0.000000 -0.587783
vn -0.809017 0.000000 0.587785
vn -0.803144 0.120259 0.583521
vn 0.306778 0.120254 -0.944154
vn 0.309017 0.000000 -0.951056
vn 0.992742 0.120259 -0.000000
vn 1.000000 0.000000 0.000000
vn 0.306774 0.120261 0.944154
vn 0.309016 0.000000 0.951057
vn -0.327450 0.914427 -0.237907
vn -0.327447 0.914430 0.237901
vn 0.125071 0.914427 -0.384942
vn 0.404745 0.914429 0.000001
vn 0.125070 0.914431 0.384934
vn -0.082033 0.994846 -0.059600
vn -0.082032 0.994846 0.059600
vn 0.031334 0.994846 -0.096435
vn 0.101398 0.994846 -0.000000
vn 0.031334 0.994846 0.096435
vn -0.809020 0.000000 -0.587781
vn -0.809020 0.000000 -0.587781
vn -0.809018 0.000000 0.587784
vn -0.809018 0.000000 0.587784
vn 0.309019 0.000000 -0.951056
vn 0.309019 0.000000 -0.951056
vn 1.000000 0.000000 0.000000
vn 1.000000 0.000000 0.000000
vn 0.309016 0.000000 0.951057
vn 0.309016 0.000000 0.951057
vn 0.000000 1.000000 0.000000
vn 0.000000 1.000000 0.000000
vn 0.000000 1.000000 0.000000
vn 0.000000 1.000000 0.000000
vn 0.000000 1.000000 0.000001
vn 0.000000 1.000000 0.000001
vn 0.000000 1.000000 0.000001
vn 0.000000 1.000000 0.000001
vn 0.000000 1.000000 0.000000
vn 0.000000 1.000000 0.000000
vn -0.809019 0.000000 -0.587782
vn -0.809019 0.000000 -0.587782
vn -0.809019 0.000000 0.587782
vn -0.809019 0.000000 0.587782
vn 0.309015 0.000000 -0.951057
vn 0.309015 0.000000 -0.951057
vn 1.000000 0.000000 0.000000
vn 1.000000 0.000000 0.000000
vn 0.309015 0.000000 0.951057
vn 0.309015 0.000000 0.951057
vn -0.373040 -0.887345 -0.271034
vn -0.373045 -0.887345 -0.271027
vn -0.373049 -0.887342 0.271031
vn -0.373045 -0.887343 0.271037
vn 0.142488 -0.887347 -0.438535
vn 0.142489 -0.887347 -0.438535
vn 0.461114 -0.887341 0.000001
vn 0.461114 -0.887341 0.000002
vn 0.142496 -0.887341 0.438545
vn 0.142490 -0.887341 0.438547
vn -0.774222 0.290129 -0.562500
vn -0.809020 0.000000 -0.587781
vn -0.809019 0.000000 0.587783
vn -0.774220 0.290130 0.562501
vn 0.295726 0.290129 -0.910149
vn 0.309017 0.000000 -0.951056
vn 0.956987 0.290132 0.000000
vn 1.000000 0.000000 0.000000
vn 0.295725 0.290132 0.910148
vn 0.309017 0.000000 0.951056
vn -0.000000 1.000000 -0.000001
s 1
g Cocktail_Mixer_2_Cover
usemtl initialShadingGroup
f 6/2/1 1/1/2 5/19/3 10/20/4
f 7/6/5 2/5/6 1/3/2 6/4/1
f 8/10/7 3/9/8 2/7/6 7/8/5
f 9/14/9 4/13/10 3/11/8 8/12/7
f 10/18/4 5/17/3 4/15/10 9/16/9
s 2
f 11/22/11 6/21/12 10/39/13 15/40/14
f 12/26/15 7/25/16 6/23/12 11/24/11
f 13/30/17 8/29/18 7/27/16 12/28/15
f 14/34/19 9/33/20 8/31/18 13/32/17
f 15/38/14 10/37/13 9/35/20 14/36/19
s 3
f 16/42/21 11/41/22 15/59/23 20/60/24
f 17/46/25 12/45/26 11/43/22 16/44/21
f 18/50/27 13/49/28 12/47/26 17/48/25
f 19/54/29 14/53/30 13/51/28 18/52/27
f 20/58/24 15/57/23 14/55/30 19/56/29
f 21/62/31 16/61/21 20/79/24 25/80/32
f 22/66/33 17/65/25 16/63/21 21/64/31
f 23/70/34 18/69/27 17/67/25 22/68/33
f 24/74/35 19/73/29 18/71/27 23/72/34
f 25/78/32 20/77/24 19/75/29 24/76/35
f 26/82/36 21/81/31 25/99/32 30/100/37
f 27/86/38 22/85/33 21/83/31 26/84/36
f 28/90/39 23/89/34 22/87/33 27/88/38
f 29/94/40 24/93/35 23/91/34 28/92/39
f 30/98/37 25/97/32 24/95/35 29/96/40
s 4
f 31/111/41 26/101/42 30/110/43 35/120/44
f 32/113/45 27/103/46 26/102/42 31/112/41
f 33/115/47 28/105/48 27/104/46 32/114/45
f 34/117/49 29/107/50 28/106/48 33/116/47
f 35/119/44 30/109/43 29/108/50 34/118/49
s 5
f 36/122/51 31/121/52 35/139/53 40/140/54
f 37/126/55 32/125/56 31/123/52 36/124/51
f 38/130/57 33/129/58 32/127/56 37/128/55
f 39/134/59 34/133/60 33/131/58 38/132/57
f 40/138/54 35/137/53 34/135/60 39/136/59
s 6
f 41/142/61 36/141/62 40/159/63 45/160/64
f 42/146/65 37/145/66 36/143/62 41/144/61
f 43/150/67 38/149/68 37/147/66 42/148/65
f 44/154/69 39/153/70 38/151/68 43/152/67
f 45/158/64 40/157/63 39/155/70 44/156/69
s 7
f 46/162/71 41/161/72 45/179/73 50/180/74
f 47/166/75 42/165/76 41/163/72 46/164/71
f 48/170/77 43/169/78 42/167/76 47/168/75
f 49/174/79 44/173/80 43/171/78 48/172/77
f 50/178/74 45/177/73 44/175/80 49/176/79
s 8
f 51/182/81 46/181/82 50/199/83 55/200/84
f 52/186/85 47/185/86 46/183/82 51/184/81
f 53/190/87 48/189/88 47/187/86 52/188/85
f 54/194/89 49/193/90 48/191/88 53/192/87
f 55/198/84 50/197/83 49/195/90 54/196/89
f 56/211/91 51/201/81 55/210/84
f 56/212/91 52/203/85 51/202/81
f 56/213/91 53/205/87 52/204/85
f 56/214/91 54/207/89 53/206/87
f 56/215/91 55/209/84 54/208/89
