# This file uses centimeters as units for non-parametric coordinates.

mtllib Moscato Bottle.mtl
g default
v 8.446291 9.685408 -9.406973
v 8.169821 9.685408 -9.317141
v 8.169821 9.685408 -9.026443
v 8.446291 9.685408 -8.936609
v 8.617159 9.685408 -9.171794
v 8.393841 11.130535 -9.245544
v 8.307137 11.130535 -9.217376
v 8.307137 11.130535 -9.126210
v 8.393841 11.130535 -9.098038
v 8.447425 11.130535 -9.171793
v 8.369878 9.688555 -9.171793
v 8.129031 10.426867 -9.346779
v 8.461873 10.426867 -9.454925
v 8.667581 10.426867 -9.171794
v 8.461873 10.426867 -8.888659
v 8.129031 10.426867 -8.996806
v 8.277268 10.756077 -9.239075
v 8.405251 10.756077 -9.280658
v 8.484344 10.756077 -9.171793
v 8.405251 10.756077 -9.062926
v 8.277268 10.756077 -9.104509
v 8.396631 11.142608 -9.254133
v 8.299834 11.142608 -9.222682
v 8.299834 11.142608 -9.120898
v 8.396631 11.142608 -9.089444
v 8.456452 11.142608 -9.171793
v 8.393080 11.154098 -9.243202
v 8.309130 11.154098 -9.215926
v 8.309130 11.154098 -9.127654
v 8.393080 11.154098 -9.100373
v 8.444960 11.154098 -9.171791
v 8.393080 11.175527 -9.243202
v 8.309130 11.175527 -9.215926
v 8.309130 11.175527 -9.127654
v 8.393080 11.175527 -9.100373
v 8.444960 11.175527 -9.171791
v 8.390043 11.175527 -9.233855
v 8.317081 11.175527 -9.210149
v 8.317081 11.175527 -9.133430
v 8.390043 11.175527 -9.109720
v 8.435132 11.175527 -9.171790
v 8.167471 10.585953 -9.318849
v 8.447191 10.585953 -9.409734
v 8.620064 10.585953 -9.171794
v 8.447191 10.585953 -8.933850
v 8.167471 10.585953 -9.024735
vt 0.548284 0.007647
vt 0.373591 0.064409
vt 0.373591 0.248091
vt 0.548284 0.304853
vt 0.656250 0.156250
vt 0.412500 0.312500
vt 0.462500 0.312500
vt 0.512500 0.312500
vt 0.562500 0.312500
vt 0.612500 0.312500
vt 0.412500 0.688440
vt 0.462500 0.688440
vt 0.512500 0.688440
vt 0.562500 0.688440
vt 0.612500 0.688440
vt 0.500000 0.150000
vt 0.462500 0.664123
vt 0.412500 0.664123
vt 0.612500 0.664123
vt 0.562500 0.664123
vt 0.512500 0.664123
vt 0.462500 0.673112
vt 0.412500 0.673112
vt 0.612500 0.673112
vt 0.562500 0.673112
vt 0.512500 0.673112
vt 1.000000 0.000000
vt 0.000000 0.000000
vt 1.000000 0.000000
vt 0.000000 0.000000
vt 1.000000 0.000000
vt 0.000000 0.000000
vt 1.000000 0.000000
vt 0.000000 0.000000
vt 1.000000 0.000000
vt 0.000000 0.000000
vt 1.000000 1.000000
vt 0.000000 1.000000
vt 1.000000 1.000000
vt 0.000000 1.000000
vt 1.000000 1.000000
vt 0.000000 1.000000
vt 1.000000 1.000000
vt 0.000000 1.000000
vt 1.000000 1.000000
vt 0.000000 1.000000
vt 1.000000 0.000000
vt 1.000000 1.000000
vt 0.000000 0.000000
vt 0.000000 1.000000
vt 1.000000 0.000000
vt 1.000000 1.000000
vt 0.000000 0.000000
vt 0.000000 1.000000
vt 1.000000 0.000000
vt 1.000000 1.000000
vt 0.000000 0.000000
vt 0.000000 1.000000
vt 1.000000 0.000000
vt 1.000000 1.000000
vt 0.000000 0.000000
vt 0.000000 1.000000
vt 1.000000 0.000000
vt 1.000000 1.000000
vt 0.000000 0.000000
vt 0.000000 1.000000
vt 1.000000 0.000000
vt 1.000000 1.000000
vt 0.000000 0.000000
vt 0.000000 1.000000
vt 1.000000 0.000000
vt 1.000000 1.000000
vt 0.000000 0.000000
vt 0.000000 1.000000
vt 1.000000 0.000000
vt 1.000000 1.000000
vt 0.000000 0.000000
vt 0.000000 1.000000
vt 1.000000 0.000000
vt 1.000000 1.000000
vt 0.000000 0.000000
vt 0.000000 1.000000
vt 1.000000 0.000000
vt 1.000000 1.000000
vt 0.000000 0.000000
vt 0.000000 1.000000
vt 1.000000 0.000000
vt 1.000000 1.000000
vt 0.000000 0.000000
vt 0.000000 1.000000
vt 1.000000 0.000000
vt 1.000000 1.000000
vt 0.000000 0.000000
vt 0.000000 1.000000
vt 1.000000 0.000000
vt 1.000000 1.000000
vt 0.000000 0.000000
vt 0.000000 1.000000
vt 1.000000 0.000000
vt 1.000000 1.000000
vt 0.000000 0.000000
vt 0.000000 1.000000
vt 1.000000 0.000000
vt 1.000000 1.000000
vt 0.000000 0.000000
vt 0.000000 1.000000
vt 0.462500 0.668467
vt 0.412500 0.668467
vt 0.612500 0.668467
vt 0.562500 0.668467
vt 0.512500 0.668467
vn -0.808941 -0.013583 -0.587732
vn 0.308988 -0.013584 -0.950969
vn 0.308302 -0.067845 -0.948866
vn -0.807155 -0.067844 -0.586429
vn -0.808942 -0.013583 0.587732
vn -0.807156 -0.067843 0.586427
vn 0.308994 -0.013583 0.950967
vn 0.308306 -0.067844 0.948865
vn 0.999908 -0.013584 0.000000
vn 0.997696 -0.067845 -0.000000
vn -0.003933 -0.999919 0.012105
vn -0.000000 -1.000000 0.000000
vn 0.010297 -0.999919 0.007481
vn 0.010297 -0.999919 -0.007481
vn -0.003933 -0.999919 -0.012105
vn -0.012728 -0.999919 -0.000000
vn -0.742786 0.396269 -0.539666
vn -0.742786 0.396269 0.539666
vn 0.283719 0.396273 -0.873196
vn 0.918133 0.396272 -0.000001
vn 0.283724 0.396273 0.873194
vn -0.805101 0.098119 -0.584966
vn -0.725033 0.443661 -0.526775
vn -0.725034 0.443660 0.526775
vn -0.805110 0.098118 0.584954
vn 0.307526 0.098119 -0.946467
vn 0.276940 0.443663 -0.852331
vn 0.995175 0.098119 -0.000001
vn 0.896195 0.443661 0.000000
vn 0.307529 0.098119 0.946466
vn 0.276947 0.443663 0.852328
vn 0.307827 0.086090 -0.947539
vn 0.247490 -0.598930 -0.761598
vn -0.647866 -0.598900 -0.470731
vn -0.806011 0.086057 -0.585611
vn -0.647878 -0.599041 0.470535
vn -0.805903 0.085902 0.585782
vn 0.247494 -0.599125 0.761443
vn 0.307818 0.085859 0.947563
vn 0.800781 -0.598957 -0.000009
vn 0.996296 0.085997 -0.000035
vn 0.218494 0.707194 -0.672411
vn -0.572043 0.707153 -0.415573
vn -0.572073 0.707128 0.415576
vn 0.218513 0.707146 0.672455
vn 0.707072 0.707142 0.000036
vn 0.299285 0.249072 -0.921082
vn 0.309024 0.000000 -0.951054
vn -0.809020 0.000000 -0.587781
vn -0.783525 0.249066 -0.569258
vn -0.809031 0.000000 0.587766
vn -0.783536 0.249063 0.569244
vn 0.309038 0.000000 0.951050
vn 0.299300 0.249060 0.921080
vn 1.000000 0.000000 0.000000
vn 0.968485 0.249072 0.000001
vn 0.000000 1.000000 0.000003
vn 0.000000 1.000000 0.000006
vn 0.000000 1.000000 0.000001
vn 0.000000 1.000000 -0.000001
vn 0.000000 1.000000 0.000002
s 1
g Moscato_Bottle
usemtl initialShadingGroup
f 12/17/1 13/18/2 1/6/3 2/7/4
f 16/21/5 12/17/1 2/7/4 3/8/6
f 15/20/7 16/21/5 3/8/6 4/9/8
f 14/19/9 15/20/7 4/9/8 5/10/10
f 13/18/2 14/19/9 5/10/10 1/6/3
s 2
f 1/1/11 11/16/12 2/2/13
f 2/2/13 11/16/12 3/3/14
f 3/3/14 11/16/12 4/4/15
f 4/4/15 11/16/12 5/5/16
f 1/1/11 5/5/16 11/16/12
s 1
f 42/107/17 12/17/1 16/21/5 46/111/18
f 42/107/17 43/108/19 13/18/2 12/17/1
f 43/108/19 44/109/20 14/19/9 13/18/2
f 44/109/20 45/110/21 15/20/7 14/19/9
f 45/110/21 46/111/18 16/21/5 15/20/7
f 7/12/22 17/22/23 21/26/24 8/13/25
f 6/11/26 18/23/27 17/22/23 7/12/22
f 6/11/26 10/15/28 19/24/29 18/23/27
f 9/14/30 20/25/31 19/24/29 10/15/28
f 8/13/25 21/26/24 20/25/31 9/14/30
s 4
f 22/38/32 6/28/33 7/29/34 23/39/35
f 23/40/35 7/30/34 8/31/36 24/41/37
f 24/42/37 8/32/36 9/33/38 25/43/39
f 25/44/39 9/34/38 10/35/40 26/45/41
f 22/37/32 26/46/41 10/36/40 6/27/33
f 27/50/42 22/49/32 23/51/35 28/52/43
f 28/54/43 23/53/35 24/55/37 29/56/44
f 29/58/44 24/57/37 25/59/39 30/60/45
f 30/62/45 25/61/39 26/63/41 31/64/46
f 27/48/42 31/66/46 26/65/41 22/47/32
s 5
f 32/70/47 27/69/48 28/71/49 33/72/50
f 33/74/50 28/73/49 29/75/51 34/76/52
f 34/78/52 29/77/51 30/79/53 35/80/54
f 35/82/54 30/81/53 31/83/55 36/84/56
f 32/68/47 36/86/56 31/85/55 27/67/48
f 38/92/57 37/90/58 32/89/47 33/91/50
f 39/96/59 38/94/57 33/93/50 34/95/52
f 40/100/60 39/98/59 34/97/52 35/99/54
f 41/104/61 40/102/60 35/101/54 36/103/56
f 37/88/58 41/106/61 36/105/56 32/87/47
s 1
f 21/26/24 17/22/23 42/107/17 46/111/18
f 17/22/23 18/23/27 43/108/19 42/107/17
f 18/23/27 19/24/29 44/109/20 43/108/19
f 19/24/29 20/25/31 45/110/21 44/109/20
f 20/25/31 21/26/24 46/111/18 45/110/21
