# This file uses centimeters as units for non-parametric coordinates.

mtllib Soju Bottle.mtl
g default
v 8.426494 9.686187 -10.852185
v 8.221652 9.686187 -10.785627
v 8.221652 9.686187 -10.570244
v 8.426494 9.686187 -10.503685
v 8.553092 9.686187 -10.677937
v 8.387909 10.885120 -10.733430
v 8.322669 10.885120 -10.712235
v 8.322669 10.885120 -10.643638
v 8.387909 10.885120 -10.622440
v 8.428227 10.885120 -10.677937
v 8.369878 9.688555 -10.677937
v 8.222649 10.357272 -10.784905
v 8.426114 10.357272 -10.851014
v 8.551863 10.357272 -10.677937
v 8.426114 10.357272 -10.504857
v 8.222649 10.357272 -10.570967
v 8.300195 10.491804 -10.728562
v 8.396494 10.491804 -10.759851
v 8.456007 10.491804 -10.677937
v 8.396494 10.491804 -10.596021
v 8.300195 10.491804 -10.627309
v 8.390008 10.894204 -10.739893
v 8.317174 10.894204 -10.716227
v 8.317174 10.894204 -10.639641
v 8.390008 10.894204 -10.615974
v 8.435020 10.894204 -10.677936
v 8.387336 10.902850 -10.731668
v 8.324169 10.902850 -10.711144
v 8.324169 10.902850 -10.644724
v 8.387336 10.902850 -10.624197
v 8.426373 10.902850 -10.677935
v 8.387336 10.918974 -10.731668
v 8.324169 10.918974 -10.711144
v 8.324169 10.918974 -10.644724
v 8.387336 10.918974 -10.624197
v 8.426373 10.918974 -10.677935
v 8.385051 10.918974 -10.724634
v 8.330151 10.918974 -10.706797
v 8.330151 10.918974 -10.649071
v 8.385051 10.918974 -10.631230
v 8.418978 10.918974 -10.677935
vt 0.548284 0.007647
vt 0.373591 0.064409
vt 0.373591 0.248091
vt 0.548284 0.304853
vt 0.656250 0.156250
vt 0.412500 0.312500
vt 0.462500 0.312500
vt 0.512500 0.312500
vt 0.562500 0.312500
vt 0.612500 0.312500
vt 0.412500 0.688440
vt 0.462500 0.688440
vt 0.512500 0.688440
vt 0.562500 0.688440
vt 0.612500 0.688440
vt 0.500000 0.150000
vt 0.462500 0.664123
vt 0.412500 0.664123
vt 0.612500 0.664123
vt 0.562500 0.664123
vt 0.512500 0.664123
vt 0.462500 0.673112
vt 0.412500 0.673112
vt 0.612500 0.673112
vt 0.562500 0.673112
vt 0.512500 0.673112
vt 1.000000 0.000000
vt 0.000000 0.000000
vt 1.000000 0.000000
vt 0.000000 0.000000
vt 1.000000 0.000000
vt 0.000000 0.000000
vt 1.000000 0.000000
vt 0.000000 0.000000
vt 1.000000 0.000000
vt 0.000000 0.000000
vt 1.000000 1.000000
vt 0.000000 1.000000
vt 1.000000 1.000000
vt 0.000000 1.000000
vt 1.000000 1.000000
vt 0.000000 1.000000
vt 1.000000 1.000000
vt 0.000000 1.000000
vt 1.000000 1.000000
vt 0.000000 1.000000
vt 1.000000 0.000000
vt 1.000000 1.000000
vt 0.000000 0.000000
vt 0.000000 1.000000
vt 1.000000 0.000000
vt 1.000000 1.000000
vt 0.000000 0.000000
vt 0.000000 1.000000
vt 1.000000 0.000000
vt 1.000000 1.000000
vt 0.000000 0.000000
vt 0.000000 1.000000
vt 1.000000 0.000000
vt 1.000000 1.000000
vt 0.000000 0.000000
vt 0.000000 1.000000
vt 1.000000 0.000000
vt 1.000000 1.000000
vt 0.000000 0.000000
vt 0.000000 1.000000
vt 1.000000 0.000000
vt 1.000000 1.000000
vt 0.000000 0.000000
vt 0.000000 1.000000
vt 1.000000 0.000000
vt 1.000000 1.000000
vt 0.000000 0.000000
vt 0.000000 1.000000
vt 1.000000 0.000000
vt 1.000000 1.000000
vt 0.000000 0.000000
vt 0.000000 1.000000
vt 1.000000 0.000000
vt 1.000000 1.000000
vt 0.000000 0.000000
vt 0.000000 1.000000
vt 1.000000 0.000000
vt 1.000000 1.000000
vt 0.000000 0.000000
vt 0.000000 1.000000
vt 1.000000 0.000000
vt 1.000000 1.000000
vt 0.000000 0.000000
vt 0.000000 1.000000
vt 1.000000 0.000000
vt 1.000000 1.000000
vt 0.000000 0.000000
vt 0.000000 1.000000
vt 1.000000 0.000000
vt 1.000000 1.000000
vt 0.000000 0.000000
vt 0.000000 1.000000
vt 1.000000 0.000000
vt 1.000000 1.000000
vt 0.000000 0.000000
vt 0.000000 1.000000
vt 1.000000 0.000000
vt 1.000000 1.000000
vt 0.000000 0.000000
vt 0.000000 1.000000
vn -0.807395 0.063269 -0.586609
vn 0.308397 0.063269 -0.949151
vn 0.309014 0.001833 -0.951056
vn -0.809017 0.001834 -0.587782
vn -0.807396 0.063269 0.586608
vn -0.809018 0.001835 0.587781
vn 0.308403 0.063269 0.949149
vn 0.309018 0.001834 0.951054
vn 0.997997 0.063268 0.000000
vn 0.999998 0.001833 -0.000000
vn -0.003994 -0.999916 0.012293
vn -0.000000 -1.000000 0.000000
vn 0.010457 -0.999917 0.007597
vn 0.010457 -0.999917 -0.007597
vn -0.003994 -0.999917 -0.012293
vn -0.012926 -0.999917 -0.000000
vn -0.756315 0.355016 0.549501
vn -0.756314 0.355017 -0.549502
vn 0.288888 0.355021 -0.889103
vn 0.934859 0.355020 -0.000000
vn 0.288895 0.355021 0.889100
vn -0.806995 0.070454 -0.586340
vn -0.807003 0.070454 0.586330
vn 0.308249 0.070454 -0.948693
vn 0.997515 0.070455 -0.000001
vn 0.308253 0.070454 0.948692
vn 0.307827 0.086090 -0.947539
vn 0.247490 -0.598930 -0.761598
vn -0.647866 -0.598900 -0.470731
vn -0.806011 0.086057 -0.585612
vn -0.647879 -0.599041 0.470535
vn -0.805903 0.085902 0.585782
vn 0.247494 -0.599125 0.761443
vn 0.307818 0.085859 0.947563
vn 0.800781 -0.598957 -0.000009
vn 0.996295 0.085997 -0.000037
vn 0.218494 0.707194 -0.672411
vn -0.572043 0.707153 -0.415573
vn -0.572073 0.707128 0.415576
vn 0.218514 0.707147 0.672455
vn 0.707072 0.707142 0.000034
vn 0.299285 0.249072 -0.921082
vn 0.309024 0.000000 -0.951054
vn -0.809020 0.000000 -0.587781
vn -0.783525 0.249065 -0.569259
vn -0.809031 0.000000 0.587766
vn -0.783536 0.249063 0.569243
vn 0.309039 0.000000 0.951050
vn 0.299300 0.249060 0.921080
vn 1.000000 0.000000 0.000000
vn 0.968485 0.249072 0.000001
vn 0.000000 1.000000 -0.000002
vn 0.000000 1.000000 -0.000001
vn 0.000000 1.000000 -0.000002
vn 0.000000 1.000000 -0.000001
vn 0.000000 1.000000 0.000002
s 1
g Soju_Bottle
usemtl initialShadingGroup
f 12/17/1 13/18/2 1/6/3 2/7/4
f 16/21/5 12/17/1 2/7/4 3/8/6
f 15/20/7 16/21/5 3/8/6 4/9/8
f 14/19/9 15/20/7 4/9/8 5/10/10
f 13/18/2 14/19/9 5/10/10 1/6/3
s 2
f 1/1/11 11/16/12 2/2/13
f 2/2/13 11/16/12 3/3/14
f 3/3/14 11/16/12 4/4/15
f 4/4/15 11/16/12 5/5/16
f 1/1/11 5/5/16 11/16/12
s 1
f 21/26/17 17/22/18 12/17/1 16/21/5
f 17/22/18 18/23/19 13/18/2 12/17/1
f 18/23/19 19/24/20 14/19/9 13/18/2
f 19/24/20 20/25/21 15/20/7 14/19/9
f 20/25/21 21/26/17 16/21/5 15/20/7
f 7/12/22 17/22/18 21/26/17 8/13/23
f 6/11/24 18/23/19 17/22/18 7/12/22
f 6/11/24 10/15/25 19/24/20 18/23/19
f 9/14/26 20/25/21 19/24/20 10/15/25
f 8/13/23 21/26/17 20/25/21 9/14/26
s 3
f 22/38/27 6/28/28 7/29/29 23/39/30
f 23/40/30 7/30/29 8/31/31 24/41/32
f 24/42/32 8/32/31 9/33/33 25/43/34
f 25/44/34 9/34/33 10/35/35 26/45/36
f 22/37/27 26/46/36 10/36/35 6/27/28
f 27/50/37 22/49/27 23/51/30 28/52/38
f 28/54/38 23/53/30 24/55/32 29/56/39
f 29/58/39 24/57/32 25/59/34 30/60/40
f 30/62/40 25/61/34 26/63/36 31/64/41
f 27/48/37 31/66/41 26/65/36 22/47/27
s 4
f 32/70/42 27/69/43 28/71/44 33/72/45
f 33/74/45 28/73/44 29/75/46 34/76/47
f 34/78/47 29/77/46 30/79/48 35/80/49
f 35/82/49 30/81/48 31/83/50 36/84/51
f 32/68/42 36/86/51 31/85/50 27/67/43
f 38/92/52 37/90/53 32/89/42 33/91/45
f 39/96/54 38/94/52 33/93/45 34/95/47
f 40/100/55 39/98/54 34/97/47 35/99/49
f 41/104/56 40/102/55 35/101/49 36/103/51
f 37/88/53 41/106/56 36/105/51 32/87/42
