# This file uses centimeters as units for non-parametric coordinates.

mtllib Ceiling Fan Support.mtl
g default
v -0.248594 17.259537 0.783678
v -0.306592 17.259537 0.741541
v -0.378280 17.259537 0.741541
v -0.436278 17.259535 0.783678
v -0.458430 17.259535 0.851858
v -0.436278 17.259535 0.920038
v -0.378280 17.259535 0.962176
v -0.306592 17.259537 0.962176
v -0.248594 17.259537 0.920038
v -0.226442 17.259537 0.851858
v -0.248594 18.356722 0.783678
v -0.306592 18.356722 0.741541
v -0.378280 18.356722 0.741541
v -0.436278 18.356720 0.783678
v -0.458430 18.356720 0.851858
v -0.436278 18.356720 0.920038
v -0.378280 18.356720 0.962176
v -0.306592 18.356722 0.962176
v -0.248594 18.356722 0.920038
v -0.226442 18.356722 0.851858
v 0.404004 18.924068 0.309539
v -0.057325 18.924080 -0.025629
v -0.342436 18.924076 0.851859
v -0.627546 18.924086 -0.025629
v -1.088876 18.924078 0.309539
v -1.265074 18.924078 0.851859
v -1.088876 18.924068 1.394176
v -0.627546 18.924067 1.729344
v -0.057325 18.924074 1.729344
v 0.404004 18.924070 1.394175
v 0.580203 18.924068 0.851858
vt 0.184844 0.598518
vt 0.205336 0.641901
vt 0.122654 0.664028
vt 0.205237 0.686170
vt 0.184784 0.724440
vt 0.148197 0.750202
vt 0.101395 0.751397
vt 0.064798 0.729610
vt 0.042236 0.696980
vt 0.036286 0.658171
vt 0.048081 0.618378
vt 0.077627 0.581770
vt 0.720327 0.606146
vt 0.720152 0.612725
vt 0.487820 0.606545
vt 0.487994 0.599966
vt 0.719977 0.619304
vt 0.487645 0.613124
vt 0.719803 0.625883
vt 0.487470 0.619704
vt 0.719628 0.632463
vt 0.487295 0.626283
vt 0.719453 0.639042
vt 0.487120 0.632862
vt 0.719278 0.645621
vt 0.486945 0.639441
vt 0.719103 0.652201
vt 0.486770 0.646021
vt 0.718928 0.658780
vt 0.486595 0.652600
vt 0.718753 0.665359
vt 0.486420 0.659179
vt 0.718578 0.671939
vt 0.486246 0.665759
vt 0.143945 0.856331
vt 0.232956 0.848088
vt 0.229308 0.896752
vt 0.144713 0.862469
vt 0.140211 0.850143
vt 0.218695 0.805322
vt 0.135823 0.844694
vt 0.189225 0.771787
vt 0.129929 0.841311
vt 0.123646 0.840773
vt 0.118163 0.844703
vt 0.061943 0.774284
vt 0.114255 0.850931
vt 0.034919 0.806943
vt 0.112152 0.857903
vt 0.021422 0.846676
vt 0.110521 0.865198
vt 0.023590 0.889998
vt 0.111676 0.871289
vt 0.043214 0.934152
vn 0.000013 1.000000 0.000002
vn 0.000014 1.000000 0.000010
vn 0.000003 1.000000 0.000006
vn 0.000002 1.000000 0.000011
vn -0.000002 1.000000 0.000007
vn 0.000002 1.000000 0.000008
vn -0.000000 1.000000 0.000011
vn -0.000008 1.000000 0.000008
vn -0.000003 1.000000 0.000002
vn 0.000008 1.000000 -0.000000
vn 0.000008 1.000000 -0.000002
vn 0.809018 0.000000 -0.587784
vn 0.309015 0.000000 -0.951057
vn 0.309015 0.000000 -0.951057
vn 0.809018 0.000000 -0.587784
vn -0.309017 0.000000 -0.951056
vn -0.309012 0.000000 -0.951058
vn -0.809020 0.000000 -0.587782
vn -0.809016 0.000000 -0.587786
vn -1.000000 0.000000 0.000000
vn -1.000000 0.000000 0.000000
vn -0.809017 0.000000 0.587785
vn -0.809017 0.000000 0.587785
vn -0.309018 0.000000 0.951056
vn -0.309012 0.000000 0.951058
vn 0.309013 0.000000 0.951058
vn 0.309018 0.000000 0.951056
vn 0.809018 0.000000 0.587784
vn 0.809018 0.000000 0.587784
vn 1.000000 0.000000 0.000000
vn 1.000000 0.000000 0.000000
vn 0.177765 -0.817942 -0.547147
vn 0.177764 -0.817942 -0.547148
vn 0.465416 -0.817949 -0.338155
vn 0.465416 -0.817949 -0.338154
vn -0.177776 -0.817939 -0.547148
vn -0.177775 -0.817939 -0.547149
vn -0.465424 -0.817944 -0.338155
vn -0.465423 -0.817944 -0.338156
vn -0.575302 -0.817941 -0.000008
vn -0.575302 -0.817941 -0.000009
vn -0.465427 -0.817948 0.338142
vn -0.465427 -0.817948 0.338141
vn -0.177770 -0.817946 0.547140
vn -0.177769 -0.817946 0.547140
vn 0.177778 -0.817943 0.547142
vn 0.177779 -0.817943 0.547141
vn 0.465420 -0.817948 0.338150
vn 0.465420 -0.817948 0.338151
vn 0.575295 -0.817946 -0.000002
vn 0.575295 -0.817946 -0.000001
s 1
g polySurface10 Fan
usemtl initialShadingGroup
f 21/1/1 22/2/2 23/3/3
f 22/2/2 24/4/4 23/3/3
f 24/4/4 25/5/5 23/3/3
f 25/5/5 26/6/6 23/3/3
f 26/6/6 27/7/7 23/3/3
f 27/7/7 28/8/8 23/3/3
f 28/8/8 29/9/9 23/3/3
f 29/9/9 30/10/10 23/3/3
f 30/10/10 31/11/11 23/3/3
f 31/11/11 21/12/1 23/3/3
s 2
f 1/13/12 2/14/13 12/15/14 11/16/15
f 2/14/13 3/17/16 13/18/17 12/15/14
f 3/17/16 4/19/18 14/20/19 13/18/17
f 4/19/18 5/21/20 15/22/21 14/20/19
f 5/21/20 6/23/22 16/24/23 15/22/21
f 6/23/22 7/25/24 17/26/25 16/24/23
f 7/25/24 8/27/26 18/28/27 17/26/25
f 8/27/26 9/29/28 19/30/29 18/28/27
f 9/29/28 10/31/30 20/32/31 19/30/29
f 10/31/30 1/33/12 11/34/15 20/32/31
s 3
f 12/35/32 22/36/33 21/37/34 11/38/35
f 13/39/36 24/40/37 22/36/33 12/35/32
f 14/41/38 25/42/39 24/40/37 13/39/36
f 15/43/40 26/6/41 25/42/39 14/41/38
f 16/44/42 27/7/43 26/6/41 15/43/40
f 17/45/44 28/46/45 27/7/43 16/44/42
f 18/47/46 29/48/47 28/46/45 17/45/44
f 19/49/48 30/50/49 29/48/47 18/47/46
f 20/51/50 31/52/51 30/50/49 19/49/48
f 11/53/35 21/54/34 31/52/51 20/51/50
