# This file uses centimeters as units for non-parametric coordinates.

mtllib Ceiling Fan.mtl
g default
v 0.649796 16.656679 0.130960
v 0.036563 16.656679 -0.314579
v -0.721435 16.656679 -0.314579
v -1.334667 16.656679 0.130960
v -1.568901 16.656679 0.851859
v -1.334667 16.656679 1.572757
v -0.721434 16.656679 2.018297
v 0.036563 16.656679 2.018297
v 0.649796 16.656679 1.572757
v 0.884030 16.656679 0.851859
v 0.649796 16.837408 0.130960
v 0.036563 16.837408 -0.314579
v -0.721435 16.837408 -0.314579
v -1.334667 16.837408 0.130960
v -1.568901 16.837408 0.851859
v -1.334667 16.837408 1.572757
v -0.721434 16.837408 2.018297
v 0.036563 16.837408 2.018297
v 0.649796 16.837408 1.572757
v 0.884030 16.837408 0.851859
v 0.557811 16.716482 0.064129
v 0.128548 16.716482 -0.247749
v 0.128548 16.777605 -0.247749
v 0.557811 16.777605 0.064129
v -0.813420 16.716478 -0.247748
v -1.242682 16.716478 0.064129
v -1.242682 16.777603 0.064129
v -0.813420 16.777603 -0.247748
v -1.533766 16.716482 0.959994
v -1.369802 16.716482 1.464622
v -1.369802 16.777605 1.464622
v -1.533766 16.777605 0.959994
v -0.607735 16.716482 2.018297
v -0.077137 16.716482 2.018297
v -0.077137 16.777605 2.018297
v -0.607735 16.777605 2.018297
v 0.684931 16.716482 1.464622
v 0.848895 16.716482 0.959993
v 0.848895 16.777605 0.959993
v 0.684931 16.777605 1.464622
v 3.838599 16.021498 -3.792322
v 2.782406 16.021498 -4.559688
v 2.782406 16.082621 -4.559688
v 3.838599 16.082621 -3.792322
v -3.467266 16.021494 -4.559695
v -4.523459 16.021494 -3.792331
v -4.523459 16.082619 -3.792331
v -3.467266 16.082619 -4.559695
v -6.454749 16.021498 2.151512
v -6.051320 16.021498 3.393139
v -6.051320 16.082621 3.393139
v -6.454749 16.082621 2.151512
v -0.995196 16.021498 7.066628
v 0.310327 16.021498 7.066628
v 0.310327 16.082621 7.066628
v -0.995196 16.082621 7.066628
v 5.366449 16.021498 3.393139
v 5.769877 16.021498 2.151512
v 5.769877 16.082621 2.151512
v 5.366449 16.082621 3.393139
v 0.241055 16.614187 0.427928
v -0.119562 16.614187 0.165924
v -0.565310 16.614187 0.165924
v -0.925927 16.614187 0.427928
v -1.063670 16.614187 0.851859
v -0.925927 16.614187 1.275790
v -0.565309 16.614187 1.537793
v -0.119562 16.614187 1.537793
v 0.241055 16.614187 1.275790
v 0.378799 16.614187 0.851859
v 0.255423 16.446899 0.417489
v -0.114074 16.446899 0.149033
v -0.570798 16.446899 0.149033
v -0.940295 16.446899 0.417489
v -1.081430 16.446899 0.851859
v -0.940295 16.446899 1.286229
v -0.570798 16.446899 1.554684
v -0.114074 16.446899 1.554684
v 0.255423 16.446899 1.286228
v 0.396559 16.446898 0.851859
v -0.333982 16.380613 0.845716
v -0.345665 16.380617 0.841921
v -0.352886 16.380611 0.851859
v -0.345665 16.380617 0.861797
v -0.333982 16.380613 0.858001
v -0.353356 16.382881 0.885467
v -0.369498 16.383423 0.873269
v -0.377397 16.382353 0.852741
v -0.370800 16.383625 0.831374
v -0.352541 16.382641 0.820759
v -0.332313 16.382645 0.820703
v -0.315285 16.382715 0.832132
v -0.307698 16.382824 0.851859
v -0.315385 16.382706 0.871512
v -0.331771 16.382807 0.884681
v -0.306592 17.259537 0.741541
v -0.248594 17.259537 0.783678
v -0.378280 17.259537 0.741541
v -0.436278 17.259535 0.783678
v -0.458430 17.259535 0.851858
v -0.436278 17.259535 0.920038
v -0.378280 17.259535 0.962176
v -0.306592 17.259537 0.962176
v -0.248594 17.259537 0.920038
v -0.226442 17.259537 0.851858
v -0.342436 17.259537 0.851858
vt 0.858952 0.109612
vt 0.863465 0.006589
vt 0.868293 0.008118
vt 0.861218 0.113548
vt 0.064577 0.811588
vt 0.127154 0.807929
vt 0.128027 0.822849
vt 0.065450 0.826508
vt 0.420838 0.112564
vt 0.425024 0.006587
vt 0.429862 0.008080
vt 0.423065 0.116506
vt 0.189731 0.804270
vt 0.252308 0.800611
vt 0.253182 0.815531
vt 0.190604 0.819190
vt 0.633800 0.514323
vt 0.637987 0.408347
vt 0.642825 0.409841
vt 0.636027 0.518266
vt 0.314946 0.796937
vt 0.377522 0.793278
vt 0.378394 0.808198
vt 0.315816 0.811858
vt 0.970408 0.307885
vt 0.974920 0.204862
vt 0.979748 0.206391
vt 0.972673 0.311821
vt 0.440099 0.789619
vt 0.502676 0.785960
vt 0.503549 0.800880
vt 0.440971 0.804539
vt 0.520584 0.312942
vt 0.525123 0.209922
vt 0.529947 0.211467
vt 0.522834 0.316880
vt 0.565253 0.782301
vt 0.627830 0.778642
vt 0.628703 0.793562
vt 0.566126 0.797221
vt 0.704885 0.607450
vt 0.662533 0.561201
vt 0.751102 0.518589
vt 0.755108 0.522963
vt 0.652826 0.499245
vt 0.750184 0.512729
vt 0.679006 0.442259
vt 0.752660 0.507340
vt 0.732335 0.409262
vt 0.757704 0.504219
vt 0.795015 0.411267
vt 0.763632 0.504409
vt 0.846127 0.447603
vt 0.768465 0.507845
vt 0.868612 0.506145
vt 0.770592 0.513382
vt 0.854968 0.567354
vt 0.769302 0.519171
vt 0.809747 0.610803
vt 0.765025 0.523280
vt 0.748041 0.621991
vt 0.759189 0.524338
vt 0.002000 0.815247
vt 0.055479 0.817074
vt 0.011675 0.819635
vt 0.055774 0.822120
vt 0.002872 0.830167
vt 0.011970 0.824681
vt 0.180633 0.809756
vt 0.136829 0.812317
vt 0.180929 0.814802
vt 0.137125 0.817363
vt 0.305838 0.802425
vt 0.261992 0.804997
vt 0.306133 0.807471
vt 0.262288 0.810043
vt 0.431001 0.795105
vt 0.387197 0.797666
vt 0.431296 0.800151
vt 0.387492 0.802712
vt 0.556155 0.787787
vt 0.512351 0.790348
vt 0.556450 0.792833
vt 0.512646 0.795394
vt 0.453429 0.149301
vt 0.441999 0.104943
vt 0.439865 0.100361
vt 0.861326 0.002000
vt 0.458810 0.198281
vt 0.453712 0.154408
vt 0.874055 0.218011
vt 0.013372 0.144374
vt 0.004148 0.102573
vt 0.002000 0.097993
vt 0.422870 0.002000
vt 0.017806 0.193434
vt 0.013558 0.149484
vt 0.433762 0.221186
vt 0.226334 0.546131
vt 0.217109 0.504329
vt 0.214962 0.499750
vt 0.635834 0.403759
vt 0.230768 0.595190
vt 0.226519 0.551241
vt 0.646723 0.622946
vt 0.564884 0.347575
vt 0.553455 0.303217
vt 0.551321 0.298635
vt 0.972781 0.200273
vt 0.570266 0.396555
vt 0.565167 0.352682
vt 0.985512 0.416284
vt 0.115062 0.352638
vt 0.103647 0.308274
vt 0.101515 0.303691
vt 0.522986 0.205333
vt 0.120472 0.401618
vt 0.115348 0.357745
vt 0.535729 0.421324
vt 0.192481 0.647576
vt 0.241007 0.607773
vt 0.256283 0.646818
vt 0.227787 0.670184
vt 0.176621 0.708288
vt 0.218466 0.705839
vt 0.199459 0.766737
vt 0.231884 0.740162
vt 0.262912 0.760041
vt 0.299699 0.757893
vt 0.363490 0.757151
vt 0.328195 0.734524
vt 0.379377 0.696425
vt 0.337510 0.698870
vt 0.356518 0.637964
vt 0.324104 0.664542
vt 0.303670 0.604092
vt 0.293069 0.644670
vt 0.659496 0.969661
vt 0.635942 0.998000
vt 0.624962 0.989464
vt 0.649096 0.960427
vt 0.684847 0.942917
vt 0.675072 0.933026
vt 0.711889 0.917885
vt 0.702779 0.907376
vt 0.740507 0.894667
vt 0.732098 0.883590
vt 0.770623 0.873335
vt 0.762963 0.861728
vt 0.802020 0.854040
vt 0.795128 0.841960
vt 0.834605 0.836833
vt 0.828517 0.824330
vt 0.868244 0.821789
vt 0.862983 0.808915
vt 0.902792 0.808970
vt 0.898382 0.795780
vt 0.938103 0.798431
vt 0.934562 0.784982
vt 0.713181 0.824625
vt 0.713170 0.825636
vt 0.711169 0.825107
vt 0.711649 0.823484
vt 0.714127 0.825959
vt 0.714799 0.827868
vt 0.712951 0.827884
vt 0.714731 0.825148
vt 0.716227 0.826745
vt 0.714146 0.824324
vt 0.714754 0.822526
vt 0.716195 0.823492
vt 0.713016 0.822401
vt 0.775092 0.825877
vt 0.716789 0.825172
vt 0.694252 0.883136
vt 0.663905 0.860526
vt 0.711671 0.826699
vt 0.652644 0.824396
vt 0.664774 0.788550
vt 0.695655 0.766681
vt 0.733492 0.767136
vt 0.763836 0.789746
vt 0.000000 0.000000
vt 1.000000 0.000000
vt 0.500000 1.000000
vt 0.000000 0.000000
vt 1.000000 0.000000
vt 0.500000 1.000000
vt 0.000000 0.000000
vt 1.000000 0.000000
vt 0.500000 1.000000
vt 0.000000 0.000000
vt 1.000000 0.000000
vt 0.500000 1.000000
vt 0.000000 0.000000
vt 1.000000 0.000000
vt 0.500000 1.000000
vt 0.000000 0.000000
vt 1.000000 0.000000
vt 0.500000 1.000000
vt 0.000000 0.000000
vt 1.000000 0.000000
vt 0.500000 1.000000
vt 0.000000 0.000000
vt 1.000000 0.000000
vt 0.500000 1.000000
vt 0.000000 0.000000
vt 1.000000 0.000000
vt 0.500000 1.000000
vt 0.000000 0.000000
vt 1.000000 0.000000
vt 0.500000 1.000000
vn -0.021276 -0.990354 0.136920
vn -0.123644 -0.990354 0.062547
vn 0.026241 0.986164 -0.163685
vn 0.147564 0.986164 -0.075540
vn 0.081210 -0.000000 -0.996697
vn -0.081206 0.000000 -0.996697
vn -0.081211 -0.000000 -0.996697
vn 0.081210 0.000000 -0.996697
vn 0.123645 -0.990354 0.062545
vn 0.021274 -0.990354 0.136921
vn -0.147566 0.986164 -0.075538
vn -0.026239 0.986163 -0.163686
vn -0.922821 0.000000 -0.385228
vn -0.973010 0.000000 -0.230762
vn -0.973010 0.000000 -0.230762
vn -0.922819 -0.000000 -0.385234
vn 0.097693 -0.990354 -0.098264
vn 0.136794 -0.990354 0.022075
vn -0.117441 0.986164 0.116999
vn -0.163782 0.986164 -0.025623
vn -0.651545 0.000000 0.758610
vn -0.520146 0.000000 0.854077
vn -0.520144 0.000000 0.854078
vn -0.651545 0.000000 0.758610
vn -0.063267 -0.990354 -0.123277
vn 0.063267 -0.990354 -0.123277
vn 0.074981 0.986164 0.147847
vn -0.074981 0.986164 0.147847
vn 0.520146 0.000000 0.854077
vn 0.651545 0.000000 0.758610
vn 0.651545 0.000000 0.758610
vn 0.520144 0.000000 0.854078
vn -0.136794 -0.990354 0.022075
vn -0.097693 -0.990354 -0.098264
vn 0.163782 0.986164 -0.025623
vn 0.117441 0.986164 0.116999
vn 0.973010 0.000000 -0.230762
vn 0.922820 -0.000000 -0.385231
vn 0.922821 0.000000 -0.385230
vn 0.973010 0.000000 -0.230762
vn 0.287466 0.934742 -0.208856
vn 0.109802 0.934741 -0.337938
vn 0.109802 0.934741 -0.337938
vn 0.287466 0.934742 -0.208856
vn -0.109803 0.934742 -0.337937
vn -0.109802 0.934742 -0.337937
vn -0.287466 0.934742 -0.208854
vn -0.287466 0.934742 -0.208854
vn -0.355327 0.934742 0.000001
vn -0.355327 0.934742 0.000001
vn -0.287465 0.934742 0.208855
vn -0.287465 0.934742 0.208855
vn -0.109803 0.934742 0.337936
vn -0.109802 0.934742 0.337936
vn 0.109801 0.934742 0.337936
vn 0.109801 0.934742 0.337936
vn 0.287466 0.934742 0.208857
vn 0.287466 0.934742 0.208856
vn 0.355328 0.934742 0.000001
vn 0.355328 0.934742 0.000001
vn -0.128496 -0.989856 0.060619
vn -0.017943 -0.989856 0.140939
vn 0.040917 0.987266 -0.153728
vn 0.133560 0.987266 -0.086420
vn 0.017942 -0.989855 0.140941
vn 0.128498 -0.989855 0.060618
vn -0.133561 0.987266 -0.086419
vn -0.040916 0.987266 -0.153729
vn 0.139585 -0.989856 0.026487
vn 0.097358 -0.989856 -0.103475
vn -0.123462 0.987266 0.100318
vn -0.158848 0.987266 -0.008589
vn 0.068325 -0.989856 -0.124569
vn -0.068325 -0.989856 -0.124569
vn 0.057256 0.987266 0.148419
vn -0.057256 0.987266 0.148419
vn -0.097358 -0.989856 -0.103475
vn -0.139585 -0.989856 0.026487
vn 0.158848 0.987266 -0.008589
vn 0.123462 0.987266 0.100318
vn 0.025898 -0.996482 -0.079706
vn 0.067802 -0.996482 -0.049261
vn 0.067802 -0.996482 -0.049261
vn 0.025898 -0.996482 -0.079706
vn -0.025898 -0.996482 -0.079707
vn -0.025898 -0.996482 -0.079707
vn -0.067802 -0.996482 -0.049261
vn -0.067802 -0.996482 -0.049261
vn -0.083808 -0.996482 0.000001
vn -0.083808 -0.996482 0.000001
vn -0.067802 -0.996482 0.049263
vn -0.067802 -0.996482 0.049263
vn -0.025898 -0.996482 0.079708
vn -0.025898 -0.996482 0.079708
vn 0.025898 -0.996482 0.079709
vn 0.025898 -0.996482 0.079709
vn 0.067802 -0.996482 0.049263
vn 0.067802 -0.996482 0.049263
vn 0.083808 -0.996482 -0.000000
vn 0.083808 -0.996482 -0.000000
vn 0.307292 0.105571 -0.945741
vn 0.804499 0.105570 -0.584497
vn 0.804499 0.105570 -0.584496
vn 0.307292 0.105571 -0.945741
vn -0.307291 0.105571 -0.945742
vn -0.307291 0.105571 -0.945742
vn -0.804496 0.105571 -0.584500
vn -0.804496 0.105571 -0.584501
vn -0.994412 0.105571 -0.000001
vn -0.994412 0.105571 -0.000001
vn -0.804497 0.105571 0.584500
vn -0.804497 0.105571 0.584500
vn -0.307291 0.105570 0.945742
vn -0.307291 0.105570 0.945742
vn 0.307291 0.105570 0.945742
vn 0.307291 0.105570 0.945742
vn 0.804499 0.105570 0.584497
vn 0.804499 0.105570 0.584496
vn 0.994412 0.105570 0.000002
vn 0.994412 0.105570 0.000002
vn 0.066534 -0.996691 -0.046688
vn -0.029196 -0.996542 -0.077790
vn 0.027700 -0.995887 -0.086269
vn 0.072874 -0.995888 -0.053829
vn -0.077947 -0.996951 -0.003699
vn -0.089659 -0.995972 0.000543
vn -0.072947 -0.995861 -0.054224
vn -0.024245 -0.996721 0.077195
vn -0.073113 -0.995857 0.054072
vn 0.064342 -0.997119 0.040183
vn 0.073234 -0.995887 0.053339
vn 0.028633 -0.995887 0.085964
vn 0.090605 -0.995887 0.000038
vn -0.028315 -0.995922 0.085658
vn -0.073294 -0.995858 0.053794
vn -0.028176 -0.995922 0.085706
vn -0.089677 -0.995971 -0.000076
vn -0.073290 -0.995863 -0.053719
vn -0.028491 -0.995934 -0.085464
vn -0.027710 -0.995933 -0.085733
vn 0.027996 -0.995887 -0.086176
vn 0.073301 -0.995886 -0.053267
vn 0.090607 -0.995887 -0.000000
vn 0.073299 -0.995887 0.053264
vn 0.027999 -0.995887 0.086172
vn 0.000000 1.000000 0.000000
vn 0.000000 1.000000 0.000000
vn 0.000000 1.000000 0.000000
vn 0.000000 1.000000 -0.000015
vn 0.000000 1.000000 -0.000015
vn 0.000000 1.000000 -0.000015
vn -0.000027 1.000000 0.000015
vn -0.000027 1.000000 0.000015
vn -0.000027 1.000000 0.000015
vn -0.000016 1.000000 -0.000060
vn -0.000016 1.000000 -0.000060
vn -0.000016 1.000000 -0.000060
vn -0.000016 1.000000 0.000060
vn -0.000016 1.000000 0.000060
vn -0.000016 1.000000 0.000060
vn -0.000010 1.000000 0.000000
vn -0.000010 1.000000 0.000000
vn -0.000010 1.000000 0.000000
vn -0.000027 1.000000 0.000015
vn -0.000027 1.000000 0.000015
vn -0.000027 1.000000 0.000015
vn 0.000000 1.000000 0.000000
vn 0.000000 1.000000 0.000000
vn 0.000000 1.000000 0.000000
vn 0.000000 1.000000 0.000000
vn 0.000000 1.000000 0.000000
vn 0.000000 1.000000 0.000000
vn 0.000000 1.000000 0.000000
vn 0.000000 1.000000 0.000000
vn 0.000000 1.000000 0.000000
s 1
g polySurface18 polySurface14 polySurface9
usemtl initialShadingGroup
f 41/1/1 42/2/2 43/3/3 44/4/4
f 2/5/5 3/6/6 13/7/7 12/8/8
f 45/9/9 46/10/10 47/11/11 48/12/12
f 4/13/13 5/14/14 15/15/15 14/16/16
f 49/17/17 50/18/18 51/19/19 52/20/20
f 6/21/21 7/22/22 17/23/23 16/24/24
f 53/25/25 54/26/26 55/27/27 56/28/28
f 8/29/29 9/30/30 19/31/31 18/32/32
f 57/33/33 58/34/34 59/35/35 60/36/36
f 10/37/37 1/38/38 11/39/39 20/40/40
s 11
f 11/41/41 12/42/42 96/43/43 97/44/44
f 12/42/42 13/45/45 98/46/46 96/43/43
f 13/45/45 14/47/47 99/48/48 98/46/46
f 14/47/47 15/49/49 100/50/50 99/48/48
f 15/49/49 16/51/51 101/52/52 100/50/50
f 16/51/51 17/53/53 102/54/54 101/52/52
f 17/53/53 18/55/55 103/56/56 102/54/54
f 18/55/55 19/57/57 104/58/58 103/56/56
f 19/57/57 20/59/59 105/60/60 104/58/58
f 20/59/59 11/61/41 97/62/44 105/60/60
s 1
f 1/63/38 2/5/5 22/64/61 21/65/62
f 2/5/5 12/8/8 23/66/63 22/64/61
f 12/8/8 11/67/39 24/68/64 23/66/63
f 11/67/39 1/63/38 21/65/62 24/68/64
f 3/6/6 4/13/13 26/69/65 25/70/66
f 4/13/13 14/16/16 27/71/67 26/69/65
f 14/16/16 13/7/7 28/72/68 27/71/67
f 13/7/7 3/6/6 25/70/66 28/72/68
f 5/14/14 6/21/21 30/73/69 29/74/70
f 6/21/21 16/24/24 31/75/71 30/73/69
f 16/24/24 15/15/15 32/76/72 31/75/71
f 15/15/15 5/14/14 29/74/70 32/76/72
f 7/22/22 8/29/29 34/77/73 33/78/74
f 8/29/29 18/32/32 35/79/75 34/77/73
f 18/32/32 17/23/23 36/80/76 35/79/75
f 17/23/23 7/22/22 33/78/74 36/80/76
f 9/30/30 10/37/37 38/81/77 37/82/78
f 10/37/37 20/40/40 39/83/79 38/81/77
f 20/40/40 19/31/31 40/84/80 39/83/79
f 19/31/31 9/30/30 37/82/78 40/84/80
f 21/85/62 22/86/61 42/2/2 41/1/1
f 22/86/61 23/87/63 43/88/3 42/2/2
f 23/89/63 24/90/64 44/4/4 43/91/3
f 24/90/64 21/85/62 41/1/1 44/4/4
f 25/92/66 26/93/65 46/10/10 45/9/9
f 26/93/65 27/94/67 47/95/11 46/10/10
f 27/96/67 28/97/68 48/12/12 47/98/11
f 28/97/68 25/92/66 45/9/9 48/12/12
f 29/99/70 30/100/69 50/18/18 49/17/17
f 30/100/69 31/101/71 51/102/19 50/18/18
f 31/103/71 32/104/72 52/20/20 51/105/19
f 32/104/72 29/99/70 49/17/17 52/20/20
f 33/106/74 34/107/73 54/26/26 53/25/25
f 34/107/73 35/108/75 55/109/27 54/26/26
f 35/110/75 36/111/76 56/28/28 55/112/27
f 36/111/76 33/106/74 53/25/25 56/28/28
f 37/113/78 38/114/77 58/34/34 57/33/33
f 38/114/77 39/115/79 59/116/35 58/34/34
f 39/117/79 40/118/80 60/36/36 59/119/35
f 40/118/80 37/113/78 57/33/33 60/36/36
s 12
f 2/120/81 1/121/82 61/122/83 62/123/84
f 3/124/85 2/120/81 62/123/84 63/125/86
f 4/126/87 3/124/85 63/125/86 64/127/88
f 5/14/89 4/126/87 64/127/88 65/128/90
f 6/21/91 5/14/89 65/128/90 66/129/92
f 7/130/93 6/21/91 66/129/92 67/131/94
f 8/132/95 7/130/93 67/131/94 68/133/96
f 9/134/97 8/132/95 68/133/96 69/135/98
f 10/136/99 9/134/97 69/135/98 70/137/100
f 1/121/82 10/136/99 70/137/100 61/122/83
s 13
f 62/138/101 61/139/102 71/140/103 72/141/104
f 63/142/105 62/138/101 72/141/104 73/143/106
f 64/144/107 63/142/105 73/143/106 74/145/108
f 65/146/109 64/144/107 74/145/108 75/147/110
f 66/148/111 65/146/109 75/147/110 76/149/112
f 67/150/113 66/148/111 76/149/112 77/151/114
f 68/152/115 67/150/113 77/151/114 78/153/116
f 69/154/117 68/152/115 78/153/116 79/155/118
f 70/156/119 69/154/117 79/155/118 80/157/120
f 61/158/102 70/156/119 80/157/120 71/159/103
s 14
f 81/160/121 82/161/122 91/162/123 92/163/124
f 82/161/122 83/164/125 88/165/126 89/166/127
f 83/164/125 84/167/128 87/168/129 88/165/126
f 84/167/128 85/169/130 94/170/131 95/171/132
f 85/169/130 81/160/121 92/163/124 93/172/133
f 77/173/134 76/149/135 87/168/129 86/174/136
f 76/149/135 75/147/137 88/165/126 87/168/129
f 75/147/137 74/175/138 89/166/127 88/165/126
f 74/175/138 73/176/139 90/177/140 89/166/127
f 73/176/139 72/178/141 91/162/123 90/177/140
f 72/178/141 71/179/142 92/163/124 91/162/123
f 71/179/142 80/180/143 93/172/133 92/163/124
f 80/180/143 79/181/144 94/170/131 93/172/133
f 79/181/144 78/182/145 95/171/132 94/170/131
f 78/182/145 77/173/134 86/174/136 95/171/132
f 84/167/128 95/171/132 86/174/136
f 87/168/129 84/167/128 86/174/136
f 82/161/122 89/166/127 90/177/140
f 91/162/123 82/161/122 90/177/140
f 85/169/130 93/172/133 94/170/131
s off
f 97/183/146 96/184/147 106/185/148
f 96/186/149 98/187/150 106/188/151
f 98/189/152 99/190/153 106/191/154
f 99/192/155 100/193/156 106/194/157
f 100/195/158 101/196/159 106/197/160
f 101/198/161 102/199/162 106/200/163
f 102/201/164 103/202/165 106/203/166
f 103/204/167 104/205/168 106/206/169
f 104/207/170 105/208/171 106/209/172
f 105/210/173 97/211/174 106/212/175
