# This file uses centimeters as units for non-parametric coordinates.

mtllib Coctail Mixer Bottle.mtl
g default
v 8.551639 9.684551 -19.459068
v 8.375646 9.684551 -19.401884
v 8.375646 9.684551 -19.216833
v 8.551639 9.684551 -19.159649
v 8.660409 9.684551 -19.309359
v 8.502996 9.684551 -19.309359
v 8.342886 10.384675 -19.425686
v 8.564152 10.384675 -19.497580
v 8.700902 10.384675 -19.309359
v 8.564152 10.384675 -19.121138
v 8.342886 10.384675 -19.193031
v 8.352854 10.386971 -19.418444
v 8.560345 10.386971 -19.485863
v 8.688581 10.386971 -19.309359
v 8.560345 10.386971 -19.132856
v 8.352854 10.386971 -19.200274
v 8.357777 9.808990 -19.414867
v 8.558464 9.808990 -19.480074
v 8.682497 9.808990 -19.309359
v 8.558464 9.808990 -19.138643
v 8.357777 9.808990 -19.203850
v 8.386788 9.734777 -19.222326
v 8.386788 9.734777 -19.396391
v 8.552334 9.734777 -19.168537
v 8.654647 9.734777 -19.309359
v 8.552334 9.734777 -19.450182
v 8.506578 9.734778 -19.309359
vt 0.400000 0.370955
vt 0.400000 0.312500
vt 0.450000 0.312500
vt 0.450000 0.370955
vt 0.500000 0.312500
vt 0.500000 0.370955
vt 0.550000 0.312500
vt 0.550000 0.370955
vt 0.600000 0.312500
vt 0.600000 0.370955
vt 0.548284 0.007647
vt 0.500000 0.150000
vt 0.373591 0.064409
vt 0.373591 0.248091
vt 0.548284 0.304853
vt 0.656250 0.156250
vt 0.500000 0.641380
vt 0.450000 0.641380
vt 0.450000 0.641380
vt 0.500000 0.641380
vt 0.400000 0.641380
vt 0.400000 0.641380
vt 0.600000 0.641380
vt 0.600000 0.641380
vt 0.550000 0.641380
vt 0.550000 0.641380
vt 0.000000 0.000000
vt 1.000000 0.000000
vt 1.000000 1.000000
vt 0.000000 1.000000
vt 0.000000 0.000000
vt 1.000000 0.000000
vt 1.000000 1.000000
vt 0.000000 1.000000
vt 0.000000 0.000000
vt 1.000000 0.000000
vt 1.000000 1.000000
vt 0.000000 1.000000
vt 0.000000 0.000000
vt 1.000000 0.000000
vt 1.000000 1.000000
vt 0.000000 1.000000
vt 0.000000 0.000000
vt 1.000000 0.000000
vt 1.000000 1.000000
vt 0.000000 1.000000
vt 0.000000 0.000000
vt 1.000000 0.000000
vt 0.500000 1.000000
vt 0.000000 0.000000
vt 1.000000 0.000000
vt 0.500000 1.000000
vt 0.000000 0.000000
vt 1.000000 0.000000
vt 0.500000 1.000000
vt 0.000000 0.000000
vt 1.000000 0.000000
vt 0.500000 1.000000
vt 0.000000 0.000000
vt 1.000000 0.000000
vt 0.500000 1.000000
vn 0.308572 -0.053903 -0.949673
vn 0.304265 -0.174764 -0.936419
vn -0.796569 -0.174764 -0.578736
vn -0.807843 -0.053903 -0.586927
vn -0.796569 -0.174762 0.578736
vn -0.807843 -0.053902 0.586927
vn 0.304260 -0.174763 0.936421
vn 0.308571 -0.053903 0.949673
vn 0.984611 -0.174761 0.000000
vn 0.998546 -0.053902 0.000000
vn 0.000000 -1.000000 -0.000000
vn 0.000000 -1.000000 0.000000
vn 0.000000 -1.000000 -0.000005
vn 0.000000 -1.000000 0.000005
vn 0.000000 -1.000000 0.000000
vn 0.000000 -1.000000 0.000000
vn 0.806234 0.093053 -0.584233
vn 0.806234 0.093051 0.584232
vn -0.148183 0.983080 -0.107682
vn -0.148175 0.983085 0.107646
vn -0.305948 0.086881 0.948076
vn 0.056605 0.983082 -0.174200
vn -0.996545 0.083049 0.000000
vn 0.183164 0.983082 0.000002
vn -0.305944 0.086883 -0.948077
vn 0.056591 0.983090 0.174160
vn -0.808607 -0.031955 -0.587481
vn -0.808607 -0.031955 0.587481
vn 0.308863 -0.031955 -0.950570
vn 0.999489 -0.031955 -0.000000
vn 0.308863 -0.031955 0.950570
vn 0.802467 0.120171 -0.584471
vn 0.802466 0.120172 0.584471
vn -0.308797 0.114279 -0.944238
vn -0.993860 0.110646 0.000000
vn -0.308800 0.114279 0.944237
vn -0.000008 1.000000 0.000000
vn -0.000002 1.000000 -0.000011
vn 0.000006 1.000000 -0.000003
vn 0.000006 1.000000 0.000000
vn -0.000002 1.000000 0.000009
s 1
g polySurface7 Cocktail_Mixer_2_Cup2
usemtl initialShadingGroup
f 18/1/1 1/2/2 2/3/3 17/4/4
f 17/4/4 2/3/3 3/5/5 21/6/6
f 21/6/6 3/5/5 4/7/7 20/8/8
f 20/8/8 4/7/7 5/9/9 19/10/10
f 19/10/10 5/9/9 1/2/2 18/1/1
s 2
f 1/11/11 6/12/12 2/13/13
f 2/13/13 6/12/12 3/14/14
f 3/14/14 6/12/12 4/15/15
f 4/15/15 6/12/12 5/16/16
f 5/16/16 6/12/12 1/11/11
s 3
f 16/17/17 12/18/18 7/19/19 11/20/20
f 12/18/18 13/21/21 8/22/22 7/19/19
f 13/21/21 14/23/23 9/24/24 8/22/22
f 14/23/23 15/25/25 10/26/26 9/24/24
f 15/25/25 16/17/17 11/20/20 10/26/26
s 1
f 7/19/27 17/4/4 21/6/6 11/20/28
f 8/22/29 18/1/1 17/4/4 7/19/27
f 9/24/30 19/10/10 18/1/1 8/22/29
f 10/26/31 20/8/8 19/10/10 9/24/30
f 11/20/28 21/6/6 20/8/8 10/26/31
s 3
f 12/27/18 16/28/17 22/29/32 23/30/33
f 16/31/17 15/32/25 24/33/34 22/34/32
f 15/35/25 14/36/23 25/37/35 24/38/34
f 14/39/23 13/40/21 26/41/36 25/42/35
f 13/43/21 12/44/18 23/45/33 26/46/36
f 23/47/33 22/48/32 27/49/37
f 22/50/32 24/51/34 27/52/38
f 24/53/34 25/54/35 27/55/39
f 25/56/35 26/57/36 27/58/40
f 26/59/36 23/60/33 27/61/41
