# This file uses centimeters as units for non-parametric coordinates.

mtllib Coctail Mixer Cover.mtl
g default
v 8.352854 10.598948 -19.418444
v 8.560345 10.598948 -19.485863
v 8.688581 10.598948 -19.309359
v 8.560345 10.598948 -19.132856
v 8.352854 10.598948 -19.200274
v 8.352854 10.611854 -19.418444
v 8.560345 10.611854 -19.485863
v 8.688581 10.611854 -19.309359
v 8.560345 10.611854 -19.132856
v 8.352854 10.611854 -19.200274
v 8.344200 10.611854 -19.424730
v 8.563649 10.611854 -19.496035
v 8.699277 10.611854 -19.309359
v 8.563649 10.611854 -19.122684
v 8.344200 10.611854 -19.193987
v 8.344200 10.682236 -19.424730
v 8.563649 10.682236 -19.496035
v 8.699277 10.682236 -19.309359
v 8.563649 10.682236 -19.122684
v 8.344200 10.682236 -19.193987
v 8.356970 10.699956 -19.415453
v 8.558771 10.699956 -19.481024
v 8.683493 10.699956 -19.309359
v 8.558771 10.699956 -19.137697
v 8.356970 10.699956 -19.203266
v 8.440746 10.710510 -19.354586
v 8.526772 10.710510 -19.382538
v 8.579939 10.710510 -19.309361
v 8.526772 10.710510 -19.236181
v 8.440746 10.710510 -19.264133
v 8.440746 10.729256 -19.354586
v 8.526772 10.729256 -19.382538
v 8.579939 10.729256 -19.309361
v 8.526772 10.729256 -19.236181
v 8.440746 10.729256 -19.264133
v 8.450520 10.729256 -19.347486
v 8.523039 10.729256 -19.371050
v 8.567859 10.729256 -19.309361
v 8.523039 10.729256 -19.247671
v 8.450520 10.729256 -19.271235
v 8.450520 10.740508 -19.347486
v 8.523039 10.740508 -19.371050
v 8.567859 10.740508 -19.309361
v 8.523039 10.740508 -19.247671
v 8.450520 10.740508 -19.271235
v 8.443408 10.745075 -19.352654
v 8.525755 10.745075 -19.379410
v 8.576649 10.745075 -19.309361
v 8.525755 10.745075 -19.239311
v 8.443408 10.745075 -19.266068
v 8.443408 10.814574 -19.352654
v 8.525755 10.814574 -19.379410
v 8.576649 10.814574 -19.309361
v 8.525755 10.814574 -19.239311
v 8.443408 10.814574 -19.266068
v 8.502995 10.826349 -19.309361
v 8.387712 10.598948 -19.393118
v 8.547030 10.598948 -19.444885
v 8.645494 10.598948 -19.309359
v 8.547029 10.598948 -19.173834
v 8.387712 10.598948 -19.225599
v 8.502995 10.699231 -19.309359
vt 0.000000 1.000000
vt 0.000000 0.000000
vt 1.000000 0.000000
vt 1.000000 1.000000
vt 0.000000 1.000000
vt 0.000000 0.000000
vt 1.000000 0.000000
vt 1.000000 1.000000
vt 0.000000 1.000000
vt 0.000000 0.000000
vt 1.000000 0.000000
vt 1.000000 1.000000
vt 0.000000 1.000000
vt 0.000000 0.000000
vt 1.000000 0.000000
vt 1.000000 1.000000
vt 0.000000 1.000000
vt 0.000000 0.000000
vt 1.000000 0.000000
vt 1.000000 1.000000
vt 0.000000 1.000000
vt 0.000000 0.000000
vt 1.000000 0.000000
vt 1.000000 1.000000
vt 0.000000 1.000000
vt 0.000000 0.000000
vt 1.000000 0.000000
vt 1.000000 1.000000
vt 0.000000 1.000000
vt 0.000000 0.000000
vt 1.000000 0.000000
vt 1.000000 1.000000
vt 0.000000 1.000000
vt 0.000000 0.000000
vt 1.000000 0.000000
vt 1.000000 1.000000
vt 0.000000 1.000000
vt 0.000000 0.000000
vt 1.000000 0.000000
vt 1.000000 1.000000
vt 0.000000 1.000000
vt 0.000000 0.000000
vt 1.000000 0.000000
vt 1.000000 1.000000
vt 0.000000 1.000000
vt 0.000000 0.000000
vt 1.000000 0.000000
vt 1.000000 1.000000
vt 0.000000 1.000000
vt 0.000000 0.000000
vt 1.000000 0.000000
vt 1.000000 1.000000
vt 0.000000 1.000000
vt 0.000000 0.000000
vt 1.000000 0.000000
vt 1.000000 1.000000
vt 0.000000 1.000000
vt 0.000000 0.000000
vt 1.000000 0.000000
vt 1.000000 1.000000
vt 0.000000 1.000000
vt 0.000000 0.000000
vt 1.000000 0.000000
vt 1.000000 1.000000
vt 0.000000 1.000000
vt 0.000000 0.000000
vt 1.000000 0.000000
vt 1.000000 1.000000
vt 0.000000 1.000000
vt 0.000000 0.000000
vt 1.000000 0.000000
vt 1.000000 1.000000
vt 0.000000 1.000000
vt 0.000000 0.000000
vt 1.000000 0.000000
vt 1.000000 1.000000
vt 0.000000 1.000000
vt 0.000000 0.000000
vt 1.000000 0.000000
vt 1.000000 1.000000
vt 0.000000 1.000000
vt 0.000000 0.000000
vt 1.000000 0.000000
vt 1.000000 1.000000
vt 0.000000 1.000000
vt 0.000000 0.000000
vt 1.000000 0.000000
vt 1.000000 1.000000
vt 0.000000 1.000000
vt 0.000000 0.000000
vt 1.000000 0.000000
vt 1.000000 1.000000
vt 0.000000 1.000000
vt 0.000000 0.000000
vt 1.000000 0.000000
vt 1.000000 1.000000
vt 0.000000 1.000000
vt 0.000000 0.000000
vt 1.000000 0.000000
vt 1.000000 1.000000
vt 0.000000 1.000000
vt 0.000000 0.000000
vt 1.000000 0.000000
vt 1.000000 1.000000
vt 0.000000 1.000000
vt 0.000000 0.000000
vt 1.000000 0.000000
vt 1.000000 1.000000
vt 0.000000 1.000000
vt 0.000000 0.000000
vt 1.000000 0.000000
vt 1.000000 1.000000
vt 0.000000 1.000000
vt 0.000000 0.000000
vt 1.000000 0.000000
vt 1.000000 1.000000
vt 0.000000 1.000000
vt 0.000000 0.000000
vt 1.000000 0.000000
vt 1.000000 1.000000
vt 0.000000 1.000000
vt 0.000000 0.000000
vt 1.000000 0.000000
vt 1.000000 1.000000
vt 0.000000 1.000000
vt 0.000000 0.000000
vt 1.000000 0.000000
vt 1.000000 1.000000
vt 0.000000 1.000000
vt 0.000000 0.000000
vt 1.000000 0.000000
vt 1.000000 1.000000
vt 0.000000 1.000000
vt 0.000000 0.000000
vt 1.000000 0.000000
vt 1.000000 1.000000
vt 0.000000 1.000000
vt 0.000000 0.000000
vt 1.000000 0.000000
vt 1.000000 1.000000
vt 0.000000 1.000000
vt 0.000000 0.000000
vt 1.000000 0.000000
vt 1.000000 1.000000
vt 0.000000 1.000000
vt 0.000000 0.000000
vt 1.000000 0.000000
vt 1.000000 1.000000
vt 0.000000 1.000000
vt 0.000000 0.000000
vt 1.000000 0.000000
vt 1.000000 1.000000
vt 0.000000 1.000000
vt 0.000000 0.000000
vt 1.000000 0.000000
vt 1.000000 1.000000
vt 0.000000 1.000000
vt 0.000000 0.000000
vt 1.000000 0.000000
vt 1.000000 1.000000
vt 0.000000 1.000000
vt 0.000000 0.000000
vt 1.000000 0.000000
vt 1.000000 1.000000
vt 0.000000 1.000000
vt 0.000000 0.000000
vt 1.000000 0.000000
vt 1.000000 1.000000
vt 0.000000 1.000000
vt 0.000000 0.000000
vt 1.000000 0.000000
vt 1.000000 1.000000
vt 0.000000 1.000000
vt 0.000000 0.000000
vt 1.000000 0.000000
vt 1.000000 1.000000
vt 0.000000 1.000000
vt 0.000000 0.000000
vt 1.000000 0.000000
vt 1.000000 1.000000
vt 0.000000 1.000000
vt 0.000000 0.000000
vt 1.000000 0.000000
vt 1.000000 1.000000
vt 0.000000 1.000000
vt 0.000000 0.000000
vt 1.000000 0.000000
vt 1.000000 1.000000
vt 0.000000 1.000000
vt 0.000000 0.000000
vt 1.000000 0.000000
vt 1.000000 1.000000
vt 0.000000 1.000000
vt 0.000000 0.000000
vt 1.000000 0.000000
vt 1.000000 1.000000
vt 0.000000 1.000000
vt 0.000000 0.000000
vt 1.000000 0.000000
vt 1.000000 1.000000
vt 0.500000 1.000000
vt 0.000000 0.000000
vt 1.000000 0.000000
vt 0.500000 1.000000
vt 0.000000 0.000000
vt 1.000000 0.000000
vt 0.500000 1.000000
vt 0.000000 0.000000
vt 1.000000 0.000000
vt 0.500000 1.000000
vt 0.000000 0.000000
vt 1.000000 0.000000
vt 0.500000 1.000000
vt 0.000000 0.000000
vt 1.000000 0.000000
vt 0.000000 0.000000
vt 1.000000 0.000000
vt 1.000000 1.000000
vt 0.000000 1.000000
vt 0.000000 0.000000
vt 1.000000 0.000000
vt 1.000000 1.000000
vt 0.000000 1.000000
vt 0.000000 0.000000
vt 1.000000 0.000000
vt 1.000000 1.000000
vt 0.000000 1.000000
vt 0.000000 0.000000
vt 1.000000 0.000000
vt 1.000000 1.000000
vt 0.000000 1.000000
vt 0.000000 0.000000
vt 1.000000 0.000000
vt 1.000000 1.000000
vt 0.000000 1.000000
vt 0.000000 0.000000
vt 1.000000 0.000000
vt 0.500000 1.000000
vt 0.000000 0.000000
vt 1.000000 0.000000
vt 0.500000 1.000000
vt 0.000000 0.000000
vt 1.000000 0.000000
vt 0.500000 1.000000
vt 0.000000 0.000000
vt 1.000000 0.000000
vt 0.500000 1.000000
vt 0.000000 0.000000
vt 1.000000 0.000000
vt 0.500000 1.000000
vn -0.809021 0.000000 -0.587780
vn -0.809021 0.000000 -0.587780
vn -0.809019 0.000000 0.587783
vn -0.809019 0.000000 0.587783
vn 0.309023 0.000000 -0.951055
vn 0.309023 0.000000 -0.951055
vn 1.000000 0.000000 0.000000
vn 1.000000 0.000000 0.000000
vn 0.309023 0.000000 0.951055
vn 0.309023 0.000000 0.951055
vn 0.000000 -1.000000 0.000000
vn 0.000000 -1.000000 0.000000
vn 0.000000 -1.000000 0.000000
vn 0.000000 -1.000000 0.000000
vn 0.000000 -1.000000 0.000000
vn 0.000000 -1.000000 0.000000
vn 0.000000 -1.000000 0.000031
vn 0.000000 -1.000000 0.000031
vn 0.000000 -1.000000 0.000031
vn 0.000000 -1.000000 0.000031
vn -0.801663 0.134547 -0.582437
vn -0.809021 0.000000 -0.587780
vn -0.809018 0.000000 0.587784
vn -0.801656 0.134556 0.582445
vn 0.306208 0.134546 -0.942409
vn 0.309016 0.000000 -0.951057
vn 0.990907 0.134550 -0.000000
vn 1.000000 0.000000 -0.000000
vn 0.306209 0.134555 0.942407
vn 0.309020 0.000000 0.951055
vn -0.317022 0.920023 -0.230336
vn -0.317020 0.920026 0.230327
vn 0.121089 0.920022 -0.372688
vn 0.391861 0.920025 0.000001
vn 0.121088 0.920026 0.372679
vn -0.082032 0.994846 -0.059596
vn -0.082032 0.994846 0.059597
vn 0.031333 0.994847 -0.096429
vn 0.101396 0.994846 -0.000001
vn 0.031333 0.994847 0.096430
vn -0.809023 0.000000 -0.587776
vn -0.809023 0.000000 -0.587776
vn -0.809027 0.000000 0.587771
vn -0.809027 0.000000 0.587771
vn 0.309020 0.000000 -0.951056
vn 0.309020 0.000000 -0.951056
vn 1.000000 0.000000 0.000000
vn 1.000000 0.000000 0.000000
vn 0.309020 0.000000 0.951056
vn 0.309020 0.000000 0.951056
vn 0.000000 1.000000 -0.000037
vn 0.000000 1.000000 -0.000037
vn 0.000000 1.000000 0.000037
vn 0.000000 1.000000 0.000037
vn 0.000000 1.000000 -0.000055
vn 0.000000 1.000000 -0.000055
vn 0.000000 1.000000 0.000000
vn 0.000000 1.000000 0.000000
vn 0.000000 1.000000 0.000055
vn 0.000000 1.000000 0.000055
vn -0.809029 0.000000 -0.587768
vn -0.809029 0.000000 -0.587768
vn -0.809033 0.000000 0.587763
vn -0.809033 0.000000 0.587763
vn 0.309035 0.000000 -0.951051
vn 0.309035 0.000000 -0.951051
vn 1.000000 0.000000 0.000000
vn 1.000000 0.000000 0.000000
vn 0.309025 0.000000 0.951054
vn 0.309025 0.000000 0.951054
vn -0.373003 -0.887374 -0.270992
vn -0.373007 -0.887374 -0.270987
vn -0.373004 -0.887376 0.270983
vn -0.373000 -0.887376 0.270989
vn 0.142471 -0.887375 -0.438483
vn 0.142480 -0.887375 -0.438480
vn 0.461049 -0.887374 -0.000001
vn 0.461049 -0.887374 -0.000001
vn 0.142475 -0.887377 0.438478
vn 0.142484 -0.887377 0.438475
vn -0.773758 0.292022 -0.562158
vn -0.809021 0.000000 -0.587780
vn -0.809021 0.000000 0.587780
vn -0.773758 0.292022 0.562158
vn 0.295553 0.292021 -0.909600
vn 0.309021 0.000000 -0.951055
vn 0.956413 0.292018 0.000000
vn 1.000000 0.000000 0.000000
vn 0.295553 0.292021 0.909600
vn 0.309021 0.000000 0.951055
vn -0.000000 1.000000 0.000000
vn 0.000000 -1.000000 0.000002
vn 0.000000 -1.000000 -0.000001
vn -0.085908 -0.960581 0.264394
vn 0.224908 -0.960580 0.163410
vn 0.000000 -1.000000 -0.000003
vn -0.278004 -0.960580 -0.000000
vn 0.000000 -1.000000 0.000008
vn -0.085907 -0.960581 -0.264395
vn 0.000000 -1.000000 0.000008
vn 0.224912 -0.960580 -0.163404
vn -0.000000 -1.000000 0.000002
s 1
g polySurface8 Cocktail_Mixer_2_Cover2
usemtl initialShadingGroup
f 6/1/1 1/2/2 5/3/3 10/4/4
f 7/5/5 2/6/6 1/7/2 6/8/1
f 8/9/7 3/10/8 2/11/6 7/12/5
f 9/13/9 4/14/10 3/15/8 8/16/7
f 10/17/4 5/18/3 4/19/10 9/20/9
s 2
f 11/21/11 6/22/12 10/23/13 15/24/14
f 12/25/15 7/26/16 6/27/12 11/28/11
f 13/29/17 8/30/18 7/31/16 12/32/15
f 14/33/19 9/34/20 8/35/18 13/36/17
f 15/37/14 10/38/13 9/39/20 14/40/19
s 3
f 16/41/21 11/42/22 15/43/23 20/44/24
f 17/45/25 12/46/26 11/47/22 16/48/21
f 18/49/27 13/50/28 12/51/26 17/52/25
f 19/53/29 14/54/30 13/55/28 18/56/27
f 20/57/24 15/58/23 14/59/30 19/60/29
f 21/61/31 16/62/21 20/63/24 25/64/32
f 22/65/33 17/66/25 16/67/21 21/68/31
f 23/69/34 18/70/27 17/71/25 22/72/33
f 24/73/35 19/74/29 18/75/27 23/76/34
f 25/77/32 20/78/24 19/79/29 24/80/35
f 26/81/36 21/82/31 25/83/32 30/84/37
f 27/85/38 22/86/33 21/87/31 26/88/36
f 28/89/39 23/90/34 22/91/33 27/92/38
f 29/93/40 24/94/35 23/95/34 28/96/39
f 30/97/37 25/98/32 24/99/35 29/100/40
s 4
f 31/101/41 26/102/42 30/103/43 35/104/44
f 32/105/45 27/106/46 26/107/42 31/108/41
f 33/109/47 28/110/48 27/111/46 32/112/45
f 34/113/49 29/114/50 28/115/48 33/116/47
f 35/117/44 30/118/43 29/119/50 34/120/49
s 5
f 36/121/51 31/122/52 35/123/53 40/124/54
f 37/125/55 32/126/56 31/127/52 36/128/51
f 38/129/57 33/130/58 32/131/56 37/132/55
f 39/133/59 34/134/60 33/135/58 38/136/57
f 40/137/54 35/138/53 34/139/60 39/140/59
s 6
f 41/141/61 36/142/62 40/143/63 45/144/64
f 42/145/65 37/146/66 36/147/62 41/148/61
f 43/149/67 38/150/68 37/151/66 42/152/65
f 44/153/69 39/154/70 38/155/68 43/156/67
f 45/157/64 40/158/63 39/159/70 44/160/69
s 7
f 46/161/71 41/162/72 45/163/73 50/164/74
f 47/165/75 42/166/76 41/167/72 46/168/71
f 48/169/77 43/170/78 42/171/76 47/172/75
f 49/173/79 44/174/80 43/175/78 48/176/77
f 50/177/74 45/178/73 44/179/80 49/180/79
s 8
f 51/181/81 46/182/82 50/183/83 55/184/84
f 52/185/85 47/186/86 46/187/82 51/188/81
f 53/189/87 48/190/88 47/191/86 52/192/85
f 54/193/89 49/194/90 48/195/88 53/196/87
f 55/197/84 50/198/83 49/199/90 54/200/89
f 56/201/91 51/202/81 55/203/84
f 56/204/91 52/205/85 51/206/81
f 56/207/91 53/208/87 52/209/85
f 56/210/91 54/211/89 53/212/87
f 56/213/91 55/214/84 54/215/89
s 9
f 1/216/92 2/217/93 58/218/94 57/219/95
f 2/220/93 3/221/96 59/222/97 58/223/94
f 3/224/96 4/225/98 60/226/99 59/227/97
f 4/228/98 5/229/100 61/230/101 60/231/99
f 5/232/100 1/233/92 57/234/95 61/235/101
f 57/236/95 58/237/94 62/238/102
f 58/239/94 59/240/97 62/241/102
f 59/242/97 60/243/99 62/244/102
f 60/245/99 61/246/101 62/247/102
f 61/248/101 57/249/95 62/250/102
