# This file uses centimeters as units for non-parametric coordinates.

mtllib Mystery Potion Bottle.mtl
g default
v 8.391302 9.703119 -17.022596
v 8.064897 9.703119 -16.916537
v 8.064897 9.703119 -16.573334
v 8.391302 9.703119 -16.467279
v 8.593031 9.703119 -16.744936
v 8.389921 9.839082 -17.018361
v 8.068499 9.839082 -16.913920
v 8.068499 9.839082 -16.575953
v 8.389921 9.839082 -16.471516
v 8.588577 9.839082 -16.744936
v 8.332233 10.314809 -16.840799
v 8.219539 10.314809 -16.804185
v 8.219539 10.314809 -16.685688
v 8.332233 10.314809 -16.649074
v 8.401883 10.314809 -16.744936
v 8.249073 9.703119 -16.707148
v 8.321959 10.357190 -16.809185
v 8.246432 10.357190 -16.784643
v 8.246432 10.357190 -16.705229
v 8.321959 10.357190 -16.680690
v 8.368640 10.357190 -16.744936
v 8.321959 10.536604 -16.809185
v 8.246432 10.536604 -16.784643
v 8.246432 10.536604 -16.705229
v 8.321959 10.536604 -16.680690
v 8.368640 10.536604 -16.744936
v 8.325020 10.552289 -16.818602
v 8.238423 10.552289 -16.790463
v 8.238423 10.552289 -16.699410
v 8.325020 10.552289 -16.671273
v 8.378541 10.552289 -16.744936
v 8.322008 10.572580 -16.809333
v 8.246308 10.572580 -16.784736
v 8.246308 10.572580 -16.705139
v 8.322008 10.572580 -16.680542
v 8.368795 10.572580 -16.744936
v 8.319253 10.559792 -16.800852
v 8.253520 10.559792 -16.779494
v 8.253520 10.559792 -16.710379
v 8.319253 10.559792 -16.689020
v 8.359880 10.559792 -16.744936
v 8.054180 9.730701 -16.924323
v 8.395393 9.730701 -17.035194
v 8.606278 9.730701 -16.744936
v 8.395393 9.730701 -16.454681
v 8.054180 9.730701 -16.565548
v 8.301085 9.699584 -16.744936
vt 0.100000 0.200000
vt 0.300000 0.200000
vt 0.500000 0.200000
vt 0.700000 0.200000
vt 0.900000 0.200000
vt 0.100000 0.300000
vt 0.300000 0.300000
vt 0.500000 0.300000
vt 0.700000 0.300000
vt 0.900000 0.300000
vt 0.100000 0.900000
vt 0.300000 0.900000
vt 0.500000 0.900000
vt 0.700000 0.900000
vt 0.900000 0.900000
vt 0.000000 0.000000
vt 0.000000 1.000000
vt 0.723607 0.000000
vt 0.105573 0.200812
vt 0.850651 0.000000
vt 0.124108 1.000000
vt 0.124108 0.236068
vt 0.000000 0.500000
vt 0.487380 0.500000
vt 1.000000 0.000000
vt 0.000000 0.000000
vt 1.000000 0.000000
vt 0.000000 0.000000
vt 1.000000 0.000000
vt 0.000000 0.000000
vt 1.000000 0.000000
vt 0.000000 0.000000
vt 1.000000 0.000000
vt 0.000000 0.000000
vt 1.000000 1.000000
vt 0.000000 1.000000
vt 1.000000 1.000000
vt 0.000000 1.000000
vt 1.000000 1.000000
vt 0.000000 1.000000
vt 1.000000 1.000000
vt 0.000000 1.000000
vt 1.000000 1.000000
vt 0.000000 1.000000
vt 1.000000 0.000000
vt 1.000000 1.000000
vt 0.000000 0.000000
vt 0.000000 1.000000
vt 1.000000 0.000000
vt 1.000000 1.000000
vt 0.000000 0.000000
vt 0.000000 1.000000
vt 1.000000 0.000000
vt 1.000000 1.000000
vt 0.000000 0.000000
vt 0.000000 1.000000
vt 1.000000 0.000000
vt 1.000000 1.000000
vt 0.000000 0.000000
vt 0.000000 1.000000
vt 1.000000 0.000000
vt 1.000000 1.000000
vt 0.000000 0.000000
vt 0.000000 1.000000
vt 1.000000 0.000000
vt 1.000000 1.000000
vt 0.000000 0.000000
vt 0.000000 1.000000
vt 1.000000 0.000000
vt 1.000000 1.000000
vt 0.000000 0.000000
vt 0.000000 1.000000
vt 1.000000 0.000000
vt 1.000000 1.000000
vt 0.000000 0.000000
vt 0.000000 1.000000
vt 1.000000 0.000000
vt 1.000000 1.000000
vt 0.000000 0.000000
vt 0.000000 1.000000
vt 1.000000 0.000000
vt 1.000000 1.000000
vt 0.000000 0.000000
vt 0.000000 1.000000
vt 1.000000 0.000000
vt 0.000000 0.000000
vt 1.000000 0.000000
vt 0.000000 0.000000
vt 1.000000 0.000000
vt 0.000000 0.000000
vt 1.000000 0.000000
vt 0.000000 0.000000
vt 1.000000 0.000000
vt 0.000000 0.000000
vt 1.000000 1.000000
vt 0.000000 1.000000
vt 1.000000 1.000000
vt 0.000000 1.000000
vt 1.000000 1.000000
vt 0.000000 1.000000
vt 1.000000 1.000000
vt 0.000000 1.000000
vt 1.000000 1.000000
vt 0.000000 1.000000
vt 1.000000 0.000000
vt 1.000000 1.000000
vt 0.000000 0.000000
vt 0.000000 1.000000
vt 1.000000 0.000000
vt 1.000000 1.000000
vt 0.000000 0.000000
vt 0.000000 1.000000
vt 1.000000 0.000000
vt 1.000000 1.000000
vt 0.000000 0.000000
vt 0.000000 1.000000
vt 1.000000 0.000000
vt 1.000000 1.000000
vt 0.000000 0.000000
vt 0.000000 1.000000
vt 1.000000 0.000000
vt 1.000000 1.000000
vt 0.000000 0.000000
vt 0.000000 1.000000
vt 0.300000 0.246953
vt 0.100000 0.246953
vt 0.900000 0.246953
vt 0.700000 0.246953
vt 0.500000 0.246953
vt 0.000000 0.000000
vt 1.000000 0.000000
vt 0.500000 1.000000
vt 0.000000 0.000000
vt 1.000000 0.000000
vt 0.500000 1.000000
vt 0.000000 0.000000
vt 1.000000 0.000000
vt 0.500000 1.000000
vt 0.000000 0.000000
vt 1.000000 0.000000
vt 0.500000 1.000000
vt 0.000000 0.000000
vt 1.000000 0.000000
vt 0.500000 1.000000
vn -0.808249 0.043690 -0.587218
vn 0.308725 0.043700 -0.950147
vn 0.278573 -0.432913 -0.857312
vn -0.729274 -0.432925 -0.529845
vn -0.808244 0.043698 0.587224
vn -0.729271 -0.432927 0.529848
vn 0.308724 0.043710 0.950147
vn 0.278576 -0.432912 0.857311
vn 0.999044 0.043718 -0.000000
vn 0.901443 -0.432897 0.000000
vn 0.287664 0.365318 -0.885320
vn 0.287657 0.365318 -0.885322
vn -0.753104 0.365319 -0.547153
vn -0.753102 0.365319 -0.547155
vn -0.753103 0.365318 0.547155
vn -0.753101 0.365318 0.547158
vn 0.287658 0.365314 0.885324
vn 0.287664 0.365314 0.885322
vn 0.930884 0.365316 -0.000000
vn 0.930884 0.365316 0.000000
vn 0.000000 -1.000000 0.000000
vn 0.000000 -1.000000 0.000000
vn 0.000000 -1.000000 0.000000
vn 0.000000 -1.000000 0.000000
vn 0.000000 -1.000000 0.000000
vn 0.000000 -1.000000 0.000000
vn 0.302456 0.204840 -0.930892
vn 0.243163 0.617164 -0.748318
vn -0.636560 0.617159 -0.462500
vn -0.791870 0.204838 -0.575312
vn -0.636554 0.617167 0.462499
vn -0.791864 0.204844 0.575317
vn 0.243156 0.617173 0.748313
vn 0.302457 0.204844 0.930891
vn 0.786822 0.617180 0.000000
vn 0.978794 0.204849 0.000000
vn 0.309011 0.000000 -0.951058
vn -0.809023 0.000000 -0.587777
vn -0.809018 0.000000 0.587785
vn 0.309011 0.000000 0.951058
vn 1.000000 0.000000 -0.000000
vn 0.309025 0.009108 -0.951010
vn 0.261281 -0.533792 -0.804237
vn -0.684138 -0.533761 -0.497046
vn -0.808992 0.009120 -0.587749
vn -0.684131 -0.533764 0.497052
vn -0.808979 0.009132 0.587767
vn 0.261283 -0.533787 0.804240
vn 0.309021 0.009124 0.951012
vn 0.845602 -0.533814 0.000002
vn 0.999959 0.009103 -0.000001
vn 0.200905 0.759795 -0.618344
vn -0.525999 0.759792 -0.382154
vn -0.525995 0.759796 0.382151
vn 0.200892 0.759800 0.618342
vn 0.650150 0.759806 0.000002
vn 0.663657 0.571927 0.482141
vn -0.253484 0.571950 0.780140
vn 0.663668 0.571878 -0.482183
vn -0.253481 0.571886 -0.780188
vn -0.820313 0.571914 0.000000
vn 0.304967 0.161176 -0.938625
vn -0.798445 0.161166 -0.580096
vn 0.986923 0.161191 0.000000
vn 0.304970 0.161188 0.938622
vn -0.798444 0.161177 0.580094
vn 0.308556 0.055210 0.949603
vn 0.308556 0.055210 0.949603
vn 0.308556 0.055210 0.949603
vn 0.998475 0.055211 0.000000
vn 0.998475 0.055211 0.000000
vn 0.998475 0.055211 0.000000
vn 0.308556 0.055210 -0.949603
vn 0.308556 0.055210 -0.949603
vn 0.308556 0.055210 -0.949603
vn -0.807772 0.055211 -0.586905
vn -0.807772 0.055211 -0.586905
vn -0.807772 0.055211 -0.586905
vn -0.807772 0.055211 0.586905
vn -0.807772 0.055211 0.586905
vn -0.807772 0.055211 0.586905
s 1
g Mystery_Potion_Bottle
usemtl initialShadingGroup
f 42/125/1 43/126/2 1/1/3 2/2/4
f 46/129/5 42/125/1 2/2/4 3/3/6
f 45/128/7 46/129/5 3/3/6 4/4/8
f 44/127/9 45/128/7 4/4/8 5/5/10
f 43/126/2 44/127/9 5/5/10 1/1/3
s 2
f 11/11/11 6/6/12 7/7/13 12/12/14
f 12/12/14 7/7/13 8/8/15 13/13/16
f 13/13/16 8/8/15 9/9/17 14/14/18
f 14/14/18 9/9/17 10/10/19 15/15/20
f 11/11/11 15/15/20 10/10/19 6/6/12
s 3
f 4/17/21 16/23/22 5/18/23
f 5/18/23 16/23/22 1/19/24
f 1/19/24 16/23/22 2/16/25
f 3/22/26 16/24/22 4/21/21
f 2/20/25 16/24/22 3/22/26
s 4
f 17/36/27 11/26/28 12/27/29 18/37/30
f 18/38/30 12/28/29 13/29/31 19/39/32
f 19/40/32 13/30/31 14/31/33 20/41/34
f 20/42/34 14/32/33 15/33/35 21/43/36
f 17/35/27 21/44/36 15/34/35 11/25/28
f 22/48/37 17/47/27 18/49/30 23/50/38
f 23/52/38 18/51/30 19/53/32 24/54/39
f 24/56/39 19/55/32 20/57/34 25/58/40
f 25/60/40 20/59/34 21/61/36 26/62/41
f 22/46/37 26/64/41 21/63/36 17/45/27
s 5
f 27/68/42 22/67/43 23/69/44 28/70/45
f 28/72/45 23/71/44 24/73/46 29/74/47
f 29/76/47 24/75/46 25/77/48 30/78/49
f 30/80/49 25/79/48 26/81/50 31/82/51
f 27/66/42 31/84/51 26/83/50 22/65/43
f 32/96/52 27/86/42 28/87/45 33/97/53
f 33/98/53 28/88/45 29/89/47 34/99/54
f 34/100/54 29/90/47 30/91/49 35/101/55
f 35/102/55 30/92/49 31/93/51 36/103/56
f 32/95/52 36/104/56 31/94/51 27/85/42
f 38/110/57 37/108/58 32/107/52 33/109/53
f 39/114/59 38/112/57 33/111/53 34/113/54
f 40/118/60 39/116/59 34/115/54 35/117/55
f 41/122/61 40/120/60 35/119/55 36/121/56
f 37/106/58 41/124/61 36/123/56 32/105/52
s 1
f 6/6/62 43/126/2 42/125/1 7/7/63
f 6/6/62 10/10/64 44/127/9 43/126/2
f 9/9/65 45/128/7 44/127/9 10/10/64
f 8/8/66 46/129/5 45/128/7 9/9/65
f 7/7/63 42/125/1 46/129/5 8/8/66
s off
f 37/130/67 38/131/68 47/132/69
f 38/133/70 39/134/71 47/135/72
f 39/136/73 40/137/74 47/138/75
f 40/139/76 41/140/77 47/141/78
f 41/142/79 37/143/80 47/144/81
