# This file uses centimeters as units for non-parametric coordinates.

mtllib Rum Bottle.mtl
g default
v 8.416030 9.685965 -12.397270
v 8.249047 9.685965 -12.286091
v 8.249047 9.685965 -11.926311
v 8.416030 9.685965 -11.815127
v 8.519232 9.685965 -12.106202
v 8.391554 10.997275 -12.172911
v 8.313127 10.997275 -12.147433
v 8.313127 10.997275 -12.064970
v 8.391554 10.997275 -12.039489
v 8.440021 10.997275 -12.106201
v 8.369878 9.688555 -12.106202
v 8.241160 9.813875 -12.297828
v 8.419041 9.813875 -12.416263
v 8.528981 9.813875 -12.106202
v 8.419041 9.813875 -11.796138
v 8.241160 9.813875 -11.914570
v 8.234706 10.488765 -12.307443
v 8.421509 10.488765 -12.431816
v 8.536960 10.488765 -12.106202
v 8.421509 10.488765 -11.780585
v 8.234706 10.488765 -11.904959
v 8.286110 10.567093 -12.167061
v 8.401874 10.567093 -12.204672
v 8.473416 10.567093 -12.106201
v 8.401874 10.567093 -12.007729
v 8.286110 10.567093 -12.045341
v 8.248684 9.829800 -12.286632
v 8.416169 9.829800 -12.398145
v 8.519681 9.829800 -12.106202
v 8.416169 9.829800 -11.814256
v 8.248684 9.829800 -11.925771
v 8.394078 11.007210 -12.180681
v 8.306522 11.007210 -12.152232
v 8.306522 11.007210 -12.060165
v 8.394078 11.007210 -12.031715
v 8.448186 11.007210 -12.106201
v 8.390865 11.016667 -12.170794
v 8.314930 11.016667 -12.146120
v 8.314930 11.016667 -12.066276
v 8.390865 11.016667 -12.041599
v 8.437792 11.016667 -12.106200
v 8.390865 11.034303 -12.170794
v 8.314930 11.034303 -12.146120
v 8.314930 11.034303 -12.066276
v 8.390865 11.034303 -12.041599
v 8.437792 11.034303 -12.106200
v 8.388118 11.034303 -12.162337
v 8.322122 11.034303 -12.140896
v 8.322122 11.034303 -12.071502
v 8.388118 11.034303 -12.050056
v 8.428902 11.034303 -12.106199
v 8.369876 9.879404 -12.106198
vt 0.548284 0.007647
vt 0.373591 0.064409
vt 0.373591 0.248091
vt 0.548284 0.304853
vt 0.656250 0.156250
vt 0.412500 0.312500
vt 0.462500 0.312500
vt 0.512500 0.312500
vt 0.562500 0.312500
vt 0.612500 0.312500
vt 0.412500 0.688440
vt 0.462500 0.688440
vt 0.512500 0.688440
vt 0.562500 0.688440
vt 0.612500 0.688440
vt 0.500000 0.150000
vt 0.462500 0.336850
vt 0.412500 0.336850
vt 0.612500 0.336850
vt 0.562500 0.336850
vt 0.512500 0.336850
vt 0.462500 0.664123
vt 0.412500 0.664123
vt 0.612500 0.664123
vt 0.562500 0.664123
vt 0.512500 0.664123
vt 0.462500 0.673112
vt 0.412500 0.673112
vt 0.612500 0.673112
vt 0.562500 0.673112
vt 0.512500 0.673112
vt 0.462500 0.345609
vt 0.412500 0.345609
vt 0.612500 0.345609
vt 0.562500 0.345609
vt 0.512500 0.345609
vt 1.000000 0.000000
vt 0.000000 0.000000
vt 1.000000 0.000000
vt 0.000000 0.000000
vt 1.000000 0.000000
vt 0.000000 0.000000
vt 1.000000 0.000000
vt 0.000000 0.000000
vt 1.000000 0.000000
vt 0.000000 0.000000
vt 1.000000 1.000000
vt 0.000000 1.000000
vt 1.000000 1.000000
vt 0.000000 1.000000
vt 1.000000 1.000000
vt 0.000000 1.000000
vt 1.000000 1.000000
vt 0.000000 1.000000
vt 1.000000 1.000000
vt 0.000000 1.000000
vt 1.000000 0.000000
vt 1.000000 1.000000
vt 0.000000 0.000000
vt 0.000000 1.000000
vt 1.000000 0.000000
vt 1.000000 1.000000
vt 0.000000 0.000000
vt 0.000000 1.000000
vt 1.000000 0.000000
vt 1.000000 1.000000
vt 0.000000 0.000000
vt 0.000000 1.000000
vt 1.000000 0.000000
vt 1.000000 1.000000
vt 0.000000 0.000000
vt 0.000000 1.000000
vt 1.000000 0.000000
vt 1.000000 1.000000
vt 0.000000 0.000000
vt 0.000000 1.000000
vt 1.000000 0.000000
vt 1.000000 1.000000
vt 0.000000 0.000000
vt 0.000000 1.000000
vt 1.000000 0.000000
vt 1.000000 1.000000
vt 0.000000 0.000000
vt 0.000000 1.000000
vt 1.000000 0.000000
vt 1.000000 1.000000
vt 0.000000 0.000000
vt 0.000000 1.000000
vt 1.000000 0.000000
vt 1.000000 1.000000
vt 0.000000 0.000000
vt 0.000000 1.000000
vt 1.000000 0.000000
vt 1.000000 1.000000
vt 0.000000 0.000000
vt 0.000000 1.000000
vt 1.000000 0.000000
vt 1.000000 1.000000
vt 0.000000 0.000000
vt 0.000000 1.000000
vt 1.000000 0.000000
vt 1.000000 1.000000
vt 0.000000 0.000000
vt 0.000000 1.000000
vt 1.000000 0.000000
vt 1.000000 1.000000
vt 0.000000 0.000000
vt 0.000000 1.000000
vt 1.000000 0.000000
vt 1.000000 1.000000
vt 0.000000 0.000000
vt 0.000000 1.000000
vt 1.000000 0.000000
vt 1.000000 1.000000
vt 0.000000 0.000000
vt 0.000000 1.000000
vt 0.000000 0.000000
vt 1.000000 0.000000
vt 0.500000 1.000000
vt 0.000000 0.000000
vt 1.000000 0.000000
vt 0.500000 1.000000
vt 0.000000 0.000000
vt 1.000000 0.000000
vt 0.500000 1.000000
vt 0.000000 0.000000
vt 1.000000 0.000000
vt 0.500000 1.000000
vt 0.000000 0.000000
vt 1.000000 0.000000
vt 0.500000 1.000000
vn -0.923301 -0.021063 -0.383498
vn 0.512905 -0.059433 -0.856386
vn 0.568252 -0.133940 -0.811880
vn -0.949234 -0.086284 -0.302505
vn -0.923293 -0.021056 0.383518
vn -0.949239 -0.086283 0.302491
vn 0.512923 -0.059425 0.856375
vn 0.568256 -0.133936 0.811879
vn 0.999921 -0.012601 0.000000
vn 0.997109 -0.075978 -0.000000
vn -0.002389 -0.999961 0.008520
vn 0.000458 -1.000000 0.000000
vn 0.010684 -0.999917 0.007223
vn 0.010684 -0.999917 -0.007222
vn -0.002389 -0.999961 -0.008520
vn -0.017341 -0.999850 0.000000
vn -0.820992 0.532557 -0.205803
vn 0.426894 0.711713 -0.557876
vn 0.863601 0.504176 -0.000000
vn 0.426884 0.711742 0.557847
vn -0.820992 0.532570 0.205772
vn -0.612355 0.770871 0.175441
vn -0.612355 0.770871 -0.175441
vn -0.926975 0.074561 -0.367639
vn -0.926975 0.074560 0.367640
vn 0.239818 0.903366 -0.355551
vn 0.529248 0.056063 -0.846613
vn 0.649625 0.760255 0.000002
vn 0.998824 0.048473 -0.000000
vn 0.239822 0.903366 0.355551
vn 0.529254 0.056062 0.846610
vn -0.806578 0.077397 -0.586039
vn -0.806583 0.077397 -0.586032
vn -0.806585 0.077396 0.586029
vn -0.806585 0.077396 0.586029
vn 0.308097 0.077396 -0.948201
vn 0.308094 0.077396 -0.948202
vn 0.997000 0.077396 -0.000001
vn 0.997000 0.077396 0.000000
vn 0.308095 0.077396 0.948202
vn 0.308096 0.077396 0.948202
vn -0.946058 -0.030255 -0.322580
vn -0.946059 -0.030255 0.322579
vn 0.561205 -0.046773 -0.826354
vn 0.999656 -0.026212 0.000000
vn 0.561210 -0.046774 0.826351
vn 0.307587 0.094537 -0.946812
vn 0.238755 -0.635037 -0.734659
vn -0.624982 -0.634975 -0.454098
vn -0.805373 0.094521 -0.585184
vn -0.624991 -0.635100 0.453910
vn -0.805286 0.094339 0.585332
vn 0.238747 -0.635202 0.734519
vn 0.307599 0.094287 0.946833
vn 0.772471 -0.635051 -0.000002
vn 0.995531 0.094432 -0.000020
vn 0.207933 0.739752 -0.639946
vn -0.544438 0.739710 -0.395494
vn -0.544472 0.739668 0.395528
vn 0.207958 0.739690 0.640009
vn 0.672945 0.739692 0.000015
vn 0.309016 0.000000 -0.951057
vn 0.309016 0.000000 -0.951057
vn -0.809024 0.000000 -0.587775
vn -0.809024 0.000000 -0.587775
vn -0.809033 0.000000 0.587764
vn -0.809033 0.000000 0.587764
vn 0.309046 0.000000 0.951047
vn 0.309046 0.000000 0.951047
vn 1.000000 0.000000 0.000000
vn 1.000000 0.000000 0.000000
vn 0.000000 1.000000 0.000004
vn 0.000000 1.000000 0.000005
vn 0.000000 1.000000 0.000005
vn 0.000000 1.000000 0.000004
vn 0.000000 1.000000 -0.000007
vn 0.000000 1.000000 -0.000007
vn 0.000000 1.000000 -0.000006
vn 0.000000 1.000000 -0.000006
vn 0.000000 1.000000 0.000002
vn 0.000000 1.000000 0.000002
vn 0.308732 0.041315 0.950251
vn 0.308732 0.041315 0.950251
vn 0.308732 0.041315 0.950251
vn 0.999146 0.041314 0.000000
vn 0.999146 0.041314 0.000000
vn 0.999146 0.041314 0.000000
vn 0.308787 0.041316 -0.950233
vn 0.308787 0.041316 -0.950233
vn 0.308787 0.041316 -0.950233
vn -0.808372 0.041314 -0.587221
vn -0.808372 0.041314 -0.587221
vn -0.808372 0.041314 -0.587221
vn -0.808346 0.041314 0.587257
vn -0.808346 0.041314 0.587257
vn -0.808346 0.041314 0.587257
s 1
g Rum_Bottle
usemtl initialShadingGroup
f 12/17/1 13/18/2 1/6/3 2/7/4
f 16/21/5 12/17/1 2/7/4 3/8/6
f 15/20/7 16/21/5 3/8/6 4/9/8
f 14/19/9 15/20/7 4/9/8 5/10/10
f 13/18/2 14/19/9 5/10/10 1/6/3
s 2
f 1/1/11 11/16/12 2/2/13
f 2/2/13 11/16/12 3/3/14
f 3/3/14 11/16/12 4/4/15
f 4/4/15 11/16/12 5/5/16
f 1/1/11 5/5/16 11/16/12
s 1
f 27/32/17 28/33/18 13/18/2 12/17/1
f 28/33/18 29/34/19 14/19/9 13/18/2
f 29/34/19 30/35/20 15/20/7 14/19/9
f 30/35/20 31/36/21 16/21/5 15/20/7
f 27/32/17 12/17/1 16/21/5 31/36/21
s 3
f 26/31/22 22/27/23 17/22/24 21/26/25
f 22/27/23 23/28/26 18/23/27 17/22/24
f 23/28/26 24/29/28 19/24/29 18/23/27
f 24/29/28 25/30/30 20/25/31 19/24/29
f 25/30/30 26/31/22 21/26/25 20/25/31
s 4
f 7/12/32 22/27/33 26/31/34 8/13/35
f 6/11/36 23/28/37 22/27/33 7/12/32
f 6/11/36 10/15/38 24/29/39 23/28/37
f 9/14/40 25/30/41 24/29/39 10/15/38
f 8/13/35 26/31/34 25/30/41 9/14/40
s 3
f 21/26/25 17/22/24 27/32/42 31/36/43
f 17/22/24 18/23/27 28/33/44 27/32/42
f 18/23/27 19/24/29 29/34/45 28/33/44
f 19/24/29 20/25/31 30/35/46 29/34/45
f 20/25/31 21/26/25 31/36/43 30/35/46
s 5
f 32/48/47 6/38/48 7/39/49 33/49/50
f 33/50/50 7/40/49 8/41/51 34/51/52
f 34/52/52 8/42/51 9/43/53 35/53/54
f 35/54/54 9/44/53 10/45/55 36/55/56
f 32/47/47 36/56/56 10/46/55 6/37/48
f 37/60/57 32/59/47 33/61/50 38/62/58
f 38/64/58 33/63/50 34/65/52 39/66/59
f 39/68/59 34/67/52 35/69/54 40/70/60
f 40/72/60 35/71/54 36/73/56 41/74/61
f 37/58/57 41/76/61 36/75/56 32/57/47
s 6
f 42/80/62 37/79/63 38/81/64 43/82/65
f 43/84/65 38/83/64 39/85/66 44/86/67
f 44/88/67 39/87/66 40/89/68 45/90/69
f 45/92/69 40/91/68 41/93/70 46/94/71
f 42/78/62 46/96/71 41/95/70 37/77/63
s 7
f 48/102/72 47/100/73 42/99/74 43/101/75
f 49/106/76 48/104/72 43/103/75 44/105/77
f 50/110/78 49/108/76 44/107/77 45/109/79
f 51/114/80 50/112/78 45/111/79 46/113/81
f 47/98/73 51/116/80 46/115/81 42/97/74
s off
f 47/117/82 48/118/83 52/119/84
f 48/120/85 49/121/86 52/122/87
f 49/123/88 50/124/89 52/125/90
f 50/126/91 51/127/92 52/128/93
f 51/129/94 47/130/95 52/131/96
