# This file uses centimeters as units for non-parametric coordinates.

mtllib Tequila Bottle.mtl
g default
v 8.420507 9.685893 -10.299073
v 8.237329 9.685893 -10.177111
v 8.237329 9.685893 -9.782440
v 8.420507 9.685893 -9.660475
v 8.533715 9.685893 -9.979778
v 8.392149 10.820438 -10.048318
v 8.311568 10.820438 -10.022140
v 8.311568 10.820438 -9.937413
v 8.392149 10.820438 -9.911231
v 8.441947 10.820438 -9.979777
v 8.369878 9.688555 -9.979778
v 8.230993 10.274333 -10.186545
v 8.422927 10.274333 -10.314333
v 8.541548 10.274333 -9.979778
v 8.422927 10.274333 -9.645218
v 8.230993 10.274333 -9.773006
v 8.306811 10.591219 -10.025595
v 8.393967 10.591219 -10.053912
v 8.447829 10.591219 -9.979777
v 8.393967 10.591219 -9.905638
v 8.306811 10.591219 -9.933956
v 8.258696 9.935975 -10.145301
v 8.412345 9.935975 -10.247603
v 8.507306 9.935975 -9.979777
v 8.412345 9.935975 -9.711948
v 8.258696 9.935975 -9.814250
v 8.394742 10.830647 -10.056300
v 8.304781 10.830647 -10.027070
v 8.304781 10.830647 -9.932477
v 8.394742 10.830647 -9.903245
v 8.450337 10.830647 -9.979777
v 8.391441 10.840363 -10.046142
v 8.313421 10.840363 -10.020792
v 8.313421 10.840363 -9.938755
v 8.391441 10.840363 -9.913401
v 8.439657 10.840363 -9.979774
v 8.391441 10.858482 -10.046142
v 8.313421 10.858482 -10.020792
v 8.313421 10.858482 -9.938755
v 8.391441 10.858482 -9.913401
v 8.439657 10.858482 -9.979774
v 8.388618 10.858482 -10.037454
v 8.320810 10.858482 -10.015423
v 8.320810 10.858482 -9.944123
v 8.388618 10.858482 -9.922088
v 8.430523 10.858482 -9.979773
v 8.224652 10.442563 -10.150353
v 8.425349 10.442563 -10.255775
v 8.549383 10.442563 -9.979778
v 8.425349 10.442563 -9.703776
v 8.224652 10.442563 -9.809198
v 8.369876 9.795109 -9.979772
vt 0.548284 0.007647
vt 0.373591 0.064409
vt 0.373591 0.248091
vt 0.548284 0.304853
vt 0.656250 0.156250
vt 0.412500 0.312500
vt 0.462500 0.312500
vt 0.512500 0.312500
vt 0.562500 0.312500
vt 0.612500 0.312500
vt 0.412500 0.688440
vt 0.462500 0.688440
vt 0.512500 0.688440
vt 0.562500 0.688440
vt 0.612500 0.688440
vt 0.500000 0.150000
vt 0.462500 0.664123
vt 0.412500 0.664123
vt 0.612500 0.664123
vt 0.562500 0.664123
vt 0.512500 0.664123
vt 0.462500 0.673112
vt 0.412500 0.673112
vt 0.612500 0.673112
vt 0.562500 0.673112
vt 0.512500 0.673112
vt 0.462500 0.345609
vt 0.412500 0.345609
vt 0.612500 0.345609
vt 0.562500 0.345609
vt 0.512500 0.345609
vt 1.000000 0.000000
vt 0.000000 0.000000
vt 1.000000 0.000000
vt 0.000000 0.000000
vt 1.000000 0.000000
vt 0.000000 0.000000
vt 1.000000 0.000000
vt 0.000000 0.000000
vt 1.000000 0.000000
vt 0.000000 0.000000
vt 1.000000 1.000000
vt 0.000000 1.000000
vt 1.000000 1.000000
vt 0.000000 1.000000
vt 1.000000 1.000000
vt 0.000000 1.000000
vt 1.000000 1.000000
vt 0.000000 1.000000
vt 1.000000 1.000000
vt 0.000000 1.000000
vt 1.000000 0.000000
vt 1.000000 1.000000
vt 0.000000 0.000000
vt 0.000000 1.000000
vt 1.000000 0.000000
vt 1.000000 1.000000
vt 0.000000 0.000000
vt 0.000000 1.000000
vt 1.000000 0.000000
vt 1.000000 1.000000
vt 0.000000 0.000000
vt 0.000000 1.000000
vt 1.000000 0.000000
vt 1.000000 1.000000
vt 0.000000 0.000000
vt 0.000000 1.000000
vt 1.000000 0.000000
vt 1.000000 1.000000
vt 0.000000 0.000000
vt 0.000000 1.000000
vt 1.000000 0.000000
vt 1.000000 1.000000
vt 0.000000 0.000000
vt 0.000000 1.000000
vt 1.000000 0.000000
vt 1.000000 1.000000
vt 0.000000 0.000000
vt 0.000000 1.000000
vt 1.000000 0.000000
vt 1.000000 1.000000
vt 0.000000 0.000000
vt 0.000000 1.000000
vt 1.000000 0.000000
vt 1.000000 1.000000
vt 0.000000 0.000000
vt 0.000000 1.000000
vt 1.000000 0.000000
vt 1.000000 1.000000
vt 0.000000 0.000000
vt 0.000000 1.000000
vt 1.000000 0.000000
vt 1.000000 1.000000
vt 0.000000 0.000000
vt 0.000000 1.000000
vt 1.000000 0.000000
vt 1.000000 1.000000
vt 0.000000 0.000000
vt 0.000000 1.000000
vt 1.000000 0.000000
vt 1.000000 1.000000
vt 0.000000 0.000000
vt 0.000000 1.000000
vt 1.000000 0.000000
vt 1.000000 1.000000
vt 0.000000 0.000000
vt 0.000000 1.000000
vt 1.000000 0.000000
vt 1.000000 1.000000
vt 0.000000 0.000000
vt 0.000000 1.000000
vt 0.462500 0.668895
vt 0.412500 0.668895
vt 0.612500 0.668895
vt 0.562500 0.668895
vt 0.512500 0.668895
vt 0.000000 0.000000
vt 1.000000 0.000000
vt 0.500000 1.000000
vt 0.000000 0.000000
vt 1.000000 0.000000
vt 0.500000 1.000000
vt 0.000000 0.000000
vt 1.000000 0.000000
vt 0.500000 1.000000
vt 0.000000 0.000000
vt 1.000000 0.000000
vt 0.500000 1.000000
vt 0.000000 0.000000
vt 1.000000 0.000000
vt 0.500000 1.000000
vn -0.949044 0.118243 -0.292119
vn 0.568961 0.183550 -0.801619
vn 0.501839 0.190046 -0.843825
vn -0.915115 0.126867 -0.382712
vn -0.915115 0.126869 0.382711
vn -0.949044 0.118245 0.292119
vn 0.568971 0.183553 0.801611
vn 0.501841 0.190050 0.843823
vn 0.994470 0.105022 0.000002
vn 0.994470 0.105022 -0.000002
vn -0.002238 -0.999966 0.007980
vn 0.000429 -1.000000 0.000000
vn 0.010007 -0.999927 0.006765
vn 0.010007 -0.999927 -0.006765
vn -0.002238 -0.999966 -0.007980
vn -0.016243 -0.999868 0.000000
vn -0.902758 0.260283 -0.342462
vn -0.902130 -0.039826 -0.429623
vn -0.902130 -0.039826 0.429623
vn -0.902758 0.260283 0.342462
vn 0.500283 0.341837 -0.795528
vn 0.459773 -0.061816 -0.885883
vn 0.969113 0.246619 -0.000001
vn 0.998663 -0.051685 -0.000001
vn 0.500291 0.341835 0.795523
vn 0.459780 -0.061815 0.885879
vn -0.808739 0.025646 -0.587609
vn -0.808745 0.025646 -0.587600
vn -0.808746 0.025646 0.587599
vn -0.808749 0.025646 0.587595
vn 0.308915 0.025649 -0.950744
vn 0.308914 0.025649 -0.950744
vn 0.999671 0.025650 -0.000000
vn 0.999671 0.025650 0.000000
vn 0.308919 0.025647 0.950742
vn 0.308924 0.025647 0.950741
vn -0.949166 -0.113498 -0.293602
vn -0.949166 -0.113498 0.293602
vn 0.569001 -0.176211 -0.803236
vn 0.994918 -0.100686 0.000002
vn 0.569008 -0.176209 0.803231
vn 0.307636 0.094544 -0.946796
vn 0.238734 -0.634971 -0.734723
vn -0.624985 -0.634952 -0.454126
vn -0.805412 0.094523 -0.585130
vn -0.624986 -0.635092 0.453929
vn -0.805308 0.094354 0.585300
vn 0.238734 -0.635162 0.734558
vn 0.307627 0.094290 0.946824
vn 0.772503 -0.635011 -0.000003
vn 0.995531 0.094440 -0.000048
vn 0.207933 0.739737 -0.639963
vn -0.544410 0.739715 -0.395524
vn -0.544440 0.739691 0.395528
vn 0.207955 0.739690 0.640010
vn 0.672942 0.739695 0.000038
vn 0.309026 0.000000 -0.951054
vn 0.309026 0.000000 -0.951054
vn -0.809023 0.000000 -0.587777
vn -0.809023 0.000000 -0.587777
vn -0.809035 0.000000 0.587761
vn -0.809035 0.000000 0.587761
vn 0.309040 0.000000 0.951049
vn 0.309040 0.000000 0.951049
vn 1.000000 0.000000 0.000000
vn 1.000000 0.000000 0.000000
vn 0.806153 0.084112 0.585698
vn -0.307932 0.084115 0.947683
vn 0.000000 1.000000 0.000002
vn 0.000000 1.000000 0.000001
vn 0.806163 0.084109 -0.585685
vn 0.000000 1.000000 -0.000002
vn -0.307940 0.084116 -0.947680
vn 0.000000 1.000000 -0.000002
vn -0.996457 0.084108 0.000000
vn 0.000000 1.000000 0.000001
vn -0.705680 0.649924 0.282160
vn -0.705680 0.649924 -0.282160
vn 0.310857 0.760953 -0.569489
vn 0.783884 0.620908 0.000001
vn 0.310866 0.760952 0.569486
vn 0.000112 1.000000 -0.000165
s 1
g Tequila_Bottle
usemtl initialShadingGroup
f 22/27/1 23/28/2 1/6/3 2/7/4
f 22/27/1 2/7/4 3/8/5 26/31/6
f 25/30/7 26/31/6 3/8/5 4/9/8
f 24/29/9 25/30/7 4/9/8 5/10/10
f 23/28/2 24/29/9 5/10/10 1/6/3
s 2
f 1/1/11 11/16/12 2/2/13
f 2/2/13 11/16/12 3/3/14
f 3/3/14 11/16/12 4/4/15
f 4/4/15 11/16/12 5/5/16
f 1/1/11 5/5/16 11/16/12
s 3
f 47/112/17 12/17/18 16/21/19 51/116/20
f 47/112/17 48/113/21 13/18/22 12/17/18
f 48/113/21 49/114/23 14/19/24 13/18/22
f 49/114/23 50/115/25 15/20/26 14/19/24
f 50/115/25 51/116/20 16/21/19 15/20/26
s 4
f 7/12/27 17/22/28 21/26/29 8/13/30
f 6/11/31 18/23/32 17/22/28 7/12/27
f 6/11/31 10/15/33 19/24/34 18/23/32
f 9/14/35 20/25/36 19/24/34 10/15/33
f 8/13/30 21/26/29 20/25/36 9/14/35
s 3
f 16/21/19 12/17/18 22/27/37 26/31/38
f 12/17/18 13/18/22 23/28/39 22/27/37
f 13/18/22 14/19/24 24/29/40 23/28/39
f 14/19/24 15/20/26 25/30/41 24/29/40
f 15/20/26 16/21/19 26/31/38 25/30/41
s 5
f 27/43/42 6/33/43 7/34/44 28/44/45
f 28/45/45 7/35/44 8/36/46 29/46/47
f 29/47/47 8/37/46 9/38/48 30/48/49
f 30/49/49 9/39/48 10/40/50 31/50/51
f 27/42/42 31/51/51 10/41/50 6/32/43
f 32/55/52 27/54/42 28/56/45 33/57/53
f 33/59/53 28/58/45 29/60/47 34/61/54
f 34/63/54 29/62/47 30/64/49 35/65/55
f 35/67/55 30/66/49 31/68/51 36/69/56
f 32/53/52 36/71/56 31/70/51 27/52/42
s 6
f 37/75/57 32/74/58 33/76/59 38/77/60
f 38/79/60 33/78/59 34/80/61 39/81/62
f 39/83/62 34/82/61 35/84/63 40/85/64
f 40/87/64 35/86/63 36/88/65 41/89/66
f 37/73/57 41/91/66 36/90/65 32/72/58
s 7
f 43/97/67 42/95/68 37/94/69 38/96/70
f 44/101/71 43/99/67 38/98/70 39/100/72
f 45/105/73 44/103/71 39/102/72 40/104/74
f 46/109/75 45/107/73 40/106/74 41/108/76
f 42/93/68 46/111/75 41/110/76 37/92/69
s 3
f 21/26/77 17/22/78 47/112/17 51/116/20
f 17/22/78 18/23/79 48/113/21 47/112/17
f 18/23/79 19/24/80 49/114/23 48/113/21
f 19/24/80 20/25/81 50/115/25 49/114/23
f 20/25/81 21/26/77 51/116/20 50/115/25
s 7
f 42/117/68 43/118/67 52/119/82
f 43/120/67 44/121/71 52/122/82
f 44/123/71 45/124/73 52/125/82
f 45/126/73 46/127/75 52/128/82
f 46/129/75 42/130/68 52/131/82
