# This file uses centimeters as units for non-parametric coordinates.

mtllib Whisky Bottle.mtl
g default
v 8.362913 9.685407 -13.713749
v 8.146390 9.685407 -13.643394
v 8.146390 9.685407 -13.415727
v 8.362913 9.685407 -13.345378
v 8.496730 9.685407 -13.529561
v 8.303067 9.685407 -13.529561
v 8.147477 11.057066 -13.642606
v 8.362497 11.057066 -13.712471
v 8.495388 11.057066 -13.529561
v 8.362497 11.057066 -13.346656
v 8.147477 11.057066 -13.416521
v 8.126543 10.986665 -13.657815
v 8.370491 10.986665 -13.737078
v 8.521259 10.986665 -13.529561
v 8.370491 10.986665 -13.322047
v 8.126543 10.986665 -13.401310
v 8.126543 9.741921 -13.657815
v 8.370491 9.741921 -13.737078
v 8.521259 9.741921 -13.529561
v 8.370491 9.741921 -13.322047
v 8.126543 9.741921 -13.401310
v 8.330751 11.162616 -13.614771
v 8.230582 11.162616 -13.582218
v 8.230582 11.162616 -13.476889
v 8.330751 11.162616 -13.444345
v 8.392662 11.162616 -13.529562
v 8.330593 11.210847 -13.614274
v 8.231004 11.210847 -13.581914
v 8.231004 11.210847 -13.477196
v 8.330593 11.210847 -13.444840
v 8.392141 11.210847 -13.529554
v 8.338278 11.329260 -13.637927
v 8.210879 11.329260 -13.596539
v 8.210879 11.329260 -13.462577
v 8.338278 11.329260 -13.421183
v 8.417015 11.329260 -13.529554
v 8.318033 11.482116 -13.575629
v 8.263869 11.482116 -13.558030
v 8.263869 11.482116 -13.501074
v 8.318033 11.482116 -13.483479
v 8.351514 11.482116 -13.529554
v 8.318033 11.546667 -13.575629
v 8.263869 11.546667 -13.558030
v 8.263869 11.546667 -13.501074
v 8.318033 11.546667 -13.483479
v 8.351514 11.546667 -13.529554
v 8.320600 11.556083 -13.583527
v 8.257148 11.556083 -13.562911
v 8.257148 11.556083 -13.496191
v 8.320600 11.556083 -13.475576
v 8.359819 11.556083 -13.529554
v 8.318192 11.564437 -13.576116
v 8.263453 11.564437 -13.558331
v 8.263453 11.564437 -13.500773
v 8.318192 11.564437 -13.482989
v 8.352025 11.564437 -13.529554
v 8.303063 9.853008 -13.529553
vt 0.548284 0.007647
vt 0.373591 0.064409
vt 0.373591 0.248091
vt 0.548284 0.304853
vt 0.656250 0.156250
vt 0.400000 0.312500
vt 0.450000 0.312500
vt 0.500000 0.312500
vt 0.550000 0.312500
vt 0.600000 0.312500
vt 0.500000 0.150000
vt 0.450000 0.675692
vt 0.400000 0.675692
vt 0.600000 0.675692
vt 0.550000 0.675692
vt 0.500000 0.675692
vt 0.450000 0.662891
vt 0.400000 0.662891
vt 0.600000 0.662891
vt 0.550000 0.662891
vt 0.500000 0.662891
vt 0.450000 0.327444
vt 0.400000 0.327444
vt 0.600000 0.327444
vt 0.550000 0.327444
vt 0.500000 0.327444
vt 1.000000 1.000000
vt 0.000000 1.000000
vt 1.000000 1.000000
vt 0.000000 1.000000
vt 1.000000 1.000000
vt 0.000000 1.000000
vt 1.000000 1.000000
vt 0.000000 1.000000
vt 1.000000 1.000000
vt 0.000000 1.000000
vt 1.000000 0.000000
vt 1.000000 1.000000
vt 0.000000 0.000000
vt 0.000000 1.000000
vt 1.000000 0.000000
vt 1.000000 1.000000
vt 0.000000 0.000000
vt 0.000000 1.000000
vt 1.000000 0.000000
vt 1.000000 1.000000
vt 0.000000 0.000000
vt 0.000000 1.000000
vt 1.000000 0.000000
vt 1.000000 1.000000
vt 0.000000 0.000000
vt 0.000000 1.000000
vt 1.000000 0.000000
vt 1.000000 1.000000
vt 0.000000 0.000000
vt 0.000000 1.000000
vt 1.000000 0.000000
vt 0.000000 0.000000
vt 1.000000 0.000000
vt 0.000000 0.000000
vt 1.000000 0.000000
vt 0.000000 0.000000
vt 1.000000 0.000000
vt 0.000000 0.000000
vt 1.000000 0.000000
vt 0.000000 0.000000
vt 1.000000 1.000000
vt 0.000000 1.000000
vt 1.000000 1.000000
vt 0.000000 1.000000
vt 1.000000 1.000000
vt 0.000000 1.000000
vt 1.000000 1.000000
vt 0.000000 1.000000
vt 1.000000 1.000000
vt 0.000000 1.000000
vt 1.000000 0.000000
vt 0.000000 0.000000
vt 1.000000 0.000000
vt 0.000000 0.000000
vt 1.000000 0.000000
vt 0.000000 0.000000
vt 1.000000 0.000000
vt 0.000000 0.000000
vt 1.000000 0.000000
vt 0.000000 0.000000
vt 1.000000 1.000000
vt 0.000000 1.000000
vt 1.000000 1.000000
vt 0.000000 1.000000
vt 1.000000 1.000000
vt 0.000000 1.000000
vt 1.000000 1.000000
vt 0.000000 1.000000
vt 1.000000 1.000000
vt 0.000000 1.000000
vt 1.000000 0.000000
vt 1.000000 1.000000
vt 0.000000 0.000000
vt 0.000000 1.000000
vt 1.000000 0.000000
vt 1.000000 1.000000
vt 0.000000 0.000000
vt 0.000000 1.000000
vt 1.000000 0.000000
vt 1.000000 1.000000
vt 0.000000 0.000000
vt 0.000000 1.000000
vt 1.000000 0.000000
vt 1.000000 1.000000
vt 0.000000 0.000000
vt 0.000000 1.000000
vt 1.000000 0.000000
vt 1.000000 1.000000
vt 0.000000 0.000000
vt 0.000000 1.000000
vt 1.000000 0.000000
vt 0.000000 0.000000
vt 1.000000 0.000000
vt 0.000000 0.000000
vt 1.000000 0.000000
vt 0.000000 0.000000
vt 1.000000 0.000000
vt 0.000000 0.000000
vt 1.000000 0.000000
vt 0.000000 0.000000
vt 1.000000 1.000000
vt 0.000000 1.000000
vt 1.000000 1.000000
vt 0.000000 1.000000
vt 1.000000 1.000000
vt 0.000000 1.000000
vt 1.000000 1.000000
vt 0.000000 1.000000
vt 1.000000 1.000000
vt 0.000000 1.000000
vt 1.000000 0.000000
vt 1.000000 1.000000
vt 0.000000 0.000000
vt 0.000000 1.000000
vt 1.000000 0.000000
vt 1.000000 1.000000
vt 0.000000 0.000000
vt 0.000000 1.000000
vt 1.000000 0.000000
vt 1.000000 1.000000
vt 0.000000 0.000000
vt 0.000000 1.000000
vt 1.000000 0.000000
vt 1.000000 1.000000
vt 0.000000 0.000000
vt 0.000000 1.000000
vt 1.000000 0.000000
vt 1.000000 1.000000
vt 0.000000 0.000000
vt 0.000000 1.000000
vt 0.000000 0.000000
vt 1.000000 0.000000
vt 0.500000 1.000000
vt 0.000000 0.000000
vt 1.000000 0.000000
vt 0.500000 1.000000
vt 0.000000 0.000000
vt 1.000000 0.000000
vt 0.500000 1.000000
vt 0.000000 0.000000
vt 1.000000 0.000000
vt 0.500000 1.000000
vt 0.000000 0.000000
vt 1.000000 0.000000
vt 0.500000 1.000000
vn -0.808925 -0.015235 -0.587714
vn 0.308988 -0.015234 -0.950944
vn 0.283481 -0.398167 -0.872411
vn -0.742117 -0.398194 -0.539169
vn -0.742109 -0.398189 0.539185
vn -0.808925 -0.015235 0.587714
vn 0.308981 -0.015234 0.950946
vn 0.283481 -0.398162 0.872413
vn 0.999884 -0.015233 0.000000
vn 0.917324 -0.398142 0.000001
vn 0.000000 -1.000000 0.000000
vn 0.000000 -1.000000 0.000000
vn 0.000000 -1.000000 0.000000
vn 0.000000 -1.000000 0.000000
vn 0.000000 -1.000000 0.000000
vn 0.000000 -1.000000 0.000000
vn -0.690812 0.520446 -0.501912
vn -0.808912 0.016248 -0.587705
vn -0.808912 0.016249 0.587705
vn -0.690832 0.520433 0.501897
vn 0.263876 0.520440 -0.812103
vn 0.308983 0.016247 -0.950929
vn 0.853907 0.520426 0.000000
vn 0.999868 0.016246 0.000000
vn 0.263886 0.520423 0.812111
vn 0.308976 0.016248 0.950931
vn 0.221434 0.697468 -0.681546
vn -0.579777 0.697457 -0.421203
vn -0.579778 0.697428 0.421250
vn 0.221462 0.697428 0.681578
vn 0.716629 0.697454 -0.000005
vn 0.305405 -0.152930 -0.939862
vn 0.308964 0.010816 -0.951012
vn -0.808993 0.010800 -0.587719
vn -0.799507 -0.152947 -0.580858
vn -0.808969 0.010810 0.587751
vn -0.799504 -0.152941 0.580864
vn 0.309006 0.010764 0.950999
vn 0.305400 -0.152944 0.939861
vn 0.999942 0.010768 -0.000057
vn 0.988236 -0.152934 0.000015
vn 0.307458 0.100883 -0.946199
vn -0.804889 0.100874 -0.584790
vn -0.804902 0.100865 0.584772
vn 0.307446 0.100873 0.946204
vn 0.994898 0.100889 -0.000000
vn 0.291534 0.331593 -0.897248
vn -0.763260 0.331593 -0.554509
vn -0.763251 0.331578 0.554530
vn 0.291542 0.331575 0.897252
vn 0.943421 0.331598 0.000000
vn 0.308999 0.000000 -0.951062
vn -0.809037 0.000000 -0.587758
vn -0.809018 0.000000 0.587783
vn 0.309047 0.000000 0.951047
vn 1.000000 0.000000 0.000000
vn 0.308891 -0.031736 -0.950568
vn 0.231724 -0.661426 -0.713316
vn -0.606708 -0.661503 -0.440817
vn -0.808645 -0.031806 -0.587437
vn -0.606639 -0.661604 0.440760
vn -0.808602 -0.031859 0.587492
vn 0.231761 -0.661565 0.713175
vn 0.308873 -0.031785 0.950572
vn 0.749941 -0.661504 0.000001
vn 0.999495 -0.031767 0.000010
vn -0.591578 0.682129 -0.429809
vn 0.225928 0.682122 -0.695461
vn -0.591546 0.682188 0.429759
vn 0.225960 0.682202 0.695372
vn 0.731177 0.682187 -0.000002
vn 0.308931 0.023138 0.950803
vn 0.308931 0.023138 0.950803
vn 0.308931 0.023138 0.950803
vn 0.999732 0.023138 0.000000
vn 0.999732 0.023138 0.000000
vn 0.999732 0.023138 0.000000
vn 0.308906 0.023138 -0.950811
vn 0.308906 0.023138 -0.950811
vn 0.308906 0.023138 -0.950811
vn -0.808789 0.023138 -0.587644
vn -0.808789 0.023138 -0.587644
vn -0.808789 0.023138 -0.587644
vn -0.808769 0.023139 0.587671
vn -0.808769 0.023139 0.587671
vn -0.808769 0.023139 0.587671
s 1
g Whisky_Bottle
usemtl initialShadingGroup
f 17/22/1 18/23/2 1/6/3 2/7/4
f 17/22/1 2/7/4 3/8/5 21/26/6
f 20/25/7 21/26/6 3/8/5 4/9/8
f 19/24/9 20/25/7 4/9/8 5/10/10
f 18/23/2 19/24/9 5/10/10 1/6/3
s 2
f 1/1/11 6/11/12 2/2/13
f 2/2/13 6/11/12 3/3/14
f 3/3/14 6/11/12 4/4/15
f 4/4/15 6/11/12 5/5/16
f 1/1/11 5/5/16 6/11/12
s 1
f 7/12/17 12/17/18 16/21/19 11/16/20
f 7/12/17 8/13/21 13/18/22 12/17/18
f 8/13/21 9/14/23 14/19/24 13/18/22
f 9/14/23 10/15/25 15/20/26 14/19/24
f 10/15/25 11/16/20 16/21/19 15/20/26
f 12/17/18 17/22/1 21/26/6 16/21/19
f 12/17/18 13/18/22 18/23/2 17/22/1
f 13/18/22 14/19/24 19/24/9 18/23/2
f 14/19/24 15/20/26 20/25/7 19/24/9
f 15/20/26 16/21/19 21/26/6 20/25/7
f 22/28/27 8/13/21 7/12/17 23/29/28
f 23/30/28 7/12/17 11/16/20 24/31/29
f 24/32/29 11/16/20 10/15/25 25/33/30
f 25/34/30 10/15/25 9/14/23 26/35/31
f 22/27/27 26/36/31 9/14/23 8/13/21
s 4
f 27/40/32 22/39/33 23/41/34 28/42/35
f 28/44/35 23/43/34 24/45/36 29/46/37
f 29/48/37 24/47/36 25/49/38 30/50/39
f 30/52/39 25/51/38 26/53/40 31/54/41
f 27/38/32 31/56/41 26/55/40 22/37/33
f 32/68/42 27/58/32 28/59/35 33/69/43
f 33/70/43 28/60/35 29/61/37 34/71/44
f 34/72/44 29/62/37 30/63/39 35/73/45
f 35/74/45 30/64/39 31/65/41 36/75/46
f 32/67/42 36/76/46 31/66/41 27/57/32
f 37/88/47 32/78/42 33/79/43 38/89/48
f 38/90/48 33/80/43 34/81/44 39/91/49
f 39/92/49 34/82/44 35/83/45 40/93/50
f 40/94/50 35/84/45 36/85/46 41/95/51
f 37/87/47 41/96/51 36/86/46 32/77/42
f 42/100/52 37/99/47 38/101/48 43/102/53
f 43/104/53 38/103/48 39/105/49 44/106/54
f 44/108/54 39/107/49 40/109/50 45/110/55
f 45/112/55 40/111/50 41/113/51 46/114/56
f 42/98/52 46/116/56 41/115/51 37/97/47
s 5
f 47/128/57 42/118/58 43/119/59 48/129/60
f 48/130/60 43/120/59 44/121/61 49/131/62
f 49/132/62 44/122/61 45/123/63 50/133/64
f 50/134/64 45/124/63 46/125/65 51/135/66
f 47/127/57 51/136/66 46/126/65 42/117/58
f 53/142/67 52/140/68 47/139/57 48/141/60
f 54/146/69 53/144/67 48/143/60 49/145/62
f 55/150/70 54/148/69 49/147/62 50/149/64
f 56/154/71 55/152/70 50/151/64 51/153/66
f 52/138/68 56/156/71 51/155/66 47/137/57
s off
f 52/157/72 53/158/73 57/159/74
f 53/160/75 54/161/76 57/162/77
f 54/163/78 55/164/79 57/165/80
f 55/166/81 56/167/82 57/168/83
f 56/169/84 52/170/85 57/171/86
